<?xml version="1.0" standalone="no"?>
<!DOCTYPE svg PUBLIC "-//W3C//DTD SVG 20010904//EN"
 "http://www.w3.org/TR/2001/REC-SVG-20010904/DTD/svg10.dtd">
<svg version="1.0" xmlns="http://www.w3.org/2000/svg"
 width="281.000000pt" height="381.000000pt" viewBox="0 0 281.000000 381.000000"
 preserveAspectRatio="xMidYMid meet">

<g transform="translate(0.000000,381.000000) scale(0.100000,-0.100000)"
fill="#000000" stroke="none">
<path d="M1285 3799 c-207 -27 -411 -116 -580 -252 -72 -59 -195 -180 -195
-193 0 -6 12 -16 27 -23 54 -24 123 -73 123 -87 0 -21 -7 -18 -71 31 -77 58
-87 58 -21 -1 29 -26 62 -60 74 -76 18 -26 19 -32 6 -39 -11 -6 -15 -27 -16
-81 0 -54 -4 -75 -16 -84 -14 -10 -14 -18 8 -87 13 -41 27 -99 31 -128 4 -30
13 -61 20 -69 7 -8 15 -26 18 -40 3 -14 17 -56 31 -95 14 -38 26 -84 26 -101
0 -27 9 -54 50 -149 5 -11 11 -37 15 -57 3 -21 11 -40 16 -44 7 -4 9 1 5 14
-10 32 -8 312 3 355 13 52 19 56 43 27 l20 -25 -2 25 c-1 14 3 39 11 57 l13
32 20 -42 20 -42 4 45 c2 31 6 40 13 30 6 -11 9 -5 9 20 1 29 3 31 10 15 4
-12 16 -27 26 -35 18 -14 18 -14 5 3 -11 14 -11 21 -3 29 9 9 12 9 12 0 0 -7
4 -12 9 -12 6 0 6 12 0 32 -5 18 -9 41 -9 50 0 21 25 24 34 6 3 -7 3 -3 1 8
-4 14 0 24 10 28 9 3 14 10 11 15 -9 14 17 19 29 7 6 -6 26 -31 44 -56 19 -25
48 -57 64 -71 l30 -26 -46 -26 c-25 -15 -57 -27 -72 -27 -29 0 -95 -31 -114
-54 -26 -31 28 -57 67 -33 7 5 12 3 12 -7 0 -9 6 -16 14 -16 22 0 30 19 11 26
-12 5 -13 9 -4 20 10 13 14 13 28 0 49 -43 162 -36 198 13 6 9 9 19 6 24 -2 4
7 31 20 60 23 49 43 122 38 140 -1 5 4 5 10 1 8 -4 9 1 4 17 l-7 24 26 -25
c17 -15 25 -19 21 -9 -5 13 -1 15 19 12 24 -5 25 -4 19 48 -7 73 -6 86 9 120
13 30 23 36 33 19 3 -5 15 -15 26 -20 26 -14 22 10 -5 26 -15 9 -16 13 -5 19
7 5 14 4 17 -3 5 -17 22 -15 22 3 0 34 15 12 18 -26 1 -23 -1 -38 -7 -35 -10
7 -21 -16 -21 -47 0 -12 -11 -40 -25 -62 -25 -41 -34 -73 -12 -44 9 13 12 -37
11 -241 l-1 -256 -27 -43 c-24 -37 -26 -47 -17 -70 7 -15 27 -32 49 -42 36
-15 38 -19 38 -57 0 -36 -4 -43 -28 -53 -15 -6 -30 -20 -33 -30 -4 -10 -14
-19 -24 -19 -10 0 -24 -7 -31 -15 -8 -10 -25 -14 -49 -11 -39 4 -59 -3 -98
-37 -13 -12 -39 -29 -56 -37 -17 -8 -33 -23 -35 -34 -4 -16 1 -17 45 -12 84
12 145 10 154 -5 7 -11 9 -11 9 -1 0 9 5 10 19 2 11 -5 38 -8 60 -6 23 2 41 3
41 1 0 -14 -45 -45 -78 -55 -68 -18 -48 -35 36 -33 44 2 72 -2 72 -8 0 -6 5
-7 10 -4 5 3 10 1 10 -5 0 -14 35 -61 41 -55 2 2 4 -19 4 -46 0 -27 -3 -49 -7
-49 -5 0 -8 -5 -8 -10 0 -6 -16 -28 -37 -48 -20 -20 -33 -30 -28 -22 8 14 -42
-25 -56 -44 -4 -4 -9 -2 -12 5 -4 10 -6 9 -6 -3 -1 -9 -11 -20 -23 -24 -48
-15 -53 -50 -11 -96 8 -9 12 -22 8 -27 -3 -6 -1 -11 5 -11 6 0 8 -5 5 -10 -3
-6 1 -10 9 -10 8 0 25 -20 37 -45 12 -25 26 -45 29 -45 12 0 12 -153 1 -160
-7 -4 -8 -17 -2 -38 6 -21 6 -34 -1 -38 -5 -4 -6 -9 -2 -13 13 -9 44 -70 44
-86 0 -8 9 -17 20 -20 19 -6 25 -22 21 -53 -1 -7 5 -22 14 -34 19 -28 19 -48
1 -48 -8 0 -16 -5 -18 -12 -6 -17 -56 -1 -81 26 -79 84 -114 124 -130 146
l-18 25 5 -25 c8 -38 -14 -110 -39 -126 -13 -8 -26 -23 -29 -32 -17 -46 -38
-70 -271 -310 -60 -62 -121 -119 -135 -126 -14 -7 -24 -17 -23 -23 1 -5 -20
-34 -48 -63 -52 -56 -57 -65 -35 -73 8 -3 35 15 62 41 27 26 81 68 121 94 50
33 85 66 116 110 25 35 86 100 136 146 75 69 95 82 113 76 25 -8 210 -174 206
-185 -2 -4 -88 -95 -193 -203 -104 -108 -192 -201 -194 -207 -2 -7 52 -10 180
-7 l184 3 74 58 c40 31 80 57 88 57 17 0 74 30 85 45 4 6 8 6 8 1 0 -4 17 7
38 25 20 18 36 37 34 42 -1 5 2 6 7 3 5 -3 23 8 41 24 18 17 36 30 40 30 14 0
19 28 7 34 -7 2 -2 5 10 5 13 1 28 10 35 21 7 11 18 20 24 20 13 0 23 21 30
60 3 14 13 36 22 50 10 14 37 68 61 120 24 52 56 113 72 134 16 22 29 48 29
57 0 32 21 32 60 0 48 -39 92 -57 83 -36 -3 8 -9 15 -14 15 -15 0 -58 73 -74
125 -15 51 -12 150 6 161 5 3 19 0 31 -7 21 -10 20 -9 -4 18 -16 16 -28 35
-28 43 0 7 -11 27 -23 44 -13 17 -50 78 -82 136 -31 58 -77 131 -101 163 -56
75 -57 108 -9 203 20 38 45 99 56 135 l20 67 57 -5 c77 -6 115 17 129 78 14
60 9 398 -6 427 -8 16 -9 28 -1 42 19 35 50 144 50 177 0 17 4 35 10 38 5 3
10 15 10 26 0 10 4 19 9 19 5 0 19 33 32 73 28 86 33 239 10 297 -8 19 -48 86
-88 148 -162 246 -412 455 -649 541 -141 52 -362 78 -499 60z m72 -866 c-13
-12 -28 12 -33 53 l-5 39 23 -42 c12 -24 19 -46 15 -50z m1153 -8 c0 -14 -4
-25 -9 -25 -5 0 -11 11 -13 25 -4 17 -1 25 8 25 8 0 14 -11 14 -25z m-19 -97
l-16 -62 -3 41 c-3 42 11 83 27 83 5 0 2 -28 -8 -62z m-629 -78 c9 -52 1 -60
-59 -60 -30 0 -49 -6 -63 -20 -35 -35 -22 -70 26 -70 10 0 13 6 10 18 -5 16 9
51 17 42 2 -3 7 -17 11 -32 4 -19 2 -28 -6 -28 -20 0 116 -68 161 -80 30 -8
48 -21 66 -48 27 -41 28 -76 2 -116 -9 -14 -17 -28 -17 -30 0 -16 -47 -71 -60
-70 -50 3 -81 38 -88 102 -1 7 -6 10 -12 7 -6 -4 -10 6 -10 22 0 18 -13 43
-35 68 -19 22 -38 45 -42 50 -68 86 -73 95 -73 132 0 48 43 114 90 138 16 8
30 12 30 8 0 -4 5 -2 12 5 20 20 32 8 40 -38z m-848 14 c3 -8 2 -12 -4 -9 -6
3 -10 10 -10 16 0 14 7 11 14 -7z m1475 -40 c-6 -16 -13 -24 -16 -17 -5 13 16
58 23 50 3 -2 -1 -17 -7 -33z m-649 -64 c0 -5 -7 -10 -16 -10 -8 0 -12 5 -9
10 3 6 10 10 16 10 5 0 9 -4 9 -10z m-240 -735 c0 -15 -13 -17 -115 -18 -16 0
-28 4 -25 9 3 5 13 8 23 7 9 -2 17 1 17 5 0 4 23 8 50 9 39 2 50 -1 50 -12z
m540 -1074 c0 -6 -4 -13 -10 -16 -5 -3 -10 1 -10 9 0 9 5 16 10 16 6 0 10 -4
10 -9z m-9 -45 c-7 -8 -13 -28 -13 -45 -1 -24 -4 -29 -14 -20 -7 6 -10 18 -7
27 6 18 33 52 41 52 2 0 -1 -6 -7 -14z m39 -7 c0 -11 -4 -17 -10 -14 -5 3 -10
13 -10 21 0 8 5 14 10 14 6 0 10 -9 10 -21z m-16 -84 c7 -34 -7 -15 -19 25 -5
16 -4 22 3 15 5 -5 12 -23 16 -40z m-67 -27 c-3 -7 -5 -2 -5 12 0 14 2 19 5
13 2 -7 2 -19 0 -25z m63 -38 c4 -3 3 -16 -2 -30 -7 -20 -11 -22 -18 -10 -5 8
-10 31 -10 50 1 31 2 33 12 15 6 -11 14 -22 18 -25z m-40 20 c0 -5 -5 -10 -11
-10 -5 0 -7 5 -4 10 3 6 8 10 11 10 2 0 4 -4 4 -10z m-305 -20 c-10 -16 14
-50 36 -50 13 0 18 -4 13 -12 -5 -10 -4 -10 6 -1 18 17 44 5 29 -13 -6 -8 -15
-11 -20 -8 -5 3 -8 2 -7 -3 2 -5 -7 -20 -18 -35 -51 -65 -217 -82 -263 -28
-23 27 -37 67 -27 77 3 4 42 -1 86 -11 82 -17 100 -16 100 10 0 8 5 14 10 14
6 0 10 4 10 9 0 25 21 61 35 61 9 0 13 -4 10 -10z m265 -36 c0 -8 3 -13 8 -12
4 1 17 -1 30 -6 25 -8 29 -32 8 -55 -21 -23 -24 -57 -6 -53 8 2 12 0 7 -4 -4
-4 -16 -8 -26 -9 -17 -1 -18 2 -8 24 6 14 18 37 26 51 15 24 15 24 -2 11 -10
-8 -17 -10 -16 -5 3 19 -1 44 -8 43 -20 -3 -29 3 -30 21 -1 11 2 18 8 15 5 -4
9 -13 9 -21z m-40 8 c0 -4 -10 -13 -22 -21 -23 -14 -23 -14 -4 8 20 22 26 25
26 13z m-70 -54 c0 -16 -3 -19 -11 -11 -6 6 -8 16 -5 22 11 17 16 13 16 -11z
m80 -18 c0 -5 -2 -10 -4 -10 -3 0 -8 5 -11 10 -3 6 -1 10 4 10 6 0 11 -4 11
-10z m40 -39 c0 -17 -15 -21 -46 -11 l-29 8 27 1 c22 1 25 4 20 24 -5 21 -5
21 11 5 9 -9 17 -21 17 -27z m-150 9 c0 -4 -6 -10 -14 -13 -12 -5 -14 2 -7 31
2 7 21 -10 21 -18z m-94 -39 c-33 -16 -54 -30 -48 -32 7 -2 -14 -5 -46 -5 -50
-2 -53 -1 -22 6 19 5 62 20 95 34 80 34 95 31 21 -3z m164 9 c0 -4 -11 -5 -25
-2 -29 5 -44 -20 -26 -42 7 -8 11 -18 10 -22 -3 -20 2 -34 12 -34 6 0 9 7 5
15 -3 8 -1 15 4 15 6 0 10 -6 10 -14 0 -8 9 -18 20 -21 22 -7 18 -25 -6 -25
-10 0 -12 5 -8 13 5 8 2 7 -9 -2 -15 -12 -22 -12 -42 -1 -28 15 -41 40 -20 40
8 0 15 5 15 10 0 15 -16 12 -34 -6 -26 -26 6 -106 35 -88 5 3 9 2 9 -3 0 -14
-14 -30 -37 -42 -20 -10 -23 -9 -23 8 0 11 -9 22 -20 26 -22 7 -27 31 -7 38 6
2 9 8 5 12 -12 12 -38 -15 -38 -39 0 -15 -3 -17 -9 -7 -6 9 -18 11 -40 6 -26
-6 -31 -4 -31 13 0 10 9 27 20 37 11 10 20 24 20 32 0 15 57 53 81 53 9 0 24
9 34 20 10 12 24 19 30 16 7 -2 18 0 25 4 14 9 40 3 40 -10z m40 -34 c0 -24
-21 -35 -46 -24 -31 14 -31 27 0 21 13 -3 27 1 31 8 5 8 4 10 -3 5 -7 -4 -12
-1 -12 10 0 13 3 14 15 4 8 -7 15 -18 15 -24z m18 -21 c-1 -14 -6 -25 -10 -25
-10 0 -10 13 -2 34 9 23 14 19 12 -9z m-128 -79 c0 -3 -4 -8 -10 -11 -5 -3
-10 -1 -10 4 0 6 5 11 10 11 6 0 10 -2 10 -4z m-85 -86 c4 -6 11 -8 16 -5 5 4
9 2 9 -3 0 -7 -42 -32 -55 -32 -4 0 -1 30 4 48 2 6 21 1 26 -8z m-85 -54 c0
-3 -4 -8 -10 -11 -5 -3 -10 -1 -10 4 0 6 5 11 10 11 6 0 10 -2 10 -4z"/>
<path d="M1941 2276 c-10 -12 -8 -13 8 -9 12 3 18 9 15 14 -7 12 -10 11 -23
-5z"/>
<path d="M1914 476 c-10 -8 -16 -17 -13 -20 3 -3 14 3 24 14 21 23 17 26 -11
6z"/>
<path d="M390 2601 c0 -17 57 -128 70 -136 6 -4 -5 26 -26 67 -40 81 -44 87
-44 69z"/>
<path d="M491 2401 c7 -18 16 -28 24 -25 8 4 17 -7 25 -30 12 -38 40 -69 40
-45 -1 68 -40 129 -81 129 -16 0 -17 -4 -8 -29z"/>
<path d="M750 2332 c0 -10 9 -25 20 -35 24 -20 25 -16 5 23 -18 34 -25 38 -25
12z"/>
<path d="M448 2315 c-7 -8 3 -55 12 -55 9 0 20 25 20 46 0 14 -21 19 -32 9z"/>
<path d="M1406 2279 c-17 -14 -26 -30 -26 -50 0 -31 23 -41 34 -14 3 8 11 15
18 15 7 1 26 11 42 24 l28 23 -32 12 c-40 14 -33 15 -64 -10z"/>
<path d="M653 2245 c-7 -7 -16 -15 -22 -16 -16 -6 -1 -129 15 -129 8 0 14 5
14 11 0 6 7 3 16 -5 8 -9 22 -16 30 -16 20 0 18 74 -3 121 -20 44 -33 52 -50
34z"/>
<path d="M1523 2150 c-12 -28 -6 -47 9 -32 5 5 8 20 6 33 l-5 24 -10 -25z"/>
<path d="M691 1993 c-1 -6 -23 -16 -51 -23 -27 -7 -50 -15 -50 -20 0 -4 -13
-23 -28 -43 -22 -27 -28 -43 -24 -66 5 -35 17 -38 50 -15 25 17 102 29 102 15
0 -4 -8 -19 -19 -32 -18 -24 -63 -119 -56 -119 2 0 16 20 31 45 14 25 29 45
32 45 4 0 18 -9 32 -20 31 -24 58 -25 90 -4 37 25 50 45 50 76 0 23 -4 28 -25
28 -40 0 -94 27 -104 52 -5 13 -14 39 -19 58 -6 19 -10 30 -11 23z"/>
<path d="M786 1925 c-3 -9 1 -18 10 -22 19 -7 28 2 21 22 -8 19 -23 19 -31 0z"/>
<path d="M823 1703 c30 -7 33 -34 6 -56 l-24 -20 38 7 c27 5 37 4 32 -3 -3 -6
1 -11 9 -11 8 0 21 -6 28 -14 8 -7 24 -17 36 -20 18 -6 22 -15 22 -48 0 -54
24 -45 28 11 3 38 -1 47 -35 82 -21 21 -44 39 -52 39 -8 0 -22 7 -31 15 -9 8
-30 16 -46 19 -16 2 -21 1 -11 -1z"/>
<path d="M805 1455 c-21 -19 -35 -38 -31 -42 4 -4 23 10 43 30 48 47 37 59
-12 12z"/>
<path d="M970 1375 c-8 -9 -8 -15 -2 -15 12 0 26 19 19 26 -2 2 -10 -2 -17
-11z"/>
<path d="M1020 1333 c0 -18 5 -33 10 -33 13 0 13 30 0 50 -7 11 -10 7 -10 -17z"/>
<path d="M867 1293 c-10 -9 -9 -23 2 -23 5 0 11 7 15 15 5 15 -5 20 -17 8z"/>
<path d="M1114 1233 c9 -18 18 -33 20 -33 9 0 -8 41 -22 52 -13 11 -12 8 2
-19z"/>
<path d="M869 1042 c-7 -26 -8 -45 -2 -57 8 -13 11 -5 16 36 8 65 2 74 -14 21z"/>
<path d="M952 1050 c0 -19 2 -27 5 -17 2 9 2 25 0 35 -3 9 -5 1 -5 -18z"/>
<path d="M820 851 c0 -10 19 -25 25 -20 1 2 -3 10 -11 17 -8 7 -14 8 -14 3z"/>
</g>
</svg>
