<?xml version="1.0" standalone="no"?>
<!DOCTYPE svg PUBLIC "-//W3C//DTD SVG 20010904//EN"
 "http://www.w3.org/TR/2001/REC-SVG-20010904/DTD/svg10.dtd">
<svg version="1.0" xmlns="http://www.w3.org/2000/svg"
 width="281.000000pt" height="381.000000pt" viewBox="0 0 281.000000 381.000000"
 preserveAspectRatio="xMidYMid meet">

<g transform="translate(0.000000,381.000000) scale(0.100000,-0.100000)"
fill="#000000" stroke="none">
<path d="M1325 3804 c-153 -18 -272 -53 -405 -119 -566 -284 -939 -1051 -907
-1865 18 -446 141 -853 355 -1175 78 -119 106 -153 213 -261 195 -198 411
-315 663 -359 160 -28 338 -12 509 45 436 147 803 595 962 1176 67 245 80 347
80 659 0 226 -4 301 -18 390 -110 657 -434 1168 -882 1390 -188 93 -401 138
-570 119z m483 -971 c-2 -9 -8 -18 -15 -20 -7 -3 -9 3 -6 16 6 25 26 28 21 4z
m40 -118 c-3 -3 -9 2 -12 12 -6 14 -5 15 5 6 7 -7 10 -15 7 -18z"/>
</g>
</svg>
