<?xml version="1.0" standalone="no"?>
<!DOCTYPE svg PUBLIC "-//W3C//DTD SVG 20010904//EN"
 "http://www.w3.org/TR/2001/REC-SVG-20010904/DTD/svg10.dtd">
<svg version="1.0" xmlns="http://www.w3.org/2000/svg"
 width="281.000000pt" height="381.000000pt" viewBox="0 0 281.000000 381.000000"
 preserveAspectRatio="xMidYMid meet">

<g transform="translate(0.000000,381.000000) scale(0.100000,-0.100000)"
fill="#000000" stroke="none">
<path d="M1256 3796 c-70 -11 -104 -36 -49 -36 22 0 25 2 13 10 -13 8 -13 10
1 10 9 0 19 -7 23 -15 3 -8 18 -15 33 -15 38 0 269 -66 352 -100 37 -15 91
-44 119 -64 29 -20 58 -36 66 -36 20 0 86 71 86 91 0 33 -75 87 -160 113 -94
30 -113 32 -134 11 -21 -21 -31 -19 -62 13 -15 15 -24 20 -21 11 4 -13 1 -15
-14 -12 -10 3 -19 12 -19 20 0 10 -4 11 -19 3 -11 -5 -22 -6 -25 -2 -7 12
-107 11 -190 -2z m89 -6 c3 -5 12 -7 20 -3 11 4 13 1 9 -11 -7 -19 -16 -20
-32 -4 -9 9 -12 9 -12 0 0 -7 -7 -12 -15 -12 -18 0 -19 12 -3 28 14 14 25 15
33 2z m-61 -12 c-3 -5 -9 -6 -14 -3 -4 3 -11 -1 -13 -7 -4 -8 -6 -7 -6 4 -1
11 6 16 18 15 11 0 17 -5 15 -9z m136 -8 c8 -5 11 -12 8 -16 -4 -3 -14 1 -23
10 -18 17 -9 21 15 6z m40 -10 c0 -11 -4 -20 -9 -20 -6 0 -9 9 -8 20 1 11 5
20 9 20 4 0 8 -9 8 -20z m34 -5 c-4 -8 -10 -15 -15 -15 -5 0 -9 7 -9 15 0 8 7
15 15 15 9 0 12 -6 9 -15z m156 6 c0 -22 -13 -39 -26 -34 -10 4 -11 10 -3 24
10 20 29 26 29 10z m-93 -18 c56 -25 94 -53 88 -64 -10 -15 -25 -10 -19 6 4 8
1 15 -5 15 -6 0 -11 -5 -11 -10 0 -6 -13 -4 -30 5 -17 9 -28 21 -24 26 4 7 -1
9 -15 4 -26 -8 -42 1 -34 20 6 18 4 19 50 -2z m146 -5 c12 -6 27 -18 34 -27 7
-9 13 -12 13 -8 0 15 40 -14 40 -29 0 -9 -5 -12 -11 -8 -8 4 -9 -1 -4 -16 5
-15 4 -20 -4 -16 -6 4 -11 14 -11 22 0 8 -3 13 -7 13 -20 -3 -34 2 -28 11 3 6
-4 11 -17 11 -18 1 -19 2 -5 6 22 6 17 27 -6 31 -10 2 -17 -3 -17 -13 0 -9 -4
-13 -10 -10 -13 8 -13 45 1 45 6 0 20 -5 32 -12z"/>
<path d="M1080 3755 c-71 -26 -70 -33 1 -12 24 8 50 12 57 9 6 -2 12 1 12 8 0
6 5 8 10 5 6 -3 10 -1 10 4 0 15 -16 13 -90 -14z"/>
<path d="M1158 3682 c-36 -4 -35 -16 1 -32 51 -21 46 -42 -16 -77 -13 -7 -29
-13 -37 -13 -8 0 -18 -5 -21 -10 -4 -7 2 -9 19 -4 14 3 26 2 26 -2 0 -5 -34
-19 -76 -31 -102 -29 -172 -73 -251 -157 -94 -99 -139 -173 -158 -261 -14 -60
-21 -74 -39 -79 -20 -5 -22 -11 -22 -68 1 -121 -62 -346 -152 -540 -30 -64
-36 -84 -23 -76 10 6 24 26 30 45 7 19 15 32 18 29 8 -8 -17 -127 -34 -159
-15 -31 -9 -52 8 -27 6 8 9 11 7 5 -3 -5 -10 -25 -17 -43 -8 -18 -19 -31 -25
-29 -7 3 -13 -6 -14 -22 -1 -14 -14 -60 -29 -101 -23 -63 -37 -85 -95 -143
-37 -37 -68 -73 -68 -80 0 -6 8 0 17 15 15 23 64 52 77 45 2 -1 14 9 26 23
l21 25 -6 -40 c-4 -22 -10 -44 -14 -50 -8 -11 -6 -93 2 -102 3 -3 1 -17 -4
-31 -12 -32 -12 -164 0 -247 10 -69 6 -75 -55 -75 -46 0 -130 -23 -157 -42
-11 -8 -16 -20 -12 -29 5 -15 10 -15 48 -1 58 21 84 12 145 -50 83 -84 114
-172 78 -224 -8 -11 -44 -35 -80 -53 -36 -18 -66 -34 -66 -37 0 -2 14 -31 30
-64 l30 -60 49 20 c27 10 51 17 53 15 8 -9 171 65 251 113 193 117 317 199
390 258 115 93 135 86 116 -39 -18 -116 -31 -141 -70 -145 -19 -2 -38 -8 -44
-13 -14 -14 52 -11 125 7 118 28 154 35 205 40 28 3 77 14 110 24 33 10 76 21
97 23 20 3 47 12 59 21 13 9 33 16 44 16 15 0 16 -3 7 -9 -11 -7 -10 -10 3
-15 28 -10 58 -7 52 7 -2 6 2 18 9 25 8 7 14 9 14 3 0 -5 9 -7 20 -4 41 11 14
28 -36 24 -103 -9 -96 -12 -131 59 -18 36 -47 99 -64 140 -17 41 -36 89 -44
105 -26 60 -46 135 -44 162 5 69 1 83 -29 83 -35 0 -65 33 -56 63 10 35 35 57
64 57 23 0 27 4 27 31 0 25 -4 30 -19 26 -10 -3 -18 -2 -18 3 0 4 11 10 25 12
19 4 25 1 25 -13 0 -28 12 -29 60 -8 25 11 53 18 64 15 13 -3 16 -2 9 5 -7 7
-1 21 19 42 16 18 38 48 48 68 10 20 35 50 54 67 53 46 46 68 -12 38 -35 -18
-201 -40 -245 -33 -20 3 -39 1 -46 -6 -8 -8 -11 -7 -11 6 0 13 -9 17 -34 17
-26 0 -45 9 -72 34 -38 34 -38 35 -13 40 13 2 44 7 69 10 24 2 46 10 48 15 2
6 25 11 50 12 l47 1 -39 10 c-28 8 -44 8 -58 -1 -29 -18 -63 -13 -89 15 -22
24 -24 34 -27 153 -2 138 -21 264 -37 259 -6 -2 -9 -31 -6 -71 4 -91 -16 -219
-47 -289 l-26 -57 -39 20 c-56 29 -57 16 -1 -23 98 -68 194 -141 190 -146 -11
-10 -116 -14 -116 -4 0 17 -63 82 -79 82 -8 0 -22 7 -32 16 -16 14 -18 14 -24
-5 -3 -12 -4 -31 -1 -43 3 -13 -2 -6 -12 15 -10 20 -22 34 -25 30 -4 -3 -7 2
-7 12 0 10 -16 48 -35 85 -29 58 -32 69 -18 74 13 5 13 9 2 22 -7 9 -14 23
-15 32 -2 8 -7 18 -12 21 -11 7 -9 56 5 111 9 35 10 35 73 41 57 6 158 27 169
35 10 8 -34 57 -60 66 -33 12 -44 54 -10 43 16 -5 18 -1 15 25 -4 37 22 42 36
6 20 -53 113 -80 155 -46 19 16 19 54 0 74 -8 8 -15 24 -15 34 0 11 -4 22 -10
24 -5 2 -13 46 -16 98 -4 52 -4 92 0 89 4 -4 9 -17 10 -30 2 -13 6 -35 9 -49
3 -14 9 -51 12 -83 4 -32 9 -56 12 -53 3 3 18 -14 33 -38 29 -45 50 -59 74
-50 9 3 19 -4 26 -18 10 -19 10 -21 -1 -10 -22 20 -34 14 -14 -8 10 -11 25
-19 34 -18 10 2 17 -5 19 -18 3 -18 9 -21 40 -18 20 2 73 6 117 8 99 7 155 18
184 38 l21 15 -21 19 c-12 10 -23 17 -25 14 -2 -3 -12 2 -22 11 -10 8 -23 14
-28 12 -6 -2 -24 3 -39 11 -20 11 -31 12 -36 5 -4 -7 -8 -8 -10 -1 -3 7 -23 7
-59 1 -34 -5 -58 -5 -64 1 -7 7 -4 10 6 10 30 0 29 19 0 34 -45 23 -91 103
-109 191 -13 64 -13 81 -2 101 l12 24 23 -40 c13 -22 43 -67 68 -99 25 -33 46
-62 46 -64 0 -3 -14 -10 -31 -16 -25 -9 -29 -14 -20 -25 15 -18 55 -25 76 -14
12 7 32 0 74 -25 31 -18 70 -37 87 -41 16 -4 70 -27 119 -51 50 -24 99 -45
110 -47 30 -5 44 -59 44 -173 1 -187 -38 -363 -113 -514 -41 -81 -77 -126
-119 -147 -20 -11 -26 -18 -18 -23 8 -5 -13 -29 -61 -71 -108 -94 -119 -106
-58 -65 30 21 79 60 108 89 31 30 72 58 100 68 37 14 40 17 13 12 -36 -7 -36
-6 2 49 10 15 24 26 30 24 6 -2 21 -44 33 -93 12 -50 36 -123 53 -162 17 -38
31 -81 31 -94 0 -57 -63 -209 -99 -242 -18 -16 -26 -17 -63 -8 -23 6 -44 9
-46 7 -2 -2 14 -9 37 -15 23 -6 41 -17 41 -24 0 -7 -13 -30 -29 -50 -17 -21
-35 -53 -41 -72 -10 -30 -29 -47 -30 -26 -1 4 -28 36 -61 72 -33 36 -56 56
-50 44 23 -47 190 -210 242 -237 30 -15 70 -36 89 -47 137 -76 221 -107 326
-120 77 -10 165 -47 144 -60 -12 -7 -9 -10 13 -10 84 0 -56 71 -205 104 -16 4
-28 10 -28 15 0 4 24 42 54 83 29 41 61 88 72 104 l18 29 -23 -20 c-31 -27
-107 -126 -123 -160 -14 -32 -37 -30 -121 9 -28 13 -68 27 -87 31 -57 12 -67
21 -74 70 -6 36 -3 51 12 73 18 25 18 28 2 45 -9 9 -24 17 -33 17 -20 0 -85
-35 -115 -63 l-22 -21 2 27 c1 15 9 29 16 32 8 3 12 12 9 20 -4 9 -1 12 9 8 7
-3 14 0 14 5 0 6 11 22 25 36 14 14 22 31 19 39 -7 19 30 28 52 12 9 -6 14
-16 11 -22 -8 -12 205 -26 213 -14 3 5 41 11 85 14 81 5 170 26 148 34 -7 3
-36 0 -63 -6 -73 -16 -235 -13 -300 4 -30 8 -67 15 -82 15 -38 0 -37 29 3 87
16 25 31 58 32 74 1 16 5 29 8 29 7 0 23 50 21 63 -4 15 17 6 35 -15 63 -75
185 -135 363 -179 58 -13 90 -26 90 -35 0 -7 8 -17 17 -23 16 -9 16 -11 -2
-32 -22 -25 -8 -19 41 17 17 13 43 26 58 30 14 3 26 7 26 8 0 1 -22 26 -50 55
-27 29 -50 60 -50 67 0 8 -11 19 -25 24 -14 5 -25 16 -26 25 -3 46 -2 61 3 70
3 6 9 25 13 44 5 24 10 30 16 20 7 -12 9 -11 10 1 3 57 30 223 34 218 2 -2 8
-61 15 -133 6 -71 18 -152 27 -178 9 -26 13 -50 10 -54 -4 -3 3 -17 13 -31 11
-13 20 -30 20 -37 0 -6 8 -20 19 -29 17 -15 19 -15 25 -1 11 29 6 79 -10 100
-11 15 -15 42 -14 105 3 163 0 231 -10 225 -5 -3 -10 0 -10 7 0 10 -3 9 -9 -1
-8 -12 -11 -8 -17 15 -4 16 -11 34 -16 41 -5 6 -8 31 -6 55 l3 43 17 -30 c15
-25 17 -27 19 -10 4 45 -1 66 -28 106 -23 35 -29 39 -32 23 -2 -11 -10 3 -18
36 -29 114 -33 127 -47 155 -8 15 -21 32 -28 36 -7 5 -13 14 -13 21 0 13 -22
74 -56 160 -22 53 -23 62 -9 53 19 -12 10 19 -21 66 -16 26 -29 54 -27 61 1 7
-9 24 -22 38 -14 14 -37 41 -52 60 -23 28 -28 30 -29 14 0 -16 -1 -16 -10 4
-5 13 -13 21 -18 18 -5 -3 -11 2 -14 12 -2 9 -14 42 -26 72 -12 30 -15 47 -8
38 26 -33 26 -18 2 31 -14 26 -32 55 -41 62 -16 13 -16 12 -4 -11 7 -14 15
-41 16 -60 3 -33 3 -33 -7 -10 -6 14 -12 32 -13 40 0 8 -8 26 -17 40 -9 14
-23 37 -32 52 -16 25 -21 27 -61 22 -34 -5 -55 -1 -89 15 -45 22 -70 45 -272
251 -163 166 -267 238 -396 273 -57 16 -136 24 -181 19z m622 -637 c60 -70 67
-80 50 -70 -8 5 -2 -6 14 -25 16 -19 31 -34 33 -32 4 3 83 -87 83 -95 0 -3 -8
1 -17 10 -10 8 -22 16 -28 16 -40 1 -156 138 -170 199 -3 18 -10 30 -15 27
-12 -7 -42 44 -34 57 5 7 15 0 28 -18 12 -16 37 -47 56 -69z m-451 11 c-9 -8
-10 -7 -5 7 3 10 7 26 7 35 1 9 4 6 6 -7 3 -13 -1 -28 -8 -35z m-203 -10 c-3
-30 -9 -62 -13 -72 -4 -11 -2 -15 4 -11 6 4 8 -3 5 -18 -3 -17 0 -25 10 -25
10 0 13 -10 10 -35 -5 -38 -16 -46 -26 -17 -3 9 -9 24 -12 32 -5 13 -4 13 5 0
12 -17 14 -6 4 30 -6 23 -8 21 -19 -20 -13 -45 -13 -45 -9 30 7 135 12 160 32
160 13 0 15 -9 9 -54z m-296 -259 c1 -26 5 -45 10 -42 4 3 8 -22 8 -54 0 -32
3 -70 6 -82 6 -19 5 -21 -3 -8 -15 24 -38 163 -40 247 -1 41 -7 85 -12 100 -6
15 -7 43 -2 67 4 22 8 45 9 50 1 6 3 15 5 20 3 11 18 -222 19 -298z m337 229
c-2 -41 1 -72 5 -69 5 2 6 -8 2 -24 -9 -36 -14 -42 -14 -15 0 12 -4 22 -9 22
-18 0 -21 91 -5 126 9 19 18 34 20 34 2 0 3 -33 1 -74z m91 38 c-3 -14 -5 -12
-10 9 -3 19 -2 25 4 19 6 -6 8 -18 6 -28z m357 -4 c3 -5 1 -10 -4 -10 -6 0
-11 5 -11 10 0 6 2 10 4 10 3 0 8 -4 11 -10z m-358 -52 c-3 -8 -6 -5 -6 6 -1
11 2 17 5 13 3 -3 4 -12 1 -19z m160 -10 c-3 -8 -6 -5 -6 6 -1 11 2 17 5 13 3
-3 4 -12 1 -19z m-68 -93 c0 -5 -4 -3 -9 5 -5 8 -9 22 -9 30 0 16 17 -16 18
-35z m-379 -119 c0 -8 7 -16 15 -20 18 -7 20 5 3 23 -11 11 -10 13 2 9 9 -3
16 -19 17 -41 2 -28 -1 -35 -12 -30 -8 3 -15 10 -16 17 0 6 -3 3 -7 -6 -13
-33 -36 -1 -33 45 1 20 31 24 31 3z m570 -33 c0 -5 -40 -43 -44 -43 -2 0 -11
11 -20 25 l-17 26 41 -3 c22 -2 40 -4 40 -5z m202 -28 c0 -5 -5 -11 -11 -13
-6 -2 -11 4 -11 13 0 9 5 15 11 13 6 -2 11 -8 11 -13z m-152 -4 c0 -5 3 -16 6
-25 4 -11 0 -16 -14 -16 -27 0 -37 17 -22 35 14 17 30 20 30 6z m-587 -63 c4
-12 4 -24 1 -27 -8 -9 -37 27 -30 38 11 17 23 13 29 -11z m155 -6 c2 -7 -5
-12 -17 -12 -14 0 -19 5 -14 15 6 17 25 15 31 -3z m982 -50 c0 -13 -5 -33 -11
-45 -9 -18 -9 -20 2 -9 15 14 49 16 49 3 0 -5 -13 -36 -30 -69 -26 -53 -44
-72 -69 -72 -15 0 1 204 18 227 15 20 17 21 29 6 6 -9 12 -28 12 -41z m360
-130 c0 -13 -12 -22 -22 -16 -10 6 -1 24 13 24 5 0 9 -4 9 -8z m17 -104 c-3
-8 -6 -5 -6 6 -1 11 2 17 5 13 3 -3 4 -12 1 -19z m45 -52 c4 3 5 -2 2 -10 -3
-9 -10 -14 -15 -11 -4 3 3 -26 16 -65 28 -82 15 -95 -31 -29 -20 30 -28 54
-29 88 -1 48 -1 48 24 35 13 -7 28 -11 33 -8z m-1565 -142 c-5 -5 -67 119 -67
132 1 5 17 -22 36 -60 19 -37 33 -70 31 -72z m1587 111 c3 -8 1 -15 -4 -15 -6
0 -10 7 -10 15 0 8 2 15 4 15 2 0 6 -7 10 -15z m-108 -146 c11 -19 -29 7 -51
32 l-20 23 32 -23 c18 -12 35 -27 39 -32z m-1377 -87 c32 -35 36 -42 23 -42
-11 0 -112 136 -112 151 0 7 13 -7 29 -32 17 -24 44 -59 60 -77z m22 17 c5
-10 5 -20 1 -23 -5 -3 -17 11 -26 31 -15 32 -16 35 -1 23 9 -7 20 -21 26 -31z
m462 0 c-6 -6 -17 -8 -24 -3 -9 5 -8 9 7 14 23 9 31 3 17 -11z m-43 -9 c0 -10
-14 -14 -37 -11 -8 1 -13 -9 -13 -22 0 -14 -7 -30 -15 -37 -10 -9 -15 -9 -15
-1 0 6 5 11 11 11 5 0 7 5 4 10 -3 6 -13 10 -21 10 -8 0 -13 -4 -10 -8 2 -4 1
-14 -5 -22 -7 -12 -9 -9 -9 10 0 22 -4 25 -37 25 -20 0 -38 6 -40 13 -3 8 9
12 39 13 24 0 52 4 63 9 28 12 85 12 85 0z m934 -6 c5 -14 4 -15 -9 -4 -17 14
-19 20 -6 20 5 0 12 -7 15 -16z m183 -21 c-3 -10 -5 -4 -5 12 0 17 2 24 5 18
2 -7 2 -21 0 -30z m-1317 7 c0 -5 -2 -10 -4 -10 -3 0 -8 5 -11 10 -3 6 -1 10
4 10 6 0 11 -4 11 -10z m1180 -66 c0 -7 3 -21 6 -31 3 -10 -4 -2 -15 17 -24
42 -28 76 -6 46 8 -11 15 -25 15 -32z m-1105 26 c3 -5 1 -10 -4 -10 -6 0 -11
5 -11 10 0 6 2 10 4 10 3 0 8 -4 11 -10z m-323 -85 c10 -18 9 -18 -13 2 -13
12 -32 37 -42 55 l-18 33 31 -35 c17 -19 36 -44 42 -55z m1358 45 c0 -5 -4
-10 -10 -10 -5 0 -10 5 -10 10 0 6 5 10 10 10 6 0 10 -4 10 -10z m-905 -10 c7
-11 -42 -26 -53 -16 -7 8 17 26 35 26 6 0 15 -4 18 -10z m-125 -440 c-7 -22
-19 -41 -27 -45 -9 -3 -13 -12 -9 -22 4 -10 4 -14 0 -10 -4 4 -13 2 -21 -4
-14 -12 -14 -14 -18 71 -1 28 4 51 13 63 8 9 12 17 7 17 -4 0 -2 6 4 14 6 8
13 27 14 44 1 16 5 28 9 26 4 -2 10 1 15 8 15 24 27 -120 13 -162z m-83 78
c-3 -8 -6 -5 -6 6 -1 11 2 17 5 13 3 -3 4 -12 1 -19z m123 -122 c0 -10 -34 2
-38 13 -3 10 0 10 17 2 11 -7 21 -13 21 -15z m-850 -32 c0 -14 -12 -19 -23 -8
-9 9 4 35 14 28 5 -3 9 -12 9 -20z m887 -33 c22 -33 29 -90 15 -128 -6 -18
-22 -16 -22 1 0 8 -18 25 -40 37 -37 21 -56 59 -29 59 7 0 9 10 5 25 -14 57
35 60 71 6z m-926 -29 c-10 -3 -11 -6 -1 -12 9 -5 10 -20 6 -44 -8 -41 -20
-46 -37 -15 -8 16 -8 23 1 29 6 4 11 11 11 16 -1 5 2 25 6 44 6 34 6 34 17 11
8 -19 8 -25 -3 -29z m-81 -57 c17 -20 11 -25 -18 -14 -13 5 -20 13 -17 19 9
14 21 12 35 -5z m-60 -44 c-1 -13 -4 -12 -15 3 -8 11 -15 27 -15 35 1 13 4 12
15 -3 8 -11 15 -27 15 -35z m-10 -41 c6 -11 8 -20 6 -20 -3 0 -10 9 -16 20 -6
11 -8 20 -6 20 3 0 10 -9 16 -20z"/>
<path d="M778 3605 c-44 -33 -66 -55 -53 -55 4 0 31 20 62 45 64 53 59 60 -9
10z"/>
<path d="M666 3495 c-9 -26 -7 -32 5 -12 6 10 9 21 6 23 -2 3 -7 -2 -11 -11z"/>
<path d="M2160 3121 c5 -11 15 -23 20 -26 14 -9 12 19 -2 33 -19 19 -30 14
-18 -7z"/>
<path d="M541 3065 c0 -5 6 -21 14 -35 8 -14 14 -20 14 -15 0 6 -6 21 -14 35
-8 14 -14 21 -14 15z"/>
<path d="M1506 3005 c4 -8 11 -15 16 -15 6 0 5 6 -2 15 -7 8 -14 15 -16 15 -2
0 -1 -7 2 -15z"/>
<path d="M2445 2692 c6 -5 37 -33 70 -63 36 -32 48 -40 30 -19 -53 61 -70 76
-90 84 -12 4 -16 4 -10 -2z"/>
<path d="M1040 2316 c0 -2 8 -10 18 -17 15 -13 16 -12 3 4 -13 16 -21 21 -21
13z"/>
<path d="M2731 2064 c0 -11 3 -14 6 -6 3 7 2 16 -1 19 -3 4 -6 -2 -5 -13z"/>
<path d="M2740 1997 c0 -20 4 -38 9 -42 6 -3 7 10 4 32 -8 50 -13 55 -13 10z"/>
<path d="M2791 1938 c0 -31 2 -59 7 -61 4 -3 6 16 4 41 -5 73 -10 82 -11 20z"/>
<path d="M2761 1894 c0 -11 3 -14 6 -6 3 7 2 16 -1 19 -3 4 -6 -2 -5 -13z"/>
<path d="M1498 1873 c-16 -2 -28 -9 -28 -14 0 -11 39 -2 55 12 5 5 7 8 5 8 -3
-1 -17 -4 -32 -6z"/>
<path d="M2780 1841 c0 -5 5 -13 10 -16 6 -3 10 -2 10 4 0 5 -4 13 -10 16 -5
3 -10 2 -10 -4z"/>
<path d="M270 1734 c0 -8 5 -12 10 -9 6 4 8 11 5 16 -9 14 -15 11 -15 -7z"/>
<path d="M1457 1724 c-9 -10 4 -34 19 -34 8 0 14 3 14 6 0 10 -27 33 -33 28z"/>
<path d="M1581 1668 c-31 -14 -40 -23 -33 -30 8 -8 21 -3 47 16 19 15 35 29
35 32 0 5 4 6 -49 -18z"/>
<path d="M1661 1394 c24 -48 39 -64 39 -41 0 9 -5 17 -10 17 -6 0 -8 11 -6 25
3 14 1 25 -4 25 -5 0 -15 3 -24 6 -12 5 -11 -1 5 -32z"/>
<path d="M2710 1340 c-12 -7 -10 -9 8 -7 12 0 22 5 22 9 0 11 -12 10 -30 -2z"/>
<path d="M2070 1210 c0 -5 9 -14 21 -20 19 -11 20 -10 9 9 -11 22 -30 29 -30
11z"/>
<path d="M2514 1046 c-11 -44 0 -64 13 -23 6 20 7 39 2 42 -4 3 -11 -5 -15
-19z"/>
<path d="M1645 1015 c-81 -26 -213 -38 -416 -38 -168 0 -206 -2 -206 -13 0
-17 9 -18 24 -3 7 7 22 9 40 4 15 -5 30 -8 33 -8 3 0 98 4 213 8 l207 7 0 -55
c0 -47 -3 -57 -20 -62 -11 -3 -20 -11 -20 -17 0 -6 7 -7 18 -3 40 17 62 18 62
1 0 -20 19 -21 26 -1 4 10 15 12 34 9 15 -4 31 -1 34 5 8 13 -37 26 -60 17
-14 -5 -15 -4 -4 9 10 12 10 15 -4 15 -9 0 -16 -7 -16 -15 0 -16 -9 -19 -25
-7 -14 10 -19 52 -6 52 5 0 13 9 16 20 9 28 25 25 25 -5 0 -35 19 -31 27 5 l6
30 112 0 c97 0 116 3 138 20 14 11 37 20 50 20 14 0 29 5 32 10 4 6 -7 10 -27
9 -57 -1 -192 -16 -210 -24 -13 -5 -18 -2 -18 9 0 19 -11 19 -65 1z"/>
<path d="M902 979 c-23 -4 -47 -11 -52 -14 -22 -13 -8 -45 32 -74 54 -40 72
-40 30 -1 -18 16 -31 34 -28 39 7 11 46 2 46 -10 0 -5 4 -9 10 -9 5 0 7 13 4
30 -7 35 3 40 15 8 7 -20 8 -20 19 10 10 30 9 32 -11 31 -12 -1 -41 -5 -65
-10z"/>
<path d="M1033 833 c-7 -2 -13 -9 -13 -15 0 -13 150 -1 165 13 9 9 -129 12
-152 2z"/>
<path d="M1225 830 c-8 -13 5 -13 25 0 13 8 13 10 -2 10 -9 0 -20 -4 -23 -10z"/>
<path d="M1796 833 c-4 -4 -26 -7 -48 -8 -36 0 -42 -3 -49 -27 -7 -26 -6 -26
30 -21 48 8 92 35 82 51 -4 7 -11 9 -15 5z"/>
<path d="M315 809 c-16 -10 -26 -19 -22 -19 11 0 67 29 67 35 0 9 -15 4 -45
-16z"/>
<path d="M1503 713 c9 -2 23 -2 30 0 6 3 -1 5 -18 5 -16 0 -22 -2 -12 -5z"/>
<path d="M1373 693 c9 -2 23 -2 30 0 6 3 -1 5 -18 5 -16 0 -22 -2 -12 -5z"/>
<path d="M1115 681 c-13 -13 -67 -17 -83 -7 -18 11 -62 -20 -62 -43 0 -10 6
-24 14 -30 12 -10 15 -6 21 18 7 33 25 52 25 27 0 -20 -5 -20 66 4 32 11 77
20 99 20 30 0 36 3 25 10 -19 12 -93 13 -105 1z"/>
<path d="M1266 682 c-2 -4 11 -6 30 -4 19 2 34 6 34 8 0 8 -59 4 -64 -4z"/>
<path d="M1735 657 c-43 -10 -76 -21 -170 -60 -47 -20 -86 -27 -183 -32 -106
-7 -124 -10 -133 -27 -15 -27 -5 -36 86 -78 102 -47 130 -56 120 -41 -11 18
82 99 150 130 33 16 84 36 113 46 52 17 67 31 60 57 -2 10 -13 11 -43 5z"/>
<path d="M1905 470 l-40 -7 50 -2 c65 -2 81 -11 65 -40 -6 -12 -10 -30 -8 -39
2 -12 10 -7 26 21 24 38 51 47 71 23 6 -7 22 -44 35 -81 l23 -67 77 72 c42 40
76 79 76 86 0 11 -4 12 -18 3 -15 -9 -48 -7 -148 10 -71 12 -138 23 -149 25
-11 1 -38 0 -60 -4z"/>
<path d="M912 439 c24 -16 70 -38 103 -48 33 -11 90 -31 128 -45 76 -29 100
-32 116 -12 9 10 -7 21 -81 54 -117 51 -178 69 -251 76 l-58 5 43 -30z"/>
<path d="M1748 454 c-3 -3 -31 -12 -61 -20 -30 -8 -80 -26 -110 -40 -50 -22
-55 -27 -45 -43 16 -26 3 -50 -32 -63 -29 -9 -30 -13 -24 -47 4 -20 7 -43 7
-51 0 -8 6 -24 13 -35 8 -11 14 -31 14 -46 0 -55 12 -89 31 -89 13 0 19 8 20
23 1 18 2 19 6 3 4 -15 12 -17 46 -13 23 3 47 13 53 22 7 10 13 12 16 5 2 -8
11 -8 29 -1 30 11 39 45 39 156 0 39 7 105 15 148 8 43 15 83 15 88 0 10 -23
12 -32 3z m-53 -343 c-7 -33 -24 -43 -20 -13 2 23 16 54 22 48 3 -2 2 -18 -2
-35z"/>
<path d="M608 399 c-2 -22 0 -43 5 -46 12 -7 15 -2 25 45 9 37 8 42 -8 42 -14
0 -19 -10 -22 -41z"/>
<path d="M1247 271 c-62 -29 -76 -39 -65 -48 10 -9 29 -6 78 11 97 34 136 56
119 67 -24 15 -51 9 -132 -30z"/>
</g>
</svg>
