<?xml version="1.0" standalone="no"?>
<!DOCTYPE svg PUBLIC "-//W3C//DTD SVG 20010904//EN"
 "http://www.w3.org/TR/2001/REC-SVG-20010904/DTD/svg10.dtd">
<svg version="1.0" xmlns="http://www.w3.org/2000/svg"
 width="281.000000pt" height="381.000000pt" viewBox="0 0 281.000000 381.000000"
 preserveAspectRatio="xMidYMid meet">

<g transform="translate(0.000000,381.000000) scale(0.100000,-0.100000)"
fill="#000000" stroke="none">
<path d="M1265 3799 c-174 -25 -377 -111 -525 -223 -474 -357 -752 -1027 -727
-1751 22 -598 229 -1113 588 -1460 174 -167 349 -271 546 -321 561 -144 1128
188 1440 843 148 311 217 639 216 1028 0 254 -20 412 -78 634 -160 605 -544
1069 -1003 1211 -140 44 -319 59 -457 39z m125 -318 c15 -28 13 -32 -17 -30
-16 1 -47 -1 -70 -5 -27 -5 -43 -4 -43 2 0 6 -3 17 -6 26 -4 12 4 16 43 19 26
2 56 4 65 5 10 1 22 -7 28 -17z m276 -2 c55 -34 82 -74 89 -131 5 -45 2 -62
-21 -113 -15 -33 -30 -73 -34 -90 -4 -16 -12 -29 -18 -27 -7 1 -12 -2 -12 -8
0 -5 6 -10 13 -10 14 0 36 39 68 127 l24 62 12 -42 c16 -52 17 -243 2 -252 -6
-4 -8 -22 -4 -45 4 -23 2 -41 -4 -45 -6 -3 -11 -1 -11 4 0 6 -5 11 -11 11 -6
0 -9 -17 -7 -42 4 -52 18 -56 31 -8 9 35 9 35 19 10 6 -14 14 -33 19 -43 5
-10 7 -22 4 -26 -2 -5 -1 -22 4 -37 5 -16 13 -114 16 -219 15 -405 20 -514 28
-521 4 -4 7 0 7 9 0 10 5 17 10 17 6 0 13 1 17 3 3 1 12 -16 19 -38 13 -40 13
-40 11 33 -2 44 1 72 8 72 5 0 30 -9 54 -20 24 -11 48 -20 53 -20 5 0 47 -16
93 -36 103 -44 138 -78 139 -136 l1 -42 -80 -28 c-86 -29 -105 -46 -105 -90 0
-21 -14 -43 -50 -80 -27 -28 -50 -55 -50 -60 0 -4 -4 -8 -9 -8 -5 0 -11 44
-13 98 -4 73 -10 108 -27 142 l-22 45 5 -35 c20 -137 17 -334 -5 -299 -7 11
-9 10 -10 -6 -1 -11 -1 -26 0 -32 1 -7 -3 -13 -8 -13 -5 0 -11 -12 -13 -27 -3
-18 -7 -7 -12 32 -4 33 -10 74 -14 90 l-6 30 -7 -30 -7 -30 -1 28 c-2 40 -19
33 -24 -10 l-4 -38 -1 41 c-1 27 -7 44 -17 48 -8 3 -15 13 -15 21 0 9 -4 14
-9 11 -5 -3 -12 4 -15 17 l-6 22 -19 -23 c-13 -15 -22 -19 -27 -11 -4 8 -9 7
-15 -2 -6 -10 -9 -7 -9 11 0 20 -6 26 -23 28 -62 5 -94 30 -150 119 -71 114
-100 172 -93 189 6 15 98 64 121 64 9 0 18 -12 22 -30 3 -17 8 -29 11 -26 2 3
11 -1 19 -9 10 -10 12 -26 8 -52 -9 -54 9 -22 26 47 9 35 15 47 17 33 2 -12
10 -27 17 -33 11 -9 12 -17 4 -32 -6 -11 -9 -22 -6 -24 3 -3 1 -21 -3 -40 -6
-26 -5 -34 6 -34 8 0 14 10 14 23 0 17 2 19 10 7 6 -10 12 -11 19 -5 6 6 4 39
-4 90 -20 117 -43 460 -35 530 l7 60 3 -75 3 -75 8 85 c12 144 10 232 -6 264
-8 15 -15 42 -15 60 0 17 -5 38 -10 46 -7 10 -10 -24 -11 -105 0 -76 -4 -113
-9 -100 -5 11 -6 36 -4 55 4 28 -4 16 -40 -54 -25 -50 -46 -83 -46 -76 0 23
-17 -2 -34 -50 -14 -39 -16 -41 -15 -15 1 17 1 39 0 50 -1 19 -2 19 -16 -2
-31 -45 -118 -52 -188 -16 l-29 15 23 24 c12 13 32 24 43 24 12 0 27 4 35 9
24 15 1 31 -45 31 -24 0 -44 4 -44 9 0 9 34 16 115 24 l30 3 -40 18 c-22 10
-66 18 -97 19 -32 1 -58 4 -58 8 0 3 15 20 34 38 27 26 38 31 60 25 14 -3 26
-3 26 1 0 16 -31 35 -58 35 -45 0 -56 22 -58 113 -1 72 -3 82 -25 100 -19 16
-34 18 -76 14 -30 -3 -53 -1 -53 4 0 5 4 9 9 9 15 0 42 79 35 105 -8 31 29 69
79 83 38 11 98 2 122 -18 12 -10 75 -113 75 -124 0 -2 -17 -6 -39 -10 -21 -3
-44 -12 -50 -20 -20 -24 6 -29 55 -10 37 14 50 15 65 6 28 -18 25 6 -7 49 -24
31 -64 111 -64 128 0 12 44 11 53 -2 6 -8 7 -8 4 3 -9 32 11 49 56 47 23 -2
47 -5 52 -8 24 -13 85 10 85 31 0 25 -16 33 -64 36 -23 1 -44 2 -48 3 -10 1
-24 30 -31 62 l-7 26 87 1 c71 1 93 -2 119 -19z m-522 -32 l20 -27 -52 -52
c-28 -29 -54 -49 -58 -45 -11 11 14 139 28 149 20 13 39 5 62 -25z m-170 -34
c-4 -32 -12 -78 -18 -103 -11 -44 -12 -45 -54 -48 -32 -2 -69 7 -138 35 l-94
37 0 37 c0 20 6 41 13 47 7 6 71 18 142 27 72 9 132 19 134 21 16 16 22 -4 15
-53z m-208 -193 c93 -46 123 -77 130 -132 12 -87 2 -108 -82 -174 -42 -32 -79
-60 -83 -62 -26 -9 -88 368 -64 391 13 13 40 7 99 -23z m281 -12 c-3 -13 -9
-51 -13 -85 -3 -35 -10 -60 -15 -57 -5 3 -9 0 -9 -7 0 -7 -2 -10 -5 -7 -5 5
11 138 20 166 8 22 27 13 22 -10z m142 -193 c8 -16 15 -46 14 -65 -1 -50 -28
-169 -41 -182 -22 -22 -65 4 -92 54 -28 54 -23 66 44 100 60 30 78 48 65 65
-6 7 -19 13 -28 13 -16 1 -61 33 -61 45 0 3 19 5 42 3 36 -3 45 -8 57 -33z
m-338 -257 c-6 -20 -18 -44 -27 -53 -17 -17 -49 -21 -39 -5 3 6 -1 10 -9 10
-17 0 -32 38 -19 50 4 5 28 25 53 44 43 34 45 35 48 14 2 -12 -1 -39 -7 -60z
m647 -525 l13 -41 -46 -44 c-61 -55 -81 -68 -71 -42 5 10 11 40 15 65 6 48 46
112 65 106 6 -2 17 -22 24 -44z m-504 -63 c-10 -16 -19 -28 -21 -26 -6 6 20
56 29 56 5 0 1 -13 -8 -30z m-97 -47 c-8 -25 -13 -32 -15 -20 -5 26 7 69 17
62 5 -3 4 -22 -2 -42z m393 -33 c0 -10 -15 -34 -32 -53 -18 -20 -39 -44 -46
-54 -7 -10 -10 -12 -7 -5 3 6 4 12 1 12 -9 0 -56 -74 -56 -87 0 -18 26 -5 39
20 l11 22 -6 -23 c-5 -21 -3 -22 23 -16 15 4 50 15 77 25 27 10 53 16 58 13 5
-4 18 -27 29 -51 11 -25 33 -63 50 -84 17 -22 27 -39 22 -39 -4 0 -68 13 -140
29 -87 18 -133 24 -133 17 0 -8 -2 -8 -8 0 -4 6 -17 16 -29 23 -20 10 -24 8
-36 -22 -8 -18 -25 -67 -37 -108 -12 -41 -24 -78 -26 -84 -7 -20 0 101 7 128
4 15 4 27 -1 27 -9 0 -40 -130 -41 -170 0 -14 0 -46 0 -72 0 -34 -4 -48 -13
-48 -16 0 -26 -22 -26 -55 0 -13 -5 -25 -11 -27 -6 -2 -11 -23 -11 -46 0 -23
-3 -44 -7 -46 -11 -7 -11 51 1 117 14 76 3 84 -17 13 -9 -31 -19 -56 -22 -56
-3 0 -3 24 1 53 3 28 6 62 6 75 0 13 3 21 8 19 4 -3 8 26 10 65 1 43 8 75 16
84 8 7 17 37 21 66 4 29 13 69 21 90 10 28 10 38 1 41 -9 3 -7 10 4 23 9 10
21 33 27 51 9 28 8 32 -10 36 -20 6 -20 6 2 44 37 62 60 82 84 76 11 -3 29 -6
39 -6 14 -1 17 -7 12 -25 -4 -15 -2 -21 5 -17 5 3 10 1 10 -4 0 -19 21 -12 50
17 49 47 54 50 68 40 6 -6 12 -18 12 -28z m-321 -50 c-12 -22 -24 -38 -26 -36
-4 4 37 76 44 76 2 0 -6 -18 -18 -40z m198 -327 c-3 -10 -5 -4 -5 12 0 17 2
24 5 18 2 -7 2 -21 0 -30z m1182 -608 c33 -16 53 -52 24 -40 -39 14 -73 17
-103 7 -33 -12 -33 -6 -2 31 18 21 44 22 81 2z m35 -126 c65 -51 49 -106 -37
-135 -28 -9 -67 -17 -85 -16 -19 1 -50 -5 -69 -13 -53 -22 -60 -20 -94 40 -17
30 -35 55 -41 55 -5 0 -6 5 -3 10 9 15 -46 11 -75 -5 -14 -8 -35 -14 -48 -15
-12 0 -25 -6 -28 -14 -3 -9 -16 -13 -32 -11 -15 1 -33 3 -40 4 -7 0 -11 5 -8
10 3 5 -4 11 -15 14 -37 10 -11 30 30 22 35 -7 35 -6 18 12 -19 22 -22 33 -7
33 6 0 16 -11 22 -25 14 -31 27 -31 124 1 57 19 111 28 191 33 62 4 115 10
119 14 14 14 52 7 78 -14z m-914 -35 c38 -9 106 -15 165 -15 98 1 150 -10 113
-24 -15 -6 -116 -2 -188 7 -29 4 -55 -16 -44 -33 4 -8 3 -9 -4 -5 -14 8 -27
-36 -19 -65 4 -16 3 -18 -9 -8 -10 8 -14 8 -14 0 0 -6 4 -11 9 -11 5 0 30 -20
55 -45 27 -26 57 -45 69 -45 29 0 63 -24 70 -50 7 -28 -22 -42 -98 -43 -86 -3
-119 21 -121 84 -4 101 -3 97 -23 92 -26 -7 -75 21 -123 70 -44 45 -62 82 -53
105 4 12 19 14 77 8 40 -4 102 -14 138 -22z m443 -100 c26 -4 37 -11 37 -24 0
-26 -19 -29 -75 -10 -31 10 -51 23 -53 34 -3 15 1 17 25 12 15 -3 45 -8 66
-12z m-156 -60 c-9 -9 -28 6 -21 18 4 6 10 6 17 -1 6 -6 8 -13 4 -17z m183
-114 c0 -9 -60 -30 -90 -30 -8 -1 -33 -9 -55 -20 -22 -11 -47 -20 -55 -20 -8
0 -28 -7 -44 -15 -44 -23 -43 -10 2 15 104 59 242 99 242 70z"/>
<path d="M1597 3301 l-28 -18 23 -28 23 -27 28 27 c31 31 34 50 11 59 -23 9
-26 8 -57 -13z"/>
<path d="M1660 3260 c0 -5 5 -10 11 -10 5 0 7 5 4 10 -3 6 -8 10 -11 10 -2 0
-4 -4 -4 -10z"/>
<path d="M1369 3082 c-33 -4 -58 -45 -40 -66 20 -24 67 -29 102 -12 18 9 42
16 54 16 30 0 35 8 22 37 -10 22 -16 24 -47 20 -20 -2 -43 -2 -51 2 -8 4 -26
5 -40 3z"/>
<path d="M1712 2720 c0 -19 2 -27 5 -17 2 9 2 25 0 35 -3 9 -5 1 -5 -18z"/>
<path d="M1731 1950 c0 -19 4 -42 9 -50 7 -11 10 -8 9 15 0 17 -4 39 -9 50 -7
16 -9 14 -9 -15z"/>
<path d="M1741 1854 c0 -11 3 -14 6 -6 3 7 2 16 -1 19 -3 4 -6 -2 -5 -13z"/>
<path d="M1720 1735 c0 -19 4 -35 8 -35 4 0 6 16 4 35 -2 19 -6 35 -8 35 -2 0
-4 -16 -4 -35z"/>
<path d="M1093 1843 c-3 -10 -8 -22 -11 -27 -3 -5 0 -6 5 -3 11 7 25 47 17 47
-3 0 -7 -8 -11 -17z"/>
</g>
</svg>
