<svg width="27" height="27" viewBox="0 0 27 27" fill="none" xmlns="http://www.w3.org/2000/svg">
<g id="icon/comments">
<g id="chat">
<mask id="mask0_320_1575" style="mask-type:alpha" maskUnits="userSpaceOnUse" x="0" y="0" width="29" height="29">
<rect id="Bounding box" x="0.25" y="0.5" width="28" height="28" fill="#D9D9D9"/>
</mask>
<g mask="url(#mask0_320_1575)">
<path id="chat_2" d="M7.29167 15.125H14.875V14.0417H7.29167V15.125ZM7.29167 11.875H19.2083V10.7917H7.29167V11.875ZM7.29167 8.625H19.2083V7.54167H7.29167V8.625ZM3.5 22.2501V5.50012C3.5 5.00143 3.66701 4.58507 4.00104 4.25104C4.33507 3.91701 4.75143 3.75 5.25012 3.75H21.2499C21.7486 3.75 22.1649 3.91701 22.499 4.25104C22.833 4.58507 23 5.00143 23 5.50012V17.1665C23 17.6652 22.833 18.0816 22.499 18.4156C22.1649 18.7497 21.7486 18.9167 21.2499 18.9167H6.83342L3.5 22.2501ZM6.37083 17.8333H21.2499C21.4167 17.8333 21.5695 17.7639 21.7084 17.6251C21.8472 17.4862 21.9167 17.3334 21.9167 17.1665V5.50012C21.9167 5.33329 21.8472 5.18045 21.7084 5.0416C21.5695 4.90276 21.4167 4.83333 21.2499 4.83333H5.25012C5.08329 4.83333 4.93045 4.90276 4.7916 5.0416C4.65276 5.18045 4.58333 5.33329 4.58333 5.50012V19.6146L6.37083 17.8333Z" fill="#B2B2B2"/>
</g>
</g>
</g>
</svg>
