<svg width="29" height="29" viewBox="0 0 29 29" fill="none" xmlns="http://www.w3.org/2000/svg">
<g id="icon/view">
<g id="visibility">
<mask id="mask0_320_1579" style="mask-type:alpha" maskUnits="userSpaceOnUse" x="0" y="0" width="29" height="29">
<rect id="Bounding box" x="0.96875" y="0.5" width="28" height="28" fill="#D9D9D9"/>
</mask>
<g mask="url(#mask0_320_1579)">
<path id="visibility_2" d="M14.9732 18.179C16.1587 18.179 17.1647 17.7641 17.9911 16.9342C18.8175 16.1043 19.2307 15.0966 19.2307 13.9111C19.2307 12.7256 18.8157 11.7196 17.9858 10.8932C17.1559 10.0668 16.1482 9.65363 14.9627 9.65363C13.7772 9.65363 12.7712 10.0686 11.9448 10.8985C11.1184 11.7284 10.7052 12.7361 10.7052 13.9216C10.7052 15.1071 11.1202 16.1131 11.9501 16.9395C12.78 17.7659 13.7877 18.179 14.9732 18.179ZM14.9679 17.0663C14.0929 17.0663 13.3492 16.7601 12.7367 16.1476C12.1242 15.5351 11.8179 14.7913 11.8179 13.9163C11.8179 13.0413 12.1242 12.2976 12.7367 11.6851C13.3492 11.0726 14.0929 10.7663 14.9679 10.7663C15.8429 10.7663 16.5867 11.0726 17.1992 11.6851C17.8117 12.2976 18.1179 13.0413 18.1179 13.9163C18.1179 14.7913 17.8117 15.5351 17.1992 16.1476C16.5867 16.7601 15.8429 17.0663 14.9679 17.0663ZM14.9712 21.4997C12.4442 21.4997 10.1412 20.812 8.06216 19.4367C5.98316 18.0614 4.42614 16.2213 3.39111 13.9163C4.42614 11.6114 5.98209 9.77127 8.05895 8.39597C10.1358 7.02066 12.4377 6.33301 14.9647 6.33301C17.4917 6.33301 19.7947 7.02066 21.8737 8.39597C23.9527 9.77127 25.5098 11.6114 26.5448 13.9163C25.5098 16.2213 23.9538 18.0614 21.8769 19.4367C19.8001 20.812 17.4982 21.4997 14.9712 21.4997ZM14.9679 20.333C17.1652 20.333 19.1825 19.7545 21.02 18.5976C22.8575 17.4406 24.2624 15.8802 25.2346 13.9163C24.2624 11.9525 22.8575 10.392 21.02 9.23509C19.1825 8.07815 17.1652 7.49967 14.9679 7.49967C12.7707 7.49967 10.7534 8.07815 8.91586 9.23509C7.07836 10.392 5.6735 11.9525 4.70128 13.9163C5.6735 15.8802 7.07836 17.4406 8.91586 18.5976C10.7534 19.7545 12.7707 20.333 14.9679 20.333Z" fill="#B2B2B2"/>
</g>
</g>
</g>
</svg>
