<svg width="21" height="21" viewBox="0 0 21 21" fill="none" xmlns="http://www.w3.org/2000/svg">
<g id="&#236;&#149;&#132;&#236;&#157;&#180;&#236;&#189;&#152;/&#236;&#130;&#172;&#236;&#167;&#132;">
<g id="add_photo_alternate">
<mask id="mask0_1379_1762" style="mask-type:alpha" maskUnits="userSpaceOnUse" x="0" y="0" width="21" height="21">
<rect id="Bounding box" x="0.681641" y="0.0742188" width="20" height="20" fill="#D9D9D9"/>
</mask>
<g mask="url(#mask0_1379_1762)">
<path id="add_photo_alternate_2" d="M4.84831 17.5742C4.38997 17.5742 3.99761 17.411 3.67122 17.0846C3.34484 16.7582 3.18164 16.3659 3.18164 15.9076V4.24089C3.18164 3.78255 3.34484 3.39019 3.67122 3.0638C3.99761 2.73741 4.38997 2.57422 4.84831 2.57422H11.515V4.24089H4.84831V15.9076H16.515V9.24089H18.1816V15.9076C18.1816 16.3659 18.0184 16.7582 17.6921 17.0846C17.3657 17.411 16.9733 17.5742 16.515 17.5742H4.84831ZM5.68164 14.2409H15.6816L12.5566 10.0742L10.0566 13.4076L8.18164 10.9076L5.68164 14.2409ZM14.8483 7.57422V5.90755H13.1816V4.24089H14.8483V2.57422H16.515V4.24089H18.1816V5.90755H16.515V7.57422H14.8483Z" fill="#B2B2B2"/>
</g>
</g>
</g>
</svg>
