<?xml version="1.0" standalone="no"?>
<!DOCTYPE svg PUBLIC "-//W3C//DTD SVG 20010904//EN"
 "http://www.w3.org/TR/2001/REC-SVG-20010904/DTD/svg10.dtd">
<svg version="1.0" xmlns="http://www.w3.org/2000/svg"
 width="421.000000pt" height="421.000000pt" viewBox="0 0 421.000000 421.000000"
 preserveAspectRatio="xMidYMid meet">

<g transform="translate(0.000000,421.000000) scale(0.100000,-0.100000)"
fill="#000000" stroke="none">
<path d="M165 4101 c-11 -5 -29 -19 -40 -31 -19 -21 -20 -36 -20 -463 l0 -442
30 -5 c41 -7 40 -34 -2 -38 l-33 -3 0 -88 0 -89 38 2 c20 0 37 -3 37 -9 0 -5
-4 -10 -10 -10 -5 0 -15 -4 -22 -8 -6 -4 -18 -4 -27 -1 -15 6 -16 -54 -14
-667 3 -593 5 -674 18 -671 8 2 40 5 70 7 30 2 92 7 138 10 65 5 82 4 82 -7 0
-19 -34 -38 -58 -31 -11 2 -23 0 -26 -6 -9 -14 -53 -14 -62 0 -5 8 -10 6 -16
-5 -7 -13 -20 -17 -48 -15 -22 2 -42 0 -46 -4 -4 -4 -18 -7 -32 -7 l-24 0 5
-670 c5 -734 3 -708 64 -731 15 -5 186 -9 418 -9 l393 1 40 29 c41 29 62 77
45 102 -10 16 -11 108 -1 102 4 -3 14 6 23 20 9 13 25 26 35 29 21 5 26 -9 10
-33 -11 -18 6 -41 24 -34 9 3 16 -6 21 -23 6 -25 1 -33 -44 -73 -28 -25 -51
-53 -51 -62 0 -10 -10 -26 -22 -38 l-22 -20 1350 1 c742 1 1339 4 1327 6 -12
2 -27 11 -35 20 -11 14 -10 15 12 9 23 -6 23 -6 5 5 -11 7 -30 22 -43 35 l-23
23 53 34 c51 33 55 40 110 163 32 71 78 193 103 270 37 116 45 155 45 215 0
70 -21 277 -39 384 -4 28 -13 88 -20 135 -13 88 -24 133 -46 185 -7 17 -16 52
-20 78 -5 37 -10 47 -21 43 -12 -4 -14 -1 -9 15 4 13 1 27 -10 39 -9 10 -15
27 -13 37 3 13 10 7 26 -25 28 -53 92 -244 92 -275 0 -21 38 -247 46 -276 4
-12 7 -11 22 1 21 18 57 21 101 7 47 -16 22 -29 -56 -29 l-63 0 0 -30 0 -30
63 0 c34 0 72 3 85 6 l22 6 0 505 c0 485 -1 512 -25 691 -44 319 -42 315 -44
110 l-1 -188 -54 0 -54 0 -22 65 c-12 36 -25 65 -29 65 -23 0 -51 -49 -51 -88
l0 -42 -40 0 c-33 0 -40 3 -40 20 0 11 -5 20 -10 20 -8 0 -9 -41 -4 -127 4
-71 3 -125 -1 -121 -4 3 -10 57 -14 120 -7 95 -5 117 8 137 16 25 16 33 20
294 l1 97 49 0 49 0 38 -104 c21 -58 41 -103 46 -100 15 10 8 85 -13 127 -20
42 -20 42 0 17 11 -14 21 -29 22 -35 1 -5 5 13 8 40 l6 50 43 3 c41 3 43 5 38
30 -14 74 -18 142 -7 142 6 0 11 -3 11 -6 0 -3 11 -78 25 -167 13 -89 28 -189
33 -222 5 -37 9 252 10 747 l2 806 -24 29 -24 28 -1934 2 c-1063 1 -1942 -2
-1953 -6z m3168 -388 c-7 -2 -19 -2 -25 0 -7 3 -2 5 12 5 14 0 19 -2 13 -5z
m-2164 -215 c1 -31 -2 -59 -6 -61 -5 -3 -9 32 -9 76 -1 50 2 74 7 62 4 -11 8
-46 8 -77z m2531 -18 c0 -15 -7 -20 -25 -20 -18 0 -25 5 -25 20 0 15 7 20 25
20 18 0 25 -5 25 -20z m120 -50 c0 -14 -33 -21 -44 -10 -8 8 -7 13 3 19 15 10
41 4 41 -9z m-1535 -90 c0 -10 -12 -16 -32 -18 -35 -3 -41 6 -21 26 17 17 53
11 53 -8z m-830 -53 c0 -26 -20 -25 -23 2 -3 16 1 22 10 19 7 -3 13 -12 13
-21z m-357 -36 c-22 -55 -68 -107 -68 -78 0 9 6 17 13 17 15 0 47 61 47 90 0
11 7 20 14 20 12 0 11 -9 -6 -49z m534 -69 c-6 -20 -28 -105 -50 -188 -22 -83
-54 -178 -71 -212 l-31 -61 123 -3 122 -3 0 -35 c0 -35 0 -35 -47 -38 l-48 -3
0 -180 0 -179 -45 0 -45 0 0 180 0 180 -50 0 c-46 0 -50 2 -50 24 0 30 -49
106 -68 106 -9 0 -12 -6 -8 -16 4 -12 1 -14 -14 -9 -32 10 -24 -17 14 -47 42
-33 56 -85 56 -206 0 -91 -11 -144 -38 -174 -13 -16 -13 -22 -1 -55 12 -31 21
-39 44 -41 37 -5 55 -19 55 -43 0 -23 -25 -25 -34 -4 -11 30 -26 14 -26 -29 0
-48 18 -72 27 -37 8 30 33 27 33 -4 0 -17 -8 -29 -25 -37 -25 -11 -35 -51 -16
-63 20 -12 42 -68 31 -79 -14 -14 -211 -21 -219 -8 -3 5 -26 19 -49 31 -24 12
-41 25 -38 29 4 3 12 0 18 -6 18 -18 39 -15 65 10 33 31 29 45 -12 40 -43 -5
-45 8 -5 31 37 22 44 50 36 128 -9 79 -13 86 -44 94 -15 3 -38 16 -51 28 -23
21 -24 21 -17 2 4 -11 9 -45 11 -75 l4 -55 -12 47 c-12 46 -43 92 -57 83 -4
-3 -10 -22 -14 -44 -3 -22 -11 -43 -17 -47 -14 -8 -2 74 13 93 5 6 8 27 6 45
l-3 33 -22 -40 c-26 -49 -49 -64 -111 -72 -26 -3 -55 -13 -64 -21 -16 -14 -20
-13 -36 1 -27 24 -55 22 -47 -3 5 -14 2 -20 -9 -20 -10 0 -16 9 -16 25 0 24
-2 25 -64 25 -73 0 -76 3 -76 101 0 64 -11 79 -57 79 l-33 0 0 -67 0 -67 63
-64 c64 -67 60 -72 -10 -13 -36 31 -46 35 -92 32 l-51 -2 0 50 c0 42 -5 56
-30 83 l-29 33 -1 -82 0 -83 -30 0 c-18 0 -33 6 -37 15 -5 14 -8 14 -25 -2
-14 -12 -35 -18 -69 -17 -91 1 -122 57 -123 219 0 117 13 164 57 201 28 24 37
26 98 22 46 -2 74 -9 87 -21 18 -17 19 -16 32 25 l13 43 9 -30 c5 -19 4 -43
-3 -67 -6 -20 -10 -50 -7 -66 4 -26 1 -31 -21 -35 -14 -3 -27 -1 -29 4 -2 5
-10 9 -17 9 -7 0 -22 17 -32 38 -36 74 -86 44 -97 -60 -8 -74 7 -185 28 -206
26 -26 64 -7 77 38 15 48 1 73 -26 50 -22 -19 -33 -2 -28 43 5 36 6 37 49 37
32 0 44 4 44 15 0 8 2 15 4 15 8 0 56 -47 56 -54 0 -4 7 -18 17 -32 12 -19 18
-22 25 -12 10 16 -1 181 -13 188 -4 3 -4 12 1 20 6 8 10 25 10 38 0 12 4 22 8
22 5 0 16 18 26 41 21 46 35 46 16 -1 -13 -32 -5 -55 10 -30 7 10 10 11 10 3
0 -9 19 -13 59 -13 100 0 168 -41 187 -114 l11 -41 12 60 c12 59 14 61 59 80
56 24 132 24 168 0 14 -9 27 -15 29 -13 2 2 -4 30 -12 63 -11 45 -12 64 -4 77
6 10 9 29 5 43 -3 14 -2 25 4 25 15 0 21 -24 15 -67 -7 -51 22 -162 48 -188
21 -20 21 -20 32 0 7 10 25 33 41 50 25 26 29 38 30 87 0 54 2 58 29 69 26 11
31 10 43 -6 8 -10 14 -25 14 -32 0 -7 5 -13 11 -13 6 0 8 7 5 16 -4 9 -1 23 5
30 9 11 8 14 -5 14 -13 0 -16 5 -11 19 3 11 2 28 -4 38 -5 10 -17 41 -26 68
-9 28 -22 69 -30 92 -11 34 -11 41 0 39 7 -1 23 -13 35 -26 l21 -25 -7 25 c-3
14 -13 36 -21 48 -33 53 0 27 91 -71 53 -58 96 -110 96 -117 0 -8 -5 -28 -11
-45 -14 -37 -1 -126 18 -132 25 -9 84 145 118 307 14 64 14 76 1 95 -17 26
-12 35 21 35 23 0 26 6 24 45 0 14 3 12 10 -8 8 -20 8 -39 1 -65z m2142 59 c3
-5 0 -13 -7 -19 -15 -13 -42 1 -33 17 9 13 33 15 40 2z m-2614 -71 c0 -11 -7
-37 -15 -57 -21 -50 -19 -56 16 -48 29 7 31 6 24 -16 -12 -41 -22 -43 -71 -12
-50 30 -64 64 -39 93 7 8 15 24 18 35 5 19 5 19 12 -3 6 -18 10 -20 21 -11 8
6 14 18 14 25 0 8 5 14 10 14 6 0 10 -9 10 -20z m40 -11 c0 -5 -4 -9 -10 -9
-5 0 -10 7 -10 16 0 8 5 12 10 9 6 -3 10 -10 10 -16z m1650 -5 c0 -9 -5 -14
-12 -12 -18 6 -21 28 -4 28 9 0 16 -7 16 -16z m-470 -35 c0 -5 -7 -9 -15 -9
-15 0 -20 12 -9 23 8 8 24 -1 24 -14z m60 5 c0 -9 -5 -14 -12 -12 -18 6 -21
28 -4 28 9 0 16 -7 16 -16z m-490 -38 c0 -18 -50 -30 -64 -16 -13 13 2 25 38
28 17 1 26 -3 26 -12z m-1428 -78 c-7 -7 -12 -8 -12 -2 0 14 12 26 19 19 2 -3
-1 -11 -7 -17z m598 -178 c-20 -13 -43 -13 -35 0 3 6 16 10 28 10 18 0 19 -2
7 -10z m4 -38 c2 -4 1 -14 -4 -22 -7 -11 -12 -12 -21 -3 -6 6 -8 16 -5 22 8
13 23 14 30 3z m886 -139 c14 -35 28 -63 31 -63 3 0 16 28 30 63 l24 62 48 3
c26 2 47 0 47 -3 0 -3 -22 -53 -50 -111 l-49 -106 54 -109 55 -109 -50 0 -51
0 -20 48 c-12 26 -25 58 -31 72 -9 23 -12 20 -40 -47 l-31 -73 -48 0 c-27 0
-49 2 -49 5 0 3 23 50 50 105 28 55 50 105 50 111 0 6 -20 56 -45 111 -25 55
-45 102 -45 104 0 3 21 4 47 2 l48 -3 25 -62z m598 25 l3 -38 -45 0 -46 0 0
-180 0 -180 -45 0 -45 0 0 180 0 180 -50 0 -50 0 0 33 c0 19 3 37 7 41 4 3 66
5 137 4 l131 -3 3 -37z m202 20 c9 -21 110 -401 110 -413 0 -3 -20 -5 -45 -5
-45 0 -45 0 -56 45 l-11 45 -58 0 -58 0 -6 -45 -7 -45 -49 0 c-35 0 -48 4 -45
13 2 6 27 100 55 207 28 107 53 201 55 208 3 7 23 12 55 12 43 0 52 -3 60 -22z
m384 -18 l0 -35 -77 -3 -77 -3 0 -49 0 -50 69 0 c39 0 72 -3 74 -8 3 -4 3 -19
0 -35 -5 -26 -7 -27 -75 -27 l-69 0 3 -57 3 -57 75 -1 75 0 3 -37 3 -38 -125
0 -126 0 0 213 c0 118 3 217 7 221 4 3 59 5 122 4 l115 -3 0 -35z m297 2 c40
-44 41 -116 3 -161 -14 -17 -21 -31 -14 -31 19 0 40 -66 40 -128 0 -33 5 -63
13 -71 10 -10 1 -12 -43 -9 l-55 3 -5 75 c-3 41 -9 81 -13 88 -5 6 -26 12 -48
12 l-39 0 0 -90 0 -90 -45 0 -45 0 0 213 c0 118 3 217 8 221 4 5 54 6 111 4
102 -4 104 -4 132 -36z m181 -54 c3 -51 4 -129 2 -173 -2 -44 -4 -101 -4 -127
l0 -48 -45 0 -45 0 0 213 c0 118 3 217 7 220 3 4 23 7 43 7 l37 0 5 -92z
m-1433 -92 c6 -7 9 -21 5 -30 -3 -9 -1 -16 5 -16 14 0 14 -37 0 -45 -15 -10
-20 -1 -24 37 -2 18 -6 41 -10 51 -8 20 8 23 24 3z m95 -161 c21 -22 10 -47
-18 -39 -29 9 -50 30 -42 43 10 16 42 14 60 -4z m1346 -139 c0 -3 -4 -8 -10
-11 -5 -3 -10 -1 -10 4 0 6 5 11 10 11 6 0 10 -2 10 -4z m-2148 -43 c4 -36 22
-36 26 0 3 20 8 27 20 25 19 -4 28 -60 17 -115 -8 -43 -35 -45 -35 -3 0 20 -5
30 -15 30 -10 0 -15 -10 -15 -30 0 -19 -5 -30 -14 -30 -11 0 -15 18 -18 68 -2
37 -2 70 0 75 8 18 31 4 34 -20z m166 15 c18 -18 15 -113 -4 -132 -19 -20 -34
-20 -62 0 -17 12 -22 25 -22 60 0 25 5 54 10 65 12 22 59 26 78 7z m124 -13
c8 -18 8 -28 0 -38 -7 -8 -7 -18 -2 -27 6 -8 10 -25 10 -38 0 -35 -34 -25 -38
11 -5 38 -32 36 -32 -3 0 -20 -5 -30 -15 -30 -12 0 -15 15 -15 75 l0 75 40 0
c33 0 42 -4 52 -25z m108 10 c0 -9 -9 -15 -25 -15 -16 0 -25 -6 -25 -15 0 -9
9 -15 25 -15 16 0 25 -6 25 -15 0 -9 -10 -15 -26 -15 -33 0 -30 -33 4 -38 38
-6 24 -22 -18 -22 l-40 0 0 75 0 75 40 0 c29 0 40 -4 40 -15z m106 -10 c30
-46 3 -135 -41 -135 -44 0 -71 89 -41 135 10 15 26 25 41 25 15 0 31 -10 41
-25z m112 13 c15 -15 16 -38 1 -38 -7 0 -18 8 -25 18 -11 16 -13 15 -24 -12
-11 -31 -5 -86 10 -86 15 0 23 21 11 33 -18 18 -13 27 14 27 23 0 25 -4 25
-40 0 -28 -4 -40 -14 -40 -8 0 -21 -3 -29 -6 -9 -3 -25 4 -36 15 -26 26 -29
102 -5 125 18 19 55 21 72 4z m126 -10 c8 -13 8 -23 0 -35 -7 -13 -7 -28 1
-50 l11 -32 18 70 c16 61 21 70 39 67 16 -2 26 -16 39 -58 9 -30 17 -63 17
-72 1 -22 -27 -24 -35 -3 -4 8 -13 15 -20 15 -8 0 -17 -7 -20 -15 -4 -10 -20
-15 -45 -15 -37 0 -39 2 -39 30 0 20 -5 30 -15 30 -10 0 -15 -10 -15 -30 0
-20 -5 -30 -15 -30 -12 0 -15 15 -15 76 l0 75 41 -3 c27 -2 46 -9 53 -20z
m220 6 c9 -8 16 -21 16 -28 0 -19 -23 -44 -45 -48 -13 -2 -22 -13 -25 -33 -10
-56 -25 -30 -28 48 l-3 77 35 0 c19 0 42 -7 50 -16z m56 -14 c0 -39 27 -41 32
-2 2 16 9 27 18 27 12 0 16 -16 18 -72 3 -68 1 -73 -18 -73 -16 0 -20 6 -20
30 0 20 -5 30 -15 30 -10 0 -15 -10 -15 -30 0 -20 -5 -30 -15 -30 -12 0 -15
15 -15 75 0 60 3 75 15 75 10 0 15 -10 15 -30z m116 15 c4 -8 10 -15 15 -15 5
0 9 7 9 15 0 9 9 15 25 15 30 0 30 -2 8 -43 -9 -18 -19 -50 -22 -72 -8 -57
-34 -54 -41 5 -3 25 -11 55 -18 67 -7 12 -12 26 -12 32 0 17 30 13 36 -4z
m-1951 -59 c7 -11 25 -49 40 -83 l27 -62 -33 -40 c-25 -29 -35 -36 -38 -24 -1
9 -12 30 -22 47 -23 37 -24 54 -4 76 13 14 12 20 -12 53 -14 20 -23 43 -20 51
8 20 45 9 62 -18z m424 -82 c14 -12 -19 -1 -35 12 -18 14 -18 14 6 3 14 -6 27
-13 29 -15z m2620 -74 c-2 -24 -2 -24 -6 -2 -3 13 -11 26 -19 29 -8 3 -14 9
-14 14 0 5 9 4 20 -3 12 -8 19 -23 19 -38z m28 -107 c-2 -16 -4 -5 -4 22 0 28
2 40 4 28 2 -13 2 -35 0 -50z m-1337 -273 c0 -22 -25 -44 -40 -35 -11 7 -14
48 -4 57 11 12 44 -5 44 -22z m-1617 -157 c-1 -60 -5 -128 -9 -153 l-7 -45 -8
50 c-5 27 -4 93 1 145 5 52 10 98 10 103 0 4 3 7 8 7 4 0 6 -48 5 -107z m2300
-106 c10 -29 29 -88 42 -133 14 -44 38 -114 55 -155 39 -92 40 -146 5 -216
-14 -29 -25 -56 -25 -60 0 -4 12 -24 26 -45 l26 -38 -15 -77 c-9 -43 -21 -120
-28 -171 -10 -77 -16 -96 -35 -111 -27 -21 -81 -122 -90 -166 l-5 -30 -120 5
c-69 3 -119 9 -120 15 0 6 41 16 91 24 55 9 89 19 87 25 -2 6 -21 10 -41 8
-22 -2 -36 2 -36 9 0 9 -4 8 -14 -1 -11 -8 -20 -9 -33 -1 -10 6 -12 11 -5 11
22 0 13 18 -15 27 l-26 9 31 23 c18 12 35 20 39 18 5 -3 26 -1 48 3 31 6 16 8
-62 9 -57 0 -103 3 -103 5 0 2 -3 12 -6 21 -6 13 1 16 37 15 64 -1 179 12 179
20 0 24 -210 15 -218 -8 -5 -16 -41 -15 -92 3 -23 8 -47 12 -54 8 -6 -3 -3 3
7 14 18 21 18 21 -5 29 -13 4 -26 7 -31 6 -4 -1 -5 9 -1 23 5 20 2 25 -13 25
-11 0 -23 3 -26 6 -11 11 13 44 27 38 8 -3 17 0 22 7 9 16 -23 40 -43 32 -11
-4 -14 -2 -11 8 2 7 24 17 49 21 116 19 113 18 93 33 -18 13 -18 14 -1 15 33
0 17 20 -18 20 -39 0 -43 6 -17 26 16 12 15 13 -8 14 -19 1 -21 3 -8 8 9 4 26
19 38 35 12 15 28 27 36 27 8 0 14 5 14 11 0 7 10 9 26 5 17 -5 23 -3 19 4 -3
5 2 10 12 10 10 1 56 7 103 15 l85 15 -70 -5 c-76 -5 -338 -27 -619 -51 -186
-16 -248 -13 -104 4 l83 10 -110 -4 c-60 -2 -162 -8 -225 -14 -63 -5 -128 -9
-145 -9 -29 1 -28 1 10 14 l40 14 -63 -2 c-34 -1 -62 1 -62 4 0 3 44 11 98 17
525 64 487 62 496 25 5 -17 3 -29 -6 -34 -19 -12 41 -10 142 5 72 11 78 14 38
15 -50 1 -79 21 -31 21 15 0 35 5 43 10 11 7 7 8 -15 4 -16 -3 -48 -1 -70 4
l-40 8 66 12 c36 7 78 12 92 12 15 0 27 5 27 10 0 6 19 19 43 29 l42 19 -84
-1 c-48 -1 -86 3 -88 9 -4 13 310 62 487 75 79 5 146 12 148 13 1 2 -2 41 -7
87 -17 140 -24 275 -15 266 5 -5 17 -32 27 -60z m-2842 -280 c-1 -12 -15 -9
-19 4 -3 6 1 10 8 8 6 -3 11 -8 11 -12z m1929 -57 c0 -6 -25 -10 -57 -9 -44 1
-52 3 -33 9 36 12 90 12 90 0z m-597 -57 c-7 -2 -21 -2 -30 0 -10 3 -4 5 12 5
17 0 24 -2 18 -5z m-523 -117 c0 -23 5 -47 11 -53 14 -14 7 -59 -9 -55 -6 1
-12 1 -12 -1 0 -1 -5 -40 -10 -86 -7 -53 -7 -87 -1 -94 11 -14 3 -67 -10 -67
-30 0 -37 81 -13 150 11 32 14 61 9 102 -7 61 10 162 26 152 5 -3 9 -24 9 -48z
m1333 -3 c-7 -2 -19 -2 -25 0 -7 3 -2 5 12 5 14 0 19 -2 13 -5z m-1540 -70 c5
-17 10 -46 22 -128 3 -16 -6 4 -20 45 -14 41 -25 81 -25 88 0 18 18 14 23 -5z
m1180 0 c-7 -2 -19 -2 -25 0 -7 3 -2 5 12 5 14 0 19 -2 13 -5z m627 -117 c0
-2 -7 -6 -15 -10 -8 -3 -15 -1 -15 4 0 6 7 10 15 10 8 0 15 -2 15 -4z m-136
-131 c-4 -9 -19 -15 -35 -15 -40 0 -37 18 4 23 17 2 33 5 34 5 1 1 0 -5 -3
-13z m-1604 -11 c0 -8 -5 -12 -10 -9 -6 4 -8 11 -5 16 9 14 15 11 15 -7z m0
-70 c0 -8 -4 -12 -10 -9 -5 3 -10 10 -10 16 0 5 5 9 10 9 6 0 10 -7 10 -16z
m457 -30 c2 -6 -6 -10 -19 -8 -31 3 -30 3 -23 15 8 12 37 8 42 -7z m-437 -6
c0 -6 7 -20 17 -30 9 -10 13 -21 10 -25 -8 -7 -57 43 -57 58 0 5 7 9 15 9 8 0
15 -5 15 -12z m538 -30 c-3 -7 -13 -15 -24 -17 -16 -3 -17 -1 -5 13 16 19 34
21 29 4z m-573 -158 c-3 -5 -17 -10 -31 -10 -13 0 -24 -4 -24 -10 0 -5 9 -10
19 -10 11 0 22 -4 25 -9 3 -5 -9 -8 -27 -7 -34 2 -51 31 -25 47 19 12 71 11
63 -1z m90 0 c3 -5 -1 -10 -10 -10 -9 0 -13 5 -10 10 3 6 8 10 10 10 2 0 7 -4
10 -10z"/>
<path d="M899 2639 c-21 -21 -21 -28 -15 -142 4 -67 12 -129 17 -139 12 -22
52 -23 70 -2 15 18 25 183 15 238 -12 64 -49 83 -87 45z"/>
<path d="M550 2591 l0 -61 34 0 c39 0 41 2 50 50 7 45 -2 59 -47 67 l-37 6 0
-62z"/>
<path d="M1260 2603 c0 -42 10 -99 40 -218 7 -29 7 -28 14 16 5 31 2 77 -9
135 -9 49 -16 95 -17 102 -1 6 -7 12 -15 12 -9 0 -13 -15 -13 -47z"/>
<path d="M735 2572 c-3 -17 -15 -42 -25 -55 -19 -24 -19 -25 0 -42 11 -10 20
-30 21 -44 0 -24 1 -24 9 -6 5 11 9 16 10 10 3 -17 18 39 19 71 1 18 -5 46
-13 65 l-14 32 -7 -31z"/>
<path d="M1096 2574 c-9 -23 -7 -64 3 -64 9 0 21 34 21 63 0 21 -16 22 -24 1z"/>
<path d="M1215 2540 c-3 -5 -1 -10 4 -10 6 0 11 5 11 10 0 6 -2 10 -4 10 -3 0
-8 -4 -11 -10z"/>
<path d="M1239 2417 c-1 -20 -2 -42 -3 -49 -1 -6 4 -13 11 -15 8 -3 10 9 7 43
-6 59 -14 69 -15 21z"/>
<path d="M766 2388 c-17 -77 -11 -95 32 -100 20 -3 38 -4 40 -3 2 2 -8 20 -23
40 -14 21 -25 46 -25 56 0 27 -19 33 -24 7z"/>
<path d="M2747 2605 c-4 -11 -13 -50 -21 -87 l-14 -68 40 0 39 0 -7 36 c-19
103 -30 139 -37 119z"/>
<path d="M3337 2643 c-4 -3 -7 -30 -7 -60 l0 -53 34 0 c19 0 42 7 50 16 24 23
20 70 -6 88 -23 16 -60 21 -71 9z"/>
<path d="M1652 2188 c-14 -14 -16 -67 -3 -87 15 -24 31 -1 31 44 0 47 -10 61
-28 43z"/>
<path d="M1762 2174 c4 -21 22 -23 26 -1 2 10 -3 17 -13 17 -10 0 -15 -6 -13
-16z"/>
<path d="M1986 2193 c-3 -3 -6 -28 -6 -55 0 -36 4 -48 15 -48 11 0 15 12 15
49 0 47 -9 68 -24 54z"/>
<path d="M2212 2174 c4 -21 22 -23 26 -1 2 10 -3 17 -13 17 -10 0 -15 -6 -13
-16z"/>
<path d="M2336 2145 c-3 -8 -1 -15 4 -15 6 0 10 7 10 15 0 8 -2 15 -4 15 -2 0
-6 -7 -10 -15z"/>
<path d="M2442 2173 c5 -25 28 -28 28 -4 0 12 -6 21 -16 21 -9 0 -14 -7 -12
-17z"/>
<path d="M2928 863 c7 -3 16 -2 19 1 4 3 -2 6 -13 5 -11 0 -14 -3 -6 -6z"/>
<path d="M2688 843 c6 -2 18 -2 25 0 6 3 1 5 -13 5 -14 0 -19 -2 -12 -5z"/>
<path d="M3038 843 c12 -2 32 -2 45 0 12 2 2 4 -23 4 -25 0 -35 -2 -22 -4z"/>
<path d="M2583 833 c15 -2 37 -2 50 0 12 2 0 4 -28 4 -27 0 -38 -2 -22 -4z"/>
<path d="M3821 2493 c-1 -74 8 -94 30 -67 10 13 9 26 -8 77 l-21 62 -1 -72z"/>
<path d="M3932 2475 c0 -16 2 -22 5 -12 2 9 2 23 0 30 -3 6 -5 -1 -5 -18z"/>
<path d="M1110 319 c0 -6 -7 -9 -15 -5 -11 4 -15 -2 -15 -22 l1 -27 19 24 c19
22 26 41 15 41 -3 0 -5 -5 -5 -11z"/>
</g>
</svg>
