<?xml version="1.0" standalone="no"?>
<!DOCTYPE svg PUBLIC "-//W3C//DTD SVG 20010904//EN"
 "http://www.w3.org/TR/2001/REC-SVG-20010904/DTD/svg10.dtd">
<svg version="1.0" xmlns="http://www.w3.org/2000/svg"
 width="421.000000pt" height="421.000000pt" viewBox="0 0 421.000000 421.000000"
 preserveAspectRatio="xMidYMid meet">

<g transform="translate(0.000000,421.000000) scale(0.100000,-0.100000)"
fill="#000000" stroke="none">
<path d="M163 4100 c-57 -23 -53 113 -53 -1951 -1 -1042 -1 -1913 0 -1937 0
-34 6 -50 29 -73 l29 -29 904 1 c497 0 897 3 891 6 -7 2 -15 4 -18 3 -3 0 -19
13 -36 31 -23 25 -27 35 -18 45 9 11 8 18 -1 29 -11 13 -15 13 -21 3 -7 -10
-9 -10 -9 0 0 7 7 15 16 19 15 6 15 8 -2 20 -10 7 -13 13 -7 13 6 0 8 11 5 26
-6 32 16 75 37 72 12 -2 15 4 13 22 -3 20 -1 23 9 13 19 -19 29 -16 29 7 0 24
25 30 100 26 72 -4 70 -4 64 -20 -6 -17 12 -31 21 -16 4 6 11 8 16 4 6 -4 6
-11 -2 -20 -11 -14 -9 -16 21 -18 8 -1 22 -21 31 -46 16 -42 16 -46 1 -58 -16
-12 -16 -14 0 -26 20 -14 14 -28 -8 -19 -11 4 -14 -3 -12 -28 2 -27 -1 -34
-14 -33 -10 1 -16 -1 -13 -5 5 -10 -32 -41 -39 -34 -3 4 -6 1 -6 -5 0 -9 235
-12 961 -12 l961 0 29 29 29 29 2 339 c4 748 -4 2318 -12 2321 -5 2 -6 19 -3
38 5 30 3 34 -16 34 -15 0 -22 8 -26 28 -3 15 -10 41 -16 57 -21 59 -21 61 3
72 21 9 19 10 -22 19 l-45 8 67 4 68 3 0 475 c0 307 -4 482 -10 495 -28 52 83
49 -1987 48 -1084 0 -1928 -4 -1940 -9z m3863 -1573 c5 -41 10 -55 16 -45 6 8
7 -3 3 -32 -3 -25 -9 -73 -14 -108 -8 -67 -20 -86 -63 -96 -26 -6 -27 -4 -31
41 l-3 48 -2 -52 -2 -53 -90 0 -89 0 -3 -157 -3 -158 -67 -3 -68 -3 -2 93 c-1
51 0 123 1 161 l3 67 -91 0 -91 0 0 49 0 49 38 5 c20 3 88 5 150 5 62 0 115 1
117 4 8 7 8 62 1 113 -5 34 -4 45 3 36 6 -10 8 5 4 50 -3 47 -2 60 6 49 6 -8
11 -55 11 -103 l0 -88 37 -16 c44 -18 133 -13 179 9 28 13 29 15 29 93 0 44
-3 98 -7 120 l-7 40 14 -30 c8 -16 17 -56 21 -88z m-2888 57 c51 -35 11 -59
-46 -27 -25 14 -35 15 -56 5 -44 -20 -28 -72 22 -72 13 0 37 8 53 17 22 13 32
14 41 5 32 -32 -65 -71 -131 -52 -64 18 -82 82 -35 119 33 26 118 29 152 5z
m80 -11 c3 -20 9 -23 48 -23 41 0 44 2 44 26 0 21 4 25 23 22 20 -3 22 -9 25
-70 3 -67 3 -68 -23 -68 -20 0 -25 5 -25 25 0 23 -4 25 -45 25 -41 0 -45 -2
-45 -25 0 -20 -5 -25 -25 -25 -24 0 -25 2 -25 71 0 67 1 70 23 67 14 -2 23
-11 25 -25z m330 11 c16 -11 22 -25 22 -54 0 -52 -32 -74 -106 -74 -67 0 -94
21 -94 75 0 51 27 69 100 69 34 0 64 -6 78 -16z m198 8 c6 -4 12 -35 12 -69 1
-53 -2 -63 -16 -63 -10 0 -22 10 -27 23 -7 16 -20 23 -47 25 -35 3 -38 1 -38
-23 0 -22 -4 -26 -22 -23 -20 3 -23 10 -26 71 l-3 67 78 0 c43 0 83 -4 89 -8z
m179 -7 c0 -5 -20 -11 -45 -13 -66 -5 -75 -22 -12 -22 45 0 52 -3 52 -20 0
-17 -7 -20 -50 -20 -27 0 -50 -4 -50 -10 0 -5 25 -10 55 -10 42 0 55 -3 55
-15 0 -12 -16 -15 -80 -15 l-80 0 0 70 0 71 78 -3 c43 -2 77 -7 77 -13z m195
-5 c28 -28 27 -85 -2 -104 -36 -22 -74 -27 -120 -17 -68 16 -88 63 -47 115 18
23 27 26 85 26 51 0 68 -4 84 -20z m258 4 c51 -35 11 -59 -46 -27 -39 22 -85
6 -80 -29 5 -35 51 -47 94 -23 26 14 37 16 46 7 18 -18 -16 -48 -60 -56 -48
-7 -109 9 -122 34 -32 60 11 110 94 110 30 0 61 -6 74 -16z m82 -34 l0 -50 39
0 c22 0 46 -3 55 -6 11 -4 23 9 43 50 25 51 30 56 60 56 29 0 35 -5 60 -56 15
-31 29 -51 31 -45 2 6 13 11 25 11 l21 0 -22 16 c-24 17 -29 43 -10 62 18 18
128 15 149 -4 17 -15 19 -15 34 0 23 22 137 23 156 0 11 -14 11 -18 -4 -29
-16 -11 -16 -13 -2 -19 27 -10 15 -59 -18 -74 -33 -16 -110 -8 -130 13 -10 11
-15 10 -30 -3 -24 -21 -127 -23 -151 -3 -10 9 -16 10 -16 2 0 -14 -37 -15 -45
-1 -3 6 -26 10 -50 10 -24 0 -47 -4 -50 -10 -3 -6 -48 -10 -101 -10 l-94 0 0
70 c0 68 1 70 25 70 23 0 25 -3 25 -50z m-1843 -415 c58 -110 107 -206 110
-212 4 -10 -13 -13 -66 -13 -71 0 -72 0 -92 35 l-21 35 -127 0 -127 0 -17 -35
-17 -35 -70 0 c-39 0 -69 3 -67 8 2 4 50 101 106 215 l103 208 90 -3 91 -3
104 -200z m326 195 l197 0 0 -50 0 -50 -90 0 -90 0 0 -160 0 -161 -67 3 -68 3
-3 158 -3 158 -92 -2 c-50 -1 -91 1 -89 5 1 3 2 29 2 57 l0 52 53 -7 c28 -3
141 -6 250 -6z m672 -45 l0 -50 -152 4 -153 4 0 -38 0 -38 153 4 152 4 3 -47
3 -48 -155 0 -156 0 0 -35 0 -35 160 0 160 0 0 -50 0 -50 -227 2 -228 3 0 205
0 205 175 6 c96 3 195 5 220 5 l45 -1 0 -50z m690 40 c6 -1 11 -22 10 -46 l0
-44 -92 -3 -93 -3 0 -159 0 -160 -65 0 -65 0 0 160 0 160 -95 0 -95 0 0 49 c0
31 5 51 12 53 14 5 467 -2 483 -7z m1037 -79 c26 -49 77 -144 112 -212 l65
-124 -75 0 -74 0 -17 35 -17 35 -128 0 -128 0 -17 -35 c-17 -35 -17 -35 -85
-35 -37 0 -68 2 -68 5 0 3 47 100 105 215 l105 211 87 -3 86 -3 49 -89z m-862
9 l0 -75 140 0 140 0 0 75 0 75 70 0 70 0 0 -210 0 -210 -70 0 -70 0 0 80 0
80 -140 0 -140 0 0 -80 0 -80 -65 0 -65 0 0 210 0 210 65 0 65 0 0 -75z m1427
-87 c-2 -7 -10 -12 -17 -10 -8 2 -11 -4 -8 -15 4 -14 -2 -18 -26 -19 -16 -1
-32 -6 -34 -13 -5 -16 -32 -14 -32 3 0 9 12 16 28 18 16 2 27 9 27 18 0 20 15
30 43 30 15 0 22 -5 19 -12z m-114 -15 c-7 -2 -19 -2 -25 0 -7 3 -2 5 12 5 14
0 19 -2 13 -5z m37 -83 c0 -5 -15 -9 -32 -9 l-33 1 30 8 c17 4 31 8 33 9 1 0
2 -3 2 -9z m-2136 -272 c8 -13 8 -23 -1 -38 -8 -12 -9 -21 -3 -25 6 -3 10 -22
10 -41 0 -31 -3 -35 -22 -32 -14 2 -24 12 -28 28 -5 22 -12 25 -53 28 -47 3
-47 3 -47 -28 0 -27 -3 -31 -22 -28 -21 3 -23 9 -26 81 l-3 78 92 -3 c75 -2
94 -6 103 -20z m196 7 c0 -12 -13 -15 -60 -15 -46 0 -60 -3 -60 -15 0 -10 15
-15 57 -17 78 -4 83 -26 7 -30 -82 -4 -86 -28 -5 -28 54 0 61 -2 61 -20 0 -18
-7 -20 -85 -20 l-85 0 0 80 0 80 85 0 c69 0 85 -3 85 -15z m120 -30 c24 -25
48 -45 52 -45 4 0 8 20 8 45 0 42 2 45 25 45 26 0 26 0 23 -77 -3 -71 -5 -78
-24 -81 -15 -2 -39 13 -75 47 l-54 50 -3 -50 c-3 -45 -5 -49 -28 -49 -23 0
-24 2 -24 80 l0 80 28 0 c20 0 41 -13 72 -45z m294 -17 c51 -93 53 -98 23 -98
-14 0 -27 7 -31 15 -4 11 -20 15 -54 15 -32 0 -54 -5 -62 -15 -11 -14 -50 -22
-50 -10 0 2 17 38 37 80 35 70 39 75 70 75 29 0 35 -6 67 -62z m160 16 l51
-47 3 47 c3 41 6 46 28 46 23 0 24 -2 24 -80 0 -77 -1 -80 -23 -80 -14 0 -41
19 -72 50 -27 28 -53 50 -57 50 -4 0 -8 -22 -8 -50 0 -47 -2 -50 -25 -50 -25
0 -25 1 -25 80 0 80 0 80 26 80 17 0 44 -16 78 -46z"/>
<path d="M1440 2563 c-15 -6 -30 -23 -30 -35 0 -16 34 -38 60 -38 26 0 60 22
60 38 -1 27 -56 49 -90 35z"/>
<path d="M1637 2564 c-16 -16 -5 -24 34 -24 28 0 39 4 37 13 -5 13 -60 22 -71
11z"/>
<path d="M2010 2563 c-31 -12 -37 -35 -14 -57 18 -19 65 -21 82 -4 37 37 -13
81 -68 61z"/>
<path d="M2805 2560 c3 -5 22 -10 41 -10 21 0 33 4 29 10 -3 6 -22 10 -41 10
-21 0 -33 -4 -29 -10z"/>
<path d="M2990 2560 c0 -5 16 -10 36 -10 21 0 33 4 29 10 -3 6 -19 10 -36 10
-16 0 -29 -4 -29 -10z"/>
<path d="M2640 2540 c-9 -17 -8 -20 10 -20 11 0 20 6 20 14 0 24 -18 28 -30 6z"/>
<path d="M2905 2549 c-16 -6 -17 -8 -3 -8 9 -1 21 -8 26 -17 5 -9 15 -14 23
-13 11 3 10 9 -6 25 -14 15 -26 19 -40 13z"/>
<path d="M2983 2505 c4 -13 77 -19 77 -7 0 6 -18 12 -40 14 -25 2 -39 0 -37
-7z"/>
<path d="M2805 2500 c3 -5 22 -10 41 -10 19 0 34 5 34 10 0 6 -18 10 -41 10
-24 0 -38 -4 -34 -10z"/>
<path d="M383 2156 l-32 -64 67 -4 c37 -2 69 -2 72 0 5 4 -63 132 -70 132 -3
0 -20 -29 -37 -64z"/>
<path d="M3166 2161 c-24 -49 -31 -73 -23 -76 7 -3 40 -1 74 3 l62 7 -39 69
-38 70 -36 -73z"/>
<path d="M1555 1780 c-12 -19 10 -32 51 -28 27 2 39 8 39 18 0 19 -79 27 -90
10z"/>
<path d="M2222 1755 c-11 -23 -10 -25 13 -25 27 0 33 21 12 39 -11 8 -16 5
-25 -14z"/>
<path d="M1996 410 c-120 -38 -129 -206 -14 -266 90 -47 201 26 201 133 0 92
-97 162 -187 133z m140 -42 c4 -6 2 -13 -3 -17 -6 -3 -12 -23 -15 -43 -2 -20
-1 -35 2 -33 4 2 7 -18 8 -45 l1 -50 -70 0 -69 0 -1 43 -2 42 -6 -40 c-6 -39
-29 -55 -38 -27 -3 6 0 12 6 12 15 0 14 63 -1 79 -10 11 -10 14 0 18 6 3 12
19 12 37 l0 33 85 1 c47 0 88 -5 91 -10z"/>
<path d="M1981 316 c-1 -30 3 -46 8 -40 5 5 6 27 1 49 l-8 40 -1 -49z"/>
<path d="M2077 328 c12 -24 13 -31 1 -45 -11 -14 -11 -16 2 -11 9 2 16 19 18
40 2 28 -1 36 -16 40 -18 5 -18 4 -5 -24z"/>
<path d="M2040 329 c0 -11 4 -18 10 -14 5 3 7 12 3 20 -7 21 -13 19 -13 -6z"/>
<path d="M2022 230 c0 -14 2 -19 5 -12 2 6 2 18 0 25 -3 6 -5 1 -5 -13z"/>
<path d="M1998 113 c6 -2 18 -2 25 0 6 3 1 5 -13 5 -14 0 -19 -2 -12 -5z"/>
</g>
</svg>
