<?xml version="1.0" standalone="no"?>
<!DOCTYPE svg PUBLIC "-//W3C//DTD SVG 20010904//EN"
 "http://www.w3.org/TR/2001/REC-SVG-20010904/DTD/svg10.dtd">
<svg version="1.0" xmlns="http://www.w3.org/2000/svg"
 width="100.000000pt" height="421.000000pt" viewBox="0 0 100.000000 421.000000"
 preserveAspectRatio="xMidYMid meet">

<g transform="translate(0.000000,421.000000) scale(0.100000,-0.100000)"
fill="#000000" stroke="none">
<path d="M193 4096 c-24 -6 -51 -19 -60 -29 -17 -17 -16 -17 17 -6 19 7 41 16
48 22 21 16 27 -1 7 -23 -12 -13 -31 -20 -56 -20 -37 0 -37 0 -44 -50 -10 -71
1 -110 30 -110 36 0 39 -17 5 -24 l-30 -5 -1 -113 c-1 -62 -1 -297 0 -523 0
-225 1 -456 1 -512 l0 -103 25 0 25 0 0 -155 0 -155 45 0 c41 0 45 -2 45 -25
0 -24 -2 -25 -69 -25 l-69 0 -7 -82 c-3 -46 -5 -512 -2 -1037 l4 -954 32 -29
31 -28 415 0 415 0 0 999 c0 790 -3 1001 -12 1005 -10 5 -10 7 0 12 7 3 12 26
12 60 l0 54 -38 0 c-28 0 -45 7 -63 26 -23 24 -24 31 -24 177 l0 152 27 3 27
3 3 -147 c3 -122 6 -149 19 -157 9 -6 24 -7 33 -4 15 6 16 56 16 557 0 517 -1
550 -17 550 -17 1 -17 1 0 14 9 7 17 23 17 35 0 18 -6 21 -36 21 -29 0 -35 3
-30 16 3 9 6 18 6 20 0 2 7 4 16 4 36 0 42 23 43 173 2 143 1 145 -19 140 -15
-4 -23 0 -26 14 -4 13 -14 21 -27 21 -12 0 -39 7 -59 15 -30 13 -38 21 -38 41
0 15 6 26 14 26 15 0 44 -30 30 -30 -11 0 18 -20 29 -20 4 0 7 7 7 16 0 9 -5
13 -12 9 -7 -4 -1 4 15 17 15 13 27 32 27 42 0 13 4 16 13 9 6 -6 20 -13 30
-16 15 -6 17 1 17 68 l0 74 -382 -1 c-254 0 -397 -4 -425 -12z m90 -216 c6
-22 -17 -48 -28 -30 -3 5 -21 10 -38 11 l-32 1 40 19 c50 23 52 23 58 -1z
m235 -2 c0 -7 2 -20 3 -28 5 -33 -2 -60 -14 -60 -9 0 -14 13 -14 38 -1 44 3
62 15 62 5 0 9 -6 10 -12z m372 -88 c0 -5 -4 -10 -10 -10 -5 0 -10 5 -10 10 0
6 5 10 10 10 6 0 10 -4 10 -10z m-700 -40 c-23 -32 -40 -39 -40 -16 0 15 36
46 53 46 5 0 -1 -13 -13 -30z m720 -46 c0 -9 -5 -14 -12 -12 -18 6 -21 28 -4
28 9 0 16 -7 16 -16z m50 2 c0 -2 2 -10 5 -18 3 -8 -3 -13 -20 -14 -28 -2 -28
-2 -19 20 5 14 34 24 34 12z m-70 -57 c0 -5 -9 -9 -20 -9 -19 0 -26 11 -14 23
8 8 34 -3 34 -14z m46 -239 c0 -11 -4 -20 -8 -20 -10 0 -11 24 -1 33 9 9 9 10
9 -13z m-555 -228 c-34 -113 -71 -122 -71 -16 0 30 5 56 13 61 13 11 70 32 75
28 2 -2 -6 -34 -17 -73z m-181 -92 c0 -89 -9 -110 -30 -70 -21 38 -24 108 -6
135 28 43 36 29 36 -65z m235 -520 c0 -23 -4 -25 -47 -28 l-48 -3 0 -45 0 -44
39 0 c44 0 55 -10 46 -40 -5 -16 -15 -20 -46 -20 l-39 0 0 -50 0 -50 50 0 c47
0 50 -2 50 -25 0 -24 -2 -25 -75 -25 l-75 0 0 180 0 181 73 -3 c69 -3 72 -4
72 -28z m195 0 c0 -29 -2 -30 -45 -30 l-45 0 0 -45 0 -45 40 0 c38 0 40 -2 40
-30 0 -28 -2 -30 -40 -30 l-40 0 0 -50 0 -50 45 0 c41 0 45 -2 45 -25 0 -24
-2 -25 -75 -25 l-75 0 0 173 c0 96 3 177 7 180 3 4 37 7 75 7 l68 0 0 -30z
m190 -125 c0 -152 -1 -156 -25 -180 -18 -19 -35 -25 -68 -25 -54 0 -76 19 -49
43 11 10 26 14 41 10 43 -11 51 16 51 169 l0 138 25 0 25 0 0 -155z m-26 -391
c18 -76 15 -103 -8 -71 -16 21 -46 23 -46 2 0 -8 -7 -15 -16 -15 -9 0 -14 6
-11 13 2 7 10 39 17 72 14 69 17 75 34 75 7 0 20 -31 30 -76z m70 44 l14 -33
1 33 c1 21 6 32 16 32 12 0 15 -16 15 -80 0 -45 -4 -80 -10 -80 -5 0 -18 19
-29 43 l-19 42 -1 -42 c-1 -24 -5 -43 -11 -43 -6 0 -10 33 -10 80 0 86 11 101
34 48z m96 -48 c0 -47 -4 -80 -10 -80 -6 0 -10 33 -10 80 0 47 4 80 10 80 6 0
10 -33 10 -80z"/>
<path d="M755 2057 c-4 -10 -5 -21 -1 -24 10 -10 18 4 13 24 -4 17 -4 17 -12
0z"/>
</g>
</svg>
