<?xml version="1.0" standalone="no"?>
<!DOCTYPE svg PUBLIC "-//W3C//DTD SVG 20010904//EN"
 "http://www.w3.org/TR/2001/REC-SVG-20010904/DTD/svg10.dtd">
<svg version="1.0" xmlns="http://www.w3.org/2000/svg"
 width="421.000000pt" height="421.000000pt" viewBox="0 0 421.000000 421.000000"
 preserveAspectRatio="xMidYMid meet">

<g transform="translate(0.000000,421.000000) scale(0.100000,-0.100000)"
fill="#000000" stroke="none">
<path d="M2082 4078 c-17 -18 -38 -49 -46 -69 -14 -34 -14 -38 4 -54 11 -10
20 -24 20 -32 0 -7 3 -12 8 -12 20 3 32 -2 32 -16 0 -8 5 -15 10 -15 6 0 10
-7 10 -16 0 -9 14 -46 32 -82 l32 -65 -2 -189 c-2 -188 -2 -189 26 -246 30
-61 72 -131 72 -121 0 3 -13 35 -29 70 -20 46 -27 74 -24 101 7 52 24 31 44
-52 9 -36 33 -121 54 -189 l38 -124 -59 -53 c-32 -29 -90 -75 -129 -100 -38
-26 -86 -60 -106 -76 -20 -15 -60 -33 -89 -40 -47 -11 -62 -21 -129 -92 -42
-44 -104 -107 -138 -141 l-63 -61 0 -60 c0 -33 7 -72 15 -88 9 -16 14 -30 13
-31 -2 -1 -32 -19 -67 -40 -35 -21 -120 -78 -189 -128 -68 -49 -195 -134 -281
-189 -172 -110 -215 -147 -299 -258 -31 -41 -78 -99 -104 -128 -27 -29 -48
-59 -48 -67 0 -9 -17 -33 -38 -55 -21 -22 -49 -58 -62 -81 -35 -58 -89 -118
-122 -135 -15 -8 -37 -32 -48 -54 -23 -45 -12 -53 18 -15 18 22 52 35 52 19 0
-4 -33 -38 -72 -76 l-73 -70 30 -21 c58 -42 93 -77 98 -98 4 -17 3 -19 -6 -10
-6 6 -18 11 -26 11 -8 0 -28 12 -43 27 l-28 27 0 -23 c0 -16 -4 -21 -15 -17
-21 8 -19 1 10 -30 14 -15 25 -33 25 -40 0 -19 -40 -18 -61 2 -16 15 -35 21
-69 23 -8 1 -26 10 -40 20 -20 16 -22 21 -11 35 17 20 32 21 25 2 -3 -8 -1
-17 5 -21 6 -3 11 -2 11 4 0 6 12 8 29 5 26 -5 30 -3 28 14 -1 17 -6 20 -27
16 -18 -4 -29 1 -38 16 -12 19 -11 20 6 11 11 -6 22 -7 26 -4 10 10 7 45 -4
38 -6 -3 -10 3 -10 13 0 23 -63 57 -83 45 -6 -4 -23 -8 -37 -8 -19 0 -26 -7
-33 -35 -12 -52 4 -89 36 -83 14 3 27 1 31 -5 7 -12 -36 -95 -49 -93 -17 3
-20 -82 -15 -352 l5 -259 28 -24 28 -24 464 0 c394 0 464 2 459 14 -3 8 -21
17 -40 20 -19 4 -34 11 -34 15 0 5 -10 11 -22 15 -19 5 -21 8 -8 16 13 9 13
11 0 19 -10 7 -17 6 -22 -2 -6 -9 -8 -9 -8 0 0 18 -58 33 -126 33 -35 0 -64 4
-64 8 0 12 78 35 90 27 6 -3 10 -2 10 4 0 15 -30 29 -54 24 -19 -3 -19 -3 2 6
12 6 29 8 37 5 9 -4 19 6 30 32 18 43 13 54 -13 31 -22 -20 -38 -22 -46 -4 -5
9 -7 9 -12 0 -3 -7 -18 -13 -32 -13 -25 -1 -26 -2 -9 -14 15 -12 13 -14 -23
-20 -26 -4 -38 -10 -34 -17 4 -6 0 -15 -7 -20 -19 -12 -49 -11 -49 1 0 6 7 10
15 10 8 0 15 7 15 15 0 7 8 18 17 24 27 14 14 20 -61 26 -37 3 -72 7 -76 10
-5 3 -18 0 -28 -6 -15 -10 -27 -9 -58 4 l-39 16 38 0 c20 1 37 6 37 11 0 6 -5
10 -11 10 -8 0 -8 4 -1 13 8 9 3 13 -21 15 -18 1 -41 4 -52 6 -11 3 -27 5 -35
6 -9 1 -7 5 7 10 12 5 32 28 43 52 15 31 35 51 71 73 28 17 53 30 57 30 20 1
52 28 52 44 0 25 114 93 209 126 209 71 397 219 471 369 17 37 35 64 39 62 4
-3 13 11 20 30 9 25 18 34 36 34 12 0 25 -7 29 -15 3 -8 12 -15 21 -15 44 0
116 -69 265 -255 142 -177 239 -277 529 -541 61 -55 75 -73 64 -80 -18 -11
-23 -80 -5 -77 14 3 16 -36 3 -87 -5 -19 -12 -50 -15 -67 l-5 -33 255 0 c206
0 258 3 269 14 12 12 12 15 0 19 -7 3 -15 1 -17 -5 -2 -5 -10 -2 -18 8 -12 14
-12 16 -1 10 9 -6 12 -4 9 5 -3 8 -13 16 -24 18 -19 3 -34 18 -34 34 0 5 5 5
10 2 13 -8 13 -2 -2 30 -6 14 -18 25 -25 25 -8 0 -13 8 -12 18 4 24 -22 62
-43 62 -9 0 -20 4 -23 10 -3 5 -1 10 6 10 7 0 2 11 -11 25 -13 14 -29 25 -37
25 -7 0 -13 9 -13 20 0 11 -4 20 -9 20 -5 0 -13 9 -16 21 -4 12 -12 18 -21 15
-15 -6 -29 10 -16 18 5 3 7 19 4 36 -3 22 -10 30 -24 30 -17 0 -20 5 -15 32 3
21 -1 39 -10 50 -9 11 -12 25 -8 39 l7 22 19 -24 c9 -13 21 -20 26 -16 4 5 0
13 -10 18 -16 10 -21 47 -11 89 3 12 54 28 54 17 0 -1 4 -17 10 -36 8 -30 7
-33 -10 -28 -17 4 -19 -1 -17 -53 2 -70 22 -72 33 -4 7 49 15 53 44 24 25 -25
25 -30 1 -30 -24 0 -31 -19 -17 -42 7 -12 6 -24 -2 -42 -14 -32 -6 -33 18 -4
l18 22 21 -34 c20 -33 21 -34 22 -10 l0 25 10 -25 c6 -14 8 -35 6 -48 -3 -16
-1 -20 8 -12 15 12 25 3 26 -24 0 -20 1 -20 8 -2 7 19 8 19 16 0 4 -10 7 -26
6 -36 -2 -18 15 -32 39 -33 8 0 17 -11 18 -25 5 -32 22 -52 38 -46 14 6 29
-28 19 -44 -3 -5 1 -10 10 -10 8 0 18 -6 21 -14 3 -8 14 -16 25 -19 15 -4 18
-11 14 -29 -6 -24 24 -68 46 -68 7 0 9 -10 5 -26 -7 -25 -5 -26 21 -20 67 17
83 18 83 7 0 -8 46 -11 162 -9 l161 3 13 37 c10 31 10 37 -2 42 -8 3 -14 15
-14 27 0 15 4 19 16 15 20 -8 44 10 44 33 0 9 -16 29 -35 44 -40 32 -46 57
-12 57 22 0 21 1 -3 13 -14 7 -25 19 -25 27 0 8 -4 21 -9 28 -19 31 -14 76 19
158 46 114 65 213 72 374 5 113 3 141 -10 166 -19 38 -33 218 -19 254 9 24 9
24 21 -13 7 -20 10 -41 6 -47 -3 -5 -1 -10 6 -10 8 0 9 11 4 37 -7 33 -11 76
-14 131 -1 7 -5 11 -9 8 -10 -6 1 91 11 101 4 3 7 -7 8 -23 0 -16 6 -44 12
-62 11 -30 13 -31 24 -12 11 16 10 18 -2 14 -10 -4 -16 0 -17 12 -7 85 -6 88
15 48 9 -17 17 -23 21 -15 4 6 3 11 -3 11 -16 0 -23 61 -13 115 l10 50 1 -47
c1 -37 5 -48 17 -48 12 0 15 6 10 23 -10 37 -46 280 -45 307 l1 25 8 -25 c7
-22 8 -20 10 15 l2 40 13 -50 c15 -60 19 -38 5 33 -14 74 -29 202 -55 462 -2
19 -7 55 -10 79 -5 30 -3 41 4 36 14 -8 14 -1 -4 65 -18 68 -18 82 0 50 l13
-25 7 27 c4 15 4 36 0 49 -4 12 -3 24 3 28 7 4 3 26 -10 61 -11 30 -25 73 -30
95 -6 22 -30 81 -54 130 -56 115 -88 212 -104 306 -6 41 -28 126 -47 189 -19
63 -55 189 -79 279 -24 90 -55 188 -68 218 l-25 53 -488 0 -489 0 -32 -32z
m138 -245 c0 -19 -3 -24 -10 -17 -6 6 -8 18 -4 27 9 24 14 21 14 -10z m120
-200 c7 -27 19 -61 27 -76 14 -27 13 -28 -6 -18 -10 6 -22 25 -26 43 -11 56
-16 68 -25 63 -4 -3 -6 4 -3 15 9 32 20 23 33 -27z m170 21 c0 -8 -4 -12 -10
-9 -5 3 -10 10 -10 16 0 5 5 9 10 9 6 0 10 -7 10 -16z m3 -139 l15 -43 -26 -6
c-30 -6 -62 22 -62 55 0 21 16 26 23 7 3 -7 6 -1 6 14 1 41 27 25 44 -27z
m-176 -11 c-3 -3 -12 -4 -19 -1 -8 3 -5 6 6 6 11 1 17 -2 13 -5z m43 -54 c0
-5 -2 -10 -4 -10 -3 0 -8 5 -11 10 -3 6 -1 10 4 10 6 0 11 -4 11 -10z m-183
-112 c-3 -7 -5 -2 -5 12 0 14 2 19 5 13 2 -7 2 -19 0 -25z m238 -946 c0 -6
-15 -22 -33 -36 l-33 -24 30 -22 c37 -26 77 -92 86 -141 8 -43 -9 -113 -37
-152 -12 -16 -38 -42 -60 -57 l-40 -29 34 -14 c28 -12 37 -24 56 -78 12 -35
22 -73 22 -83 0 -20 0 -20 14 0 18 24 33 11 42 -36 6 -29 4 -33 -7 -22 -33 31
-37 -2 -14 -117 9 -40 14 -75 13 -77 -2 -1 -33 14 -68 35 -55 31 -66 42 -74
74 -10 39 -36 51 -36 17 0 -22 -16 -28 -18 -7 0 6 -2 19 -3 27 -5 34 2 71 11
65 10 -6 13 24 10 104 -1 25 3 47 11 51 16 11 3 60 -16 60 -11 0 -15 -12 -15
-45 0 -33 -4 -45 -15 -45 -11 0 -15 11 -15 38 0 37 0 37 -60 53 -41 11 -63 12
-70 5 -12 -12 -13 -195 -1 -215 7 -10 11 -5 16 18 9 42 29 39 48 -6 l15 -38 1
38 c1 39 9 45 29 25 9 -9 12 -9 12 0 0 7 5 12 10 12 6 0 10 -18 10 -40 0 -41
-13 -53 -25 -22 -6 16 -7 16 -16 0 -11 -19 -49 -25 -49 -8 0 6 -7 10 -15 10
-8 0 -15 -4 -15 -8 0 -5 -18 -9 -40 -10 -34 -2 -40 1 -40 18 0 11 -5 20 -11
20 -6 0 -8 -9 -4 -20 8 -25 -10 -27 -24 -2 -10 16 -10 16 -11 0 0 -32 -20 -19
-21 15 -1 28 -2 29 -8 8 -9 -34 -35 -48 -55 -32 -17 15 -22 71 -6 71 6 0 10
-13 10 -30 0 -20 5 -30 15 -30 9 0 15 9 15 25 0 28 -21 40 -158 95 -45 18 -85
36 -88 41 -3 5 21 21 53 35 32 14 105 55 162 92 l103 66 -6 46 c-17 128 85
249 212 250 44 0 51 -7 30 -29 -7 -7 16 7 52 32 64 44 85 52 85 29z m982 -499
c-2 -21 -4 -6 -4 32 0 39 2 55 4 38 2 -18 2 -50 0 -70z m-23 -123 c23 -175 29
-290 16 -290 -7 0 -9 13 -4 36 5 27 4 35 -5 30 -8 -5 -11 8 -11 42 0 27 -7 69
-15 92 -8 23 -15 59 -15 80 0 41 11 132 16 128 1 -2 9 -55 18 -118z m-2164 41
c0 -10 -82 -81 -93 -81 -16 0 9 39 41 62 40 29 52 34 52 19z m1323 -53 c4 -10
8 -9 16 2 16 24 20 8 8 -33 -14 -42 -23 -47 -30 -14 -2 12 -8 30 -12 40 -4 10
-3 17 3 17 6 0 13 -6 15 -12z m960 -29 c-8 -29 -13 -23 -13 14 0 22 3 28 9 18
5 -7 6 -22 4 -32z m-46 -31 c-2 -13 -4 -5 -4 17 -1 22 1 32 4 23 2 -10 2 -28
0 -40z m-2463 -14 c13 -34 -30 -58 -53 -30 -9 11 -8 18 4 30 21 21 41 20 49 0z
m2433 -191 c-3 -10 -5 -4 -5 12 0 17 2 24 5 18 2 -7 2 -21 0 -30z m-2011 -19
c-6 -19 -12 -28 -14 -20 -3 13 14 56 22 56 2 0 -2 -16 -8 -36z m291 -36 c118
-93 178 -142 183 -149 3 -4 22 -21 44 -38 21 -17 62 -52 91 -78 28 -27 63 -57
76 -69 13 -12 31 -30 40 -42 10 -11 25 -25 35 -30 11 -6 15 -14 11 -19 -5 -4
-14 0 -21 10 -7 9 -18 17 -24 17 -6 0 -15 6 -19 13 -4 6 -15 17 -24 22 -29 18
-134 89 -139 95 -3 3 -39 32 -80 65 -41 33 -82 67 -91 75 -10 8 -36 29 -58 45
-22 17 -40 35 -41 42 0 6 -9 14 -19 18 -22 7 -48 65 -29 65 6 0 35 -19 65 -42z
m-875 -41 c2 -20 1 -37 -2 -37 -6 0 -34 42 -32 50 0 3 -6 12 -14 21 -10 12
-11 18 -2 27 17 17 44 -16 50 -61z m338 19 c0 -5 -7 -3 -15 4 -8 7 -15 22 -15
34 1 20 2 20 15 -4 8 -14 14 -29 15 -34z m-413 -28 l-24 -24 -2 50 -2 51 27
-26 26 -26 -25 -25z m-37 -8 c0 -10 -9 -20 -21 -23 -18 -5 -20 -2 -14 16 3 12
7 28 7 34 2 20 28 -6 28 -27z m30 -198 c0 -13 -4 -20 -10 -17 -5 3 -10 21 -10
38 0 24 3 28 10 17 5 -8 10 -25 10 -38z m-169 5 c-10 -9 -11 -8 -5 6 3 10 9
15 12 12 3 -3 0 -11 -7 -18z m1652 -213 c-6 -17 -23 -9 -23 11 0 8 6 12 14 9
8 -3 12 -12 9 -20z m95 4 c-2 -7 3 -12 10 -10 6 1 12 -5 12 -15 0 -9 3 -14 6
-10 3 3 14 -3 25 -14 11 -11 24 -17 29 -14 18 11 50 -6 50 -26 0 -11 5 -30 11
-42 10 -18 9 -23 -9 -35 -17 -11 -19 -18 -11 -38 6 -17 5 -32 -2 -45 -12 -23
-29 -16 -29 11 0 14 -5 18 -17 13 -13 -5 -15 -2 -9 18 4 13 10 41 13 62 5 33
3 37 -15 37 -19 0 -20 -3 -11 -27 7 -20 6 -36 -6 -66 -11 -26 -13 -43 -6 -50
6 -6 5 -14 -4 -23 -19 -19 -35 -17 -35 4 0 21 -33 52 -56 52 -10 0 -12 5 -7
13 4 6 6 20 5 30 -2 10 3 17 12 17 9 0 16 -5 16 -11 0 -5 5 -7 10 -4 6 4 8 16
4 27 -3 11 -1 31 6 44 10 18 10 25 -1 37 -8 7 -20 12 -27 9 -15 -5 -15 -3 -1
37 10 29 42 46 37 19z m-2160 -14 c12 -4 22 -13 22 -20 0 -8 5 -14 11 -14 5 0
8 -4 4 -10 -3 -5 -12 -7 -20 -4 -8 4 -12 11 -8 18 4 6 -1 5 -10 -3 -10 -8 -20
-11 -24 -8 -3 4 -12 2 -20 -4 -16 -14 -16 -9 -3 25 10 28 13 29 48 20z m2137
-64 c4 -6 -3 -25 -14 -43 l-21 -32 0 36 c0 45 18 66 35 39z m-2081 -135 c16
-12 17 -15 4 -15 -8 0 -21 7 -28 15 -16 19 -1 19 24 0z m91 -11 c9 -15 12 -23
6 -20 -11 7 -35 46 -28 46 3 0 12 -12 22 -26z m-95 -94 c6 -11 8 -20 6 -20 -3
0 -10 9 -16 20 -6 11 -8 20 -6 20 3 0 10 -9 16 -20z m2171 -16 c1 -13 2 -34 2
-46 2 -31 -37 -37 -53 -8 -6 11 -8 25 -5 30 3 6 -1 10 -9 10 -9 0 -16 7 -16
15 0 21 27 19 39 -2 9 -15 10 -14 11 9 0 35 29 27 31 -8z m376 -196 c-3 -8 -6
-5 -6 6 -1 11 2 17 5 13 3 -3 4 -12 1 -19z m-2397 -8 c0 -5 -7 -7 -15 -4 -8 4
-15 8 -15 10 0 2 7 4 15 4 8 0 15 -4 15 -10z m240 -150 c11 -7 4 -10 -27 -10
-23 0 -45 5 -48 10 -8 13 55 13 75 0z m2364 -22 c-5 -8 -2 -9 9 -5 9 3 19 1
23 -5 9 -14 -26 -40 -43 -34 -7 3 -13 0 -13 -6 0 -6 -2 -9 -5 -6 -6 5 23 68
31 68 3 0 2 -5 -2 -12z m54 -78 c-11 -18 -28 -27 -28 -16 0 2 -3 11 -6 20 -5
12 0 16 20 16 24 0 25 -2 14 -20z m-2018 -60 c0 -5 -17 -9 -37 -9 -38 1 -38 1
-8 9 43 11 45 11 45 0z"/>
<path d="M2193 2301 c-70 -32 -126 -133 -108 -192 5 -16 12 -19 32 -14 24 6
25 5 18 -35 -4 -26 -3 -46 5 -55 13 -15 4 -39 -11 -30 -5 4 -9 1 -9 -4 0 -19
13 -12 128 69 102 73 112 83 112 112 0 28 -21 57 -42 58 -5 0 -8 -27 -8 -60 0
-47 -3 -60 -15 -60 -12 0 -15 16 -15 85 0 47 3 85 7 85 3 0 28 -14 55 -31 46
-30 48 -33 48 -78 0 -42 -4 -48 -40 -74 -36 -26 -40 -32 -40 -73 0 -50 9 -54
57 -24 110 67 116 238 11 307 l-38 26 -35 -24 -35 -24 0 -95 c0 -80 -3 -97
-17 -106 -10 -5 -35 -20 -56 -33 l-38 -23 3 113 c2 77 7 114 15 116 9 3 13
-21 15 -87 l3 -90 23 15 c20 15 22 24 22 114 0 91 2 100 23 114 l22 16 -25 0
c-14 0 -44 -8 -67 -18z"/>
<path d="M2238 2002 c-21 -15 -38 -30 -38 -34 0 -9 69 -22 76 -15 3 3 4 21 2
40 l-3 35 -37 -26z"/>
<path d="M2092 1853 c-6 -32 -13 -66 -17 -75 -4 -10 -3 -18 2 -18 5 0 14 24
21 53 6 28 14 62 18 75 4 12 2 22 -4 22 -5 0 -14 -26 -20 -57z"/>
<path d="M2330 1674 c0 -14 3 -14 15 -4 8 7 15 14 15 16 0 2 -7 4 -15 4 -8 0
-15 -7 -15 -16z"/>
<path d="M3532 1920 c0 -14 4 -36 8 -50 6 -20 8 -21 8 -5 0 11 -4 34 -8 50 -7
27 -8 27 -8 5z"/>
<path d="M3572 1870 c0 -8 4 -26 8 -40 6 -20 8 -21 8 -5 0 11 -3 29 -8 40 -5
12 -8 14 -8 5z"/>
<path d="M3551 1824 c0 -11 3 -14 6 -6 3 7 2 16 -1 19 -3 4 -6 -2 -5 -13z"/>
<path d="M3593 1730 c0 -25 2 -35 4 -22 2 12 2 32 0 45 -2 12 -4 2 -4 -23z"/>
<path d="M3569 1673 c0 -10 -4 -40 -8 -66 -4 -26 -5 -44 0 -40 9 10 23 123 15
123 -3 0 -6 -8 -7 -17z"/>
<path d="M275 810 c3 -5 8 -10 11 -10 2 0 4 5 4 10 0 6 -5 10 -11 10 -5 0 -7
-4 -4 -10z"/>
<path d="M2545 560 c22 -44 21 -44 28 -26 3 7 -6 24 -20 37 l-26 24 18 -35z"/>
<path d="M505 510 c-8 -13 5 -13 25 0 13 8 13 10 -2 10 -9 0 -20 -4 -23 -10z"/>
<path d="M2277 201 c-4 -17 -3 -21 5 -13 5 5 8 16 6 23 -3 8 -7 3 -11 -10z"/>
<path d="M2260 119 c0 -5 5 -7 10 -4 6 3 10 8 10 11 0 2 -4 4 -10 4 -5 0 -10
-5 -10 -11z"/>
</g>
</svg>
