<svg width="298" height="38" viewBox="0 0 298 38" fill="none" xmlns="http://www.w3.org/2000/svg">
<rect x="0.5" y="0.625488" width="297" height="36" rx="18" fill="white"/>
<rect x="0.5" y="0.625488" width="297" height="36" rx="18" stroke="white"/>
<path d="M24.7812 11.8716C25.5898 11.8716 26.3135 12.106 26.9521 12.5747C27.5908 13.0376 28.0889 13.6997 28.4463 14.561C28.8096 15.4224 28.9941 16.4243 29 17.5669C28.9941 18.7153 28.8096 19.7231 28.4463 20.5903C28.0889 21.4517 27.5908 22.1167 26.9521 22.5854C26.3193 23.0483 25.5957 23.2798 24.7812 23.2798C23.9668 23.2798 23.2373 23.0483 22.5928 22.5854C21.9541 22.1167 21.4531 21.4517 21.0898 20.5903C20.7324 19.7231 20.5566 18.7153 20.5625 17.5669C20.5566 16.4302 20.7324 15.4312 21.0898 14.5698C21.4531 13.7085 21.9541 13.0435 22.5928 12.5747C23.2373 12.106 23.9668 11.8716 24.7812 11.8716ZM24.7812 13.8931C24.3711 13.8931 24.0107 14.0366 23.7002 14.3237C23.3896 14.605 23.1494 15.021 22.9795 15.5718C22.8096 16.1226 22.7246 16.7876 22.7246 17.5669C22.7246 18.3462 22.8096 19.0142 22.9795 19.5708C23.1494 20.1216 23.3896 20.5376 23.7002 20.8188C24.0107 21.1001 24.3711 21.2407 24.7812 21.2407C25.1973 21.2407 25.5605 21.1001 25.8711 20.8188C26.1816 20.5376 26.4219 20.1216 26.5918 19.5708C26.7617 19.02 26.8496 18.3521 26.8555 17.5669C26.8496 16.7876 26.7617 16.1226 26.5918 15.5718C26.4219 15.021 26.1816 14.605 25.8711 14.3237C25.5605 14.0366 25.1973 13.8931 24.7812 13.8931ZM33.0957 16.7759H35.4512V18.6392H33.0957V26.7427H30.8457V10.7466H33.0957V16.7759ZM49.4258 20.3794H47.1758V10.7466H49.4258V20.3794ZM49.4258 26.7427H47.1758V22.8755H38.4219V21.0825H49.4258V26.7427ZM45.4883 13.4712H42.2715C42.2773 14.1216 42.418 14.7515 42.6934 15.3608C42.9746 15.9702 43.3994 16.5151 43.9678 16.9956C44.542 17.4761 45.248 17.8423 46.0859 18.0942L44.9434 19.8345C44.0703 19.5649 43.3145 19.1577 42.6758 18.6128C42.0371 18.0679 41.5332 17.4233 41.1641 16.6792C40.7891 17.4878 40.2734 18.1909 39.6172 18.7886C38.9609 19.3804 38.1758 19.8286 37.2617 20.1333L36.1016 18.3931C36.9453 18.1177 37.6572 17.7251 38.2373 17.2153C38.8232 16.6997 39.2598 16.1196 39.5469 15.4751C39.834 14.8247 39.9805 14.1567 39.9863 13.4712H36.6992V11.6782H45.4883V13.4712ZM124.924 11.8188C125.756 11.813 126.509 11.98 127.183 12.3198C127.862 12.6538 128.393 13.1196 128.773 13.7173C129.16 14.3149 129.354 14.9888 129.354 15.7388C129.354 16.4946 129.16 17.1714 128.773 17.769C128.393 18.3667 127.865 18.8354 127.191 19.1753C126.518 19.5093 125.762 19.6763 124.924 19.6763C124.086 19.6763 123.327 19.5093 122.647 19.1753C121.974 18.8354 121.443 18.3667 121.057 17.769C120.67 17.1714 120.477 16.4946 120.477 15.7388C120.477 14.9888 120.67 14.3149 121.057 13.7173C121.443 13.1196 121.977 12.6538 122.656 12.3198C123.336 11.98 124.092 11.813 124.924 11.8188ZM124.924 13.7524C124.502 13.7524 124.121 13.8315 123.781 13.9897C123.441 14.1479 123.175 14.3794 122.981 14.6841C122.794 14.9829 122.703 15.3345 122.709 15.7388C122.703 16.1489 122.794 16.5034 122.981 16.8022C123.175 17.1011 123.438 17.3296 123.772 17.4878C124.112 17.646 124.496 17.7251 124.924 17.7251C125.352 17.7251 125.732 17.646 126.066 17.4878C126.406 17.3296 126.673 17.1011 126.866 16.8022C127.065 16.5034 127.168 16.1489 127.174 15.7388C127.168 15.3286 127.068 14.9741 126.875 14.6753C126.682 14.3765 126.415 14.1479 126.075 13.9897C125.735 13.8315 125.352 13.7524 124.924 13.7524ZM133.186 26.7778H130.953V10.7466H133.186V26.7778ZM120.688 21.6802C124.443 21.6802 127.561 21.5103 130.039 21.1704L130.215 22.7876C128.645 23.0923 127.042 23.2886 125.407 23.3765C123.772 23.4644 121.994 23.5083 120.072 23.5083L119.809 21.6802H120.688ZM152.891 26.7427H150.658V10.7466H152.891V26.7427ZM140.34 22.2251L143.592 22.1812V20.8276C143.006 20.7222 142.493 20.5347 142.054 20.2651C141.62 19.9956 141.286 19.6616 141.052 19.2632C140.817 18.8589 140.703 18.4106 140.709 17.9185C140.703 17.3267 140.867 16.8052 141.201 16.354C141.535 15.897 142.004 15.5425 142.607 15.2905C143.211 15.0386 143.902 14.9126 144.682 14.9126C145.467 14.9126 146.164 15.0386 146.773 15.2905C147.383 15.5425 147.857 15.897 148.197 16.354C148.537 16.8052 148.707 17.3267 148.707 17.9185C148.707 18.4106 148.587 18.8589 148.347 19.2632C148.112 19.6616 147.775 19.9956 147.336 20.2651C146.902 20.5347 146.393 20.7222 145.807 20.8276V22.1108C147.307 22.0347 148.631 21.9204 149.779 21.7681L149.938 23.4204C148.385 23.6841 146.791 23.8569 145.156 23.939C143.527 24.0151 141.746 24.0532 139.812 24.0532L139.514 22.2251H140.34ZM149.551 14.2798H139.83V12.522H143.592V10.8169H145.824V12.522H149.551V14.2798ZM144.682 16.6177C144.125 16.6177 143.677 16.7349 143.337 16.9692C142.997 17.1978 142.83 17.5142 142.836 17.9185C142.83 18.3286 142.994 18.6479 143.328 18.8765C143.668 19.105 144.119 19.2192 144.682 19.2192C145.256 19.2192 145.713 19.1079 146.053 18.8853C146.393 18.6567 146.562 18.3345 146.562 17.9185C146.562 17.5083 146.39 17.189 146.044 16.9604C145.704 16.7319 145.25 16.6177 144.682 16.6177ZM168.553 22.8403H166.303V21.5747H163.244V20.0454H166.303V10.7642H168.553V22.8403ZM168.904 26.4614H156.986V21.6802H159.219V19.5532C158.129 19.6001 156.793 19.6235 155.211 19.6235L154.947 17.8481C157.01 17.8364 158.864 17.8013 160.511 17.7427C162.157 17.6841 163.725 17.561 165.213 17.3735L165.336 18.9731C164.117 19.1782 162.828 19.3306 161.469 19.4302V22.4712H159.219V24.6685H168.904V26.4614ZM160.15 11.3091C160.918 11.3032 161.604 11.4204 162.207 11.6606C162.811 11.9009 163.282 12.2407 163.622 12.6802C163.968 13.1138 164.141 13.6118 164.141 14.1743C164.141 14.731 163.971 15.2231 163.631 15.6509C163.291 16.0786 162.816 16.4097 162.207 16.644C161.604 16.8726 160.918 16.9868 160.15 16.9868C159.365 16.9868 158.668 16.8726 158.059 16.644C157.449 16.4097 156.975 16.0815 156.635 15.6597C156.295 15.2319 156.125 14.7368 156.125 14.1743C156.125 13.6118 156.292 13.1138 156.626 12.6802C156.966 12.2407 157.44 11.9009 158.05 11.6606C158.665 11.4204 159.365 11.3032 160.15 11.3091ZM160.15 12.9438C159.57 12.9438 159.107 13.0522 158.762 13.269C158.416 13.4858 158.246 13.7876 158.252 14.1743C158.246 14.5552 158.413 14.8511 158.753 15.062C159.099 15.2671 159.564 15.3696 160.15 15.3696C160.701 15.3696 161.146 15.2642 161.486 15.0532C161.832 14.8423 162.008 14.5493 162.014 14.1743C162.008 13.7876 161.832 13.4858 161.486 13.269C161.146 13.0522 160.701 12.9438 160.15 12.9438ZM183.951 26.7778H181.684V10.7466H183.951V26.7778ZM175.268 11.8716C176.07 11.8716 176.788 12.106 177.421 12.5747C178.06 13.0435 178.561 13.7085 178.924 14.5698C179.287 15.4312 179.469 16.4302 179.469 17.5669C179.469 18.7153 179.287 19.7231 178.924 20.5903C178.561 21.4517 178.06 22.1167 177.421 22.5854C176.788 23.0483 176.07 23.2798 175.268 23.2798C174.447 23.2798 173.715 23.0483 173.07 22.5854C172.426 22.1167 171.922 21.4517 171.559 20.5903C171.201 19.7231 171.025 18.7153 171.031 17.5669C171.025 16.4302 171.201 15.4312 171.559 14.5698C171.922 13.7085 172.426 13.0435 173.07 12.5747C173.715 12.106 174.447 11.8716 175.268 11.8716ZM175.268 13.8931C174.852 13.8931 174.485 14.0366 174.169 14.3237C173.858 14.605 173.618 15.021 173.448 15.5718C173.278 16.1226 173.193 16.7876 173.193 17.5669C173.193 18.3521 173.278 19.02 173.448 19.5708C173.618 20.1216 173.858 20.5376 174.169 20.8188C174.485 21.1001 174.852 21.2407 175.268 21.2407C175.678 21.2407 176.035 21.1001 176.34 20.8188C176.645 20.5317 176.882 20.1128 177.052 19.562C177.222 19.0112 177.307 18.3462 177.307 17.5669C177.307 16.7935 177.222 16.1313 177.052 15.5806C176.882 15.0239 176.642 14.605 176.331 14.3237C176.026 14.0366 175.672 13.8931 175.268 13.8931ZM194.568 11.8716C195.377 11.8716 196.101 12.106 196.739 12.5747C197.378 13.0376 197.876 13.6997 198.233 14.561C198.597 15.4224 198.781 16.4243 198.787 17.5669C198.781 18.7153 198.597 19.7231 198.233 20.5903C197.876 21.4517 197.378 22.1167 196.739 22.5854C196.106 23.0483 195.383 23.2798 194.568 23.2798C193.754 23.2798 193.024 23.0483 192.38 22.5854C191.741 22.1167 191.24 21.4517 190.877 20.5903C190.52 19.7231 190.344 18.7153 190.35 17.5669C190.344 16.4302 190.52 15.4312 190.877 14.5698C191.24 13.7085 191.741 13.0435 192.38 12.5747C193.024 12.106 193.754 11.8716 194.568 11.8716ZM194.568 13.8931C194.158 13.8931 193.798 14.0366 193.487 14.3237C193.177 14.605 192.937 15.021 192.767 15.5718C192.597 16.1226 192.512 16.7876 192.512 17.5669C192.512 18.3462 192.597 19.0142 192.767 19.5708C192.937 20.1216 193.177 20.5376 193.487 20.8188C193.798 21.1001 194.158 21.2407 194.568 21.2407C194.984 21.2407 195.348 21.1001 195.658 20.8188C195.969 20.5376 196.209 20.1216 196.379 19.5708C196.549 19.02 196.637 18.3521 196.643 17.5669C196.637 16.7876 196.549 16.1226 196.379 15.5718C196.209 15.021 195.969 14.605 195.658 14.3237C195.348 14.0366 194.984 13.8931 194.568 13.8931ZM202.883 16.7759H205.238V18.6392H202.883V26.7427H200.633V10.7466H202.883V16.7759ZM219.266 26.7427H217.033V10.7466H219.266V26.7427ZM208.895 20.8804C211.268 20.8394 213.547 20.6079 215.732 20.186L216.014 22.0317C213.605 22.5356 211.062 22.7876 208.385 22.7876H208.086H206.68V12.2759H208.895V20.8804ZM234.77 22.436H232.52V10.7642H234.77V22.436ZM235.191 26.4614H224.047V21.311H226.314V24.6685H235.191V26.4614ZM227.51 13.1899C227.504 13.9165 227.633 14.6108 227.896 15.2729C228.166 15.9351 228.579 16.5239 229.136 17.0396C229.698 17.5552 230.404 17.9478 231.254 18.2173L230.111 19.9751C229.232 19.6821 228.477 19.2515 227.844 18.6831C227.211 18.1147 226.713 17.4409 226.35 16.6616C225.98 17.5054 225.471 18.2378 224.82 18.8589C224.17 19.48 223.391 19.9458 222.482 20.2563L221.322 18.481C222.184 18.1938 222.901 17.7749 223.476 17.2241C224.056 16.6733 224.483 16.0522 224.759 15.3608C225.034 14.6636 225.172 13.9399 225.172 13.1899V11.6431H227.51V13.1899ZM249.553 16.8813H251.82V18.7271H249.553V26.7075H247.303V10.7466H249.553V16.8813ZM245.281 12.3813C245.27 14.9302 244.695 17.1831 243.559 19.1401C242.428 21.0913 240.582 22.6938 238.021 23.9478L236.756 22.2251C238.66 21.27 240.122 20.1392 241.142 18.8325C242.167 17.5259 242.785 15.9849 242.996 14.2095H237.67V12.3813H245.281ZM267.131 24.8794H252.488V23.0337H255.758V19.1226C255.125 18.7417 254.636 18.2729 254.29 17.7163C253.944 17.1538 253.771 16.5239 253.771 15.8267C253.771 14.9771 254.029 14.2271 254.545 13.5767C255.061 12.9263 255.772 12.4224 256.681 12.0649C257.595 11.7017 258.629 11.52 259.783 11.52C260.932 11.52 261.96 11.7017 262.868 12.0649C263.782 12.4224 264.5 12.9263 265.021 13.5767C265.543 14.2271 265.807 14.9771 265.812 15.8267C265.807 16.5063 265.634 17.1245 265.294 17.6812C264.96 18.2319 264.488 18.6978 263.879 19.0786V23.0337H267.131V24.8794ZM259.783 13.2954C259.021 13.2954 258.354 13.395 257.779 13.5942C257.211 13.7935 256.769 14.0835 256.452 14.4644C256.142 14.8394 255.986 15.2935 255.986 15.8267C255.986 16.3423 256.142 16.7905 256.452 17.1714C256.769 17.5522 257.214 17.8452 257.788 18.0503C258.362 18.2554 259.027 18.3579 259.783 18.3579C260.533 18.3579 261.195 18.2554 261.77 18.0503C262.344 17.8452 262.789 17.5522 263.105 17.1714C263.428 16.7905 263.592 16.3423 263.598 15.8267C263.592 15.2993 263.431 14.8452 263.114 14.4644C262.798 14.0835 262.353 13.7935 261.778 13.5942C261.204 13.395 260.539 13.2954 259.783 13.2954ZM261.611 23.0337V19.9312C261.008 20.0425 260.398 20.0981 259.783 20.0981C259.127 20.0981 258.523 20.0425 257.973 19.9312V23.0337H261.611ZM270.84 21.1177C270.846 20.4146 270.91 19.8462 271.033 19.4126C271.156 18.9731 271.332 18.6216 271.561 18.3579C271.795 18.0942 272.105 17.8423 272.492 17.6021C272.92 17.3208 273.248 17.0366 273.477 16.7495C273.711 16.4624 273.828 16.1313 273.828 15.7563C273.828 15.4692 273.761 15.2173 273.626 15.0005C273.491 14.7778 273.307 14.605 273.072 14.4819C272.838 14.3589 272.58 14.2974 272.299 14.2974C272.018 14.2974 271.754 14.3589 271.508 14.4819C271.268 14.605 271.071 14.7866 270.919 15.0269C270.772 15.2612 270.693 15.5454 270.682 15.8794H268.186C268.203 15.0825 268.394 14.4116 268.757 13.8667C269.126 13.3159 269.618 12.9058 270.233 12.6362C270.854 12.3608 271.549 12.2231 272.316 12.2231C273.131 12.2231 273.854 12.3608 274.487 12.6362C275.12 12.9116 275.612 13.3101 275.964 13.8315C276.321 14.3472 276.5 14.9595 276.5 15.6685C276.5 16.3599 276.336 16.9517 276.008 17.4438C275.686 17.936 275.217 18.3638 274.602 18.7271C274.256 18.938 273.98 19.1489 273.775 19.3599C273.576 19.5649 273.424 19.8081 273.318 20.0894C273.219 20.3706 273.166 20.7134 273.16 21.1177V21.311H270.84V21.1177ZM272.053 25.2837C271.783 25.2837 271.534 25.2163 271.306 25.0815C271.077 24.9468 270.896 24.7681 270.761 24.5454C270.632 24.3169 270.57 24.0708 270.576 23.8071C270.57 23.5435 270.632 23.3003 270.761 23.0776C270.896 22.855 271.077 22.6792 271.306 22.5503C271.534 22.4155 271.783 22.3481 272.053 22.3481C272.305 22.3481 272.542 22.4155 272.765 22.5503C272.993 22.6792 273.175 22.855 273.31 23.0776C273.444 23.3003 273.512 23.5435 273.512 23.8071C273.512 24.0708 273.444 24.3169 273.31 24.5454C273.175 24.7681 272.993 24.9468 272.765 25.0815C272.542 25.2163 272.305 25.2837 272.053 25.2837Z" fill="black"/>
<path d="M60.4824 25.1255V12.3989H65.0176C66.2891 12.3989 67.3877 12.6538 68.3135 13.1636C69.2393 13.6675 69.9482 14.397 70.4404 15.3521C70.9385 16.3071 71.1875 17.438 71.1875 18.7446C71.1875 20.063 70.9385 21.2026 70.4404 22.1636C69.9424 23.1187 69.2275 23.8511 68.2959 24.3608C67.3643 24.8706 66.2539 25.1255 64.9648 25.1255H60.4824ZM64.8594 22.8579C66.0898 22.8579 67.0127 22.5239 67.6279 21.856C68.2432 21.188 68.5508 20.1509 68.5508 18.7446C68.5508 17.3501 68.2432 16.3218 67.6279 15.6597C67.0186 14.9976 66.1016 14.6665 64.877 14.6665H63.1191V22.8579H64.8594ZM72.5938 22.4536C72.5938 21.4692 72.9248 20.7485 73.5869 20.2915C74.249 19.8345 75.1016 19.5767 76.1445 19.5181C76.7891 19.4771 77.5801 19.436 78.5176 19.395V18.6216C78.5059 18.2231 78.3682 17.9126 78.1045 17.6899C77.8408 17.4673 77.4688 17.356 76.9883 17.356C76.5547 17.356 76.2002 17.4497 75.9248 17.6372C75.6494 17.8247 75.4766 18.0825 75.4062 18.4106H72.9277C72.9805 17.8481 73.1738 17.3442 73.5078 16.8989C73.8477 16.4536 74.3193 16.1021 74.9229 15.8442C75.5264 15.5864 76.2383 15.4575 77.0586 15.4575C77.7852 15.4575 78.4531 15.5718 79.0625 15.8003C79.6777 16.0288 80.1699 16.3862 80.5391 16.8726C80.9141 17.353 81.1016 17.9595 81.1016 18.6919V25.1255H78.6406V23.8071H78.5703C78.3184 24.27 77.958 24.6362 77.4893 24.9058C77.0264 25.1694 76.4551 25.3013 75.7754 25.3013C75.1543 25.3013 74.6035 25.1958 74.123 24.9849C73.6484 24.7681 73.2734 24.4458 72.998 24.0181C72.7285 23.5903 72.5938 23.0688 72.5938 22.4536ZM75.0898 22.3833C75.0898 22.7407 75.2188 23.019 75.4766 23.2183C75.7402 23.4116 76.0859 23.5083 76.5137 23.5083C76.9004 23.5083 77.2461 23.4292 77.5508 23.271C77.8613 23.1128 78.1016 22.896 78.2715 22.6206C78.4414 22.3452 78.5234 22.0435 78.5176 21.7153V21.021C78.2422 21.0269 77.9023 21.0415 77.498 21.0649C77.0938 21.0884 76.7832 21.1118 76.5664 21.1353C76.1094 21.1821 75.749 21.311 75.4854 21.522C75.2217 21.7329 75.0898 22.02 75.0898 22.3833ZM85.6895 25.1255H83.0879V15.5806H85.5664V17.2505H85.6719C85.8945 16.688 86.2549 16.2485 86.7529 15.9321C87.251 15.6157 87.8457 15.4575 88.5371 15.4575C89.1992 15.4575 89.7793 15.6011 90.2773 15.8882C90.7754 16.1753 91.1592 16.5913 91.4287 17.1362C91.6982 17.6753 91.8301 18.311 91.8242 19.0435V25.1255H89.2402V19.5005C89.2402 18.9146 89.0879 18.4546 88.7832 18.1206C88.4785 17.7866 88.0566 17.6196 87.5176 17.6196C86.9609 17.6196 86.5156 17.7954 86.1816 18.147C85.8535 18.4985 85.6895 18.9849 85.6895 19.606V25.1255ZM98.873 17.5317H97.0801V22.1899C97.0801 22.5415 97.1562 22.7876 97.3086 22.9282C97.4609 23.0688 97.6836 23.145 97.9766 23.1567C98.3516 23.1567 98.6973 23.1392 99.0137 23.104V25.1606C98.7031 25.2192 98.2402 25.2485 97.625 25.2485C96.6465 25.2485 95.876 25.0229 95.3135 24.5718C94.751 24.1206 94.4727 23.4497 94.4785 22.5591V17.5317H93.1602V15.5806H94.4785V13.2954H97.0801V15.5806H98.873V17.5317ZM103.32 25.1255H100.719V12.3989H103.25V17.2505H103.355C103.578 16.6821 103.933 16.2427 104.419 15.9321C104.905 15.6157 105.5 15.4575 106.203 15.4575C106.865 15.4575 107.445 15.6011 107.943 15.8882C108.441 16.1753 108.825 16.5884 109.095 17.1274C109.37 17.6665 109.508 18.3052 109.508 19.0435V25.1255H106.906V19.5005C106.906 18.9087 106.754 18.4487 106.449 18.1206C106.15 17.7866 105.729 17.6196 105.184 17.6196C104.82 17.6196 104.498 17.6987 104.217 17.8569C103.936 18.0093 103.716 18.2349 103.558 18.5337C103.399 18.8325 103.32 19.1899 103.32 19.606V25.1255ZM111.512 15.5806H114.113V25.1255H111.512V15.5806ZM112.812 14.3325C112.555 14.3325 112.314 14.2739 112.092 14.1567C111.875 14.0337 111.702 13.8726 111.573 13.6733C111.45 13.4683 111.389 13.2485 111.389 13.0142C111.389 12.7739 111.45 12.5513 111.573 12.3462C111.702 12.1411 111.875 11.98 112.092 11.8628C112.314 11.7397 112.555 11.6782 112.812 11.6782C113.064 11.6782 113.299 11.7397 113.516 11.8628C113.732 11.98 113.902 12.1411 114.025 12.3462C114.154 12.5513 114.219 12.7739 114.219 13.0142C114.219 13.2485 114.154 13.4683 114.025 13.6733C113.902 13.8726 113.732 14.0337 113.516 14.1567C113.299 14.2739 113.064 14.3325 112.812 14.3325Z" fill="white"/>
<path d="M56.2617 11.3763H59.1319C60.9847 11.3763 62.236 11.4598 62.886 11.627C62.886 16.9946 64.0402 12.0688 64.3803 12.4509C64.7205 12.833 64.2224 13.3852 64.3074 13.8568C64.3925 14.3225 65.1457 15.1165 65.1457 16.4897V21.5673C65.1457 22.8688 65.0819 23.7404 64.9544 24.1822C64.8329 24.618 64.6172 24.9613 64.3074 25.212C63.9976 25.4568 63.6149 25.6299 63.1594 25.7314C62.7038 25.827 62.0173 25.8747 61.1001 25.8747H56.2617V11.3763ZM60.0978 13.8568V23.3941C60.6506 23.3941 62.1141 17.626 62.2416 17.4111C62.3692 17.1902 61.3097 22.2568 61.3097 21.2897L62.6629 15.6579C62.6629 15.0011 61.6178 14.4318 61.5557 14.3772C61.4237 14.2612 61.1062 14.0748 60.9543 13.9912C60.8024 13.9016 60.5169 13.8568 60.0978 13.8568Z" fill="url(#paint0_linear_2599_1923)"/>
<path d="M73.6048 11.5464L75.0233 25.8747L73.6048 25.6867L72.9723 17.0449L68.9447 25.6061L65.3283 25.8747L66.1757 21.63L73.6048 11.5464ZM68.5665 21.5673C68.7549 19.7673 71.9169 19.6463 71.7158 17.3103C71.9475 20.0026 68.5665 20.3046 68.5665 21.5673Z" fill="url(#paint1_linear_2599_1923)"/>
<path d="M83.8712 11.3763V25.8747H80.5089L76.2989 14.3772L78.5135 25.8747H75.3061V11.3763H78.5135L82.8267 23.3941L82.3412 14.3772L83.8712 11.3763Z" fill="url(#paint2_linear_2599_1923)"/>
<path d="M92.7738 11.3763V14.2777H89.0812L90.4958 25.8747H86.6598V16.4897L84.3909 14.2777V11.3763H92.7738Z" fill="url(#paint3_linear_2599_1923)"/>
<path d="M102.096 11.3763V25.8747H98.2595L100.418 19.2837L96.0451 21.2724L95.0352 25.8747H93.2753V11.3763H97.1114L96.0451 17.0449L95.6171 19.1918L99.2543 17.753L99.8363 11.3763H102.096Z" fill="url(#paint4_linear_2599_1923)"/>
<path d="M107.107 11.3763L105.978 18.6582L107.107 25.8747H103.271L104.136 18.6582L103.271 11.3763H107.107Z" fill="url(#paint5_linear_2599_1923)"/>
<path d="M116.347 18.2091L112.839 15.7643V14.6897C112.839 14.1882 112.794 13.8688 112.702 13.7315C112.611 13.5942 112.459 13.5255 112.247 13.5255C112.016 13.5255 111.84 13.618 111.718 13.8031C111.603 13.9882 111.545 14.2688 111.545 14.6449C111.545 15.1285 111.612 15.4927 111.746 15.7374C111.873 15.9822 112.481 17.4068 113.076 17.753C114.783 18.7501 115.612 18.4389 116.056 19.0777C116.499 19.7165 116.721 20.7464 116.721 22.1673C116.721 23.2001 116.596 23.9613 116.347 24.4508C116.104 24.9404 115.63 25.3523 114.926 25.6867C114.221 26.015 113.401 26.1792 112.465 26.1792C111.439 26.1792 110.561 25.9882 109.832 25.6061C109.109 25.224 108.635 24.7374 108.411 24.1464C108.186 23.5553 108.074 22.7165 108.074 21.63V18.2091L111.636 20.6807V22.4449C111.636 22.9882 111.685 23.3374 111.782 23.4926C111.885 23.6479 112.065 23.7255 112.32 23.7255C112.575 23.7255 112.763 23.627 112.885 23.4299C113.012 23.2329 113.076 22.9404 113.076 22.5523C113.076 21.6986 112.958 21.1404 112.721 20.8777C112.478 20.615 112.045 19.8068 111.091 19.1918C110.137 18.5709 109.34 18.4897 109.03 18.2091C108.721 17.9285 108.462 17.5404 108.256 17.0449C108.055 16.5494 107.955 15.9165 107.955 15.1464C107.955 14.0359 108.098 13.224 108.383 12.7106C108.675 12.1971 109.143 11.7971 109.787 11.5106C110.431 11.218 111.208 11.0718 112.119 11.0718C113.115 11.0718 113.963 11.23 114.661 11.5464C115.366 11.8628 115.831 12.2628 116.056 12.7464C116.286 13.224 116.402 14.0389 116.402 15.1912L116.347 18.2091Z" fill="url(#paint6_linear_2599_1923)"/>
<defs>
<linearGradient id="paint0_linear_2599_1923" x1="56.2617" y1="18.6255" x2="116.721" y2="18.6255" gradientUnits="userSpaceOnUse">
<stop stop-color="#B30505"/>
<stop offset="1" stop-color="#9819C3"/>
</linearGradient>
<linearGradient id="paint1_linear_2599_1923" x1="56.2617" y1="18.6255" x2="116.721" y2="18.6255" gradientUnits="userSpaceOnUse">
<stop stop-color="#B30505"/>
<stop offset="1" stop-color="#9819C3"/>
</linearGradient>
<linearGradient id="paint2_linear_2599_1923" x1="56.2617" y1="18.6255" x2="116.721" y2="18.6255" gradientUnits="userSpaceOnUse">
<stop stop-color="#B30505"/>
<stop offset="1" stop-color="#9819C3"/>
</linearGradient>
<linearGradient id="paint3_linear_2599_1923" x1="56.2617" y1="18.6255" x2="116.721" y2="18.6255" gradientUnits="userSpaceOnUse">
<stop stop-color="#B30505"/>
<stop offset="1" stop-color="#9819C3"/>
</linearGradient>
<linearGradient id="paint4_linear_2599_1923" x1="56.2617" y1="18.6255" x2="116.721" y2="18.6255" gradientUnits="userSpaceOnUse">
<stop stop-color="#B30505"/>
<stop offset="1" stop-color="#9819C3"/>
</linearGradient>
<linearGradient id="paint5_linear_2599_1923" x1="56.2617" y1="18.6255" x2="116.721" y2="18.6255" gradientUnits="userSpaceOnUse">
<stop stop-color="#B30505"/>
<stop offset="1" stop-color="#9819C3"/>
</linearGradient>
<linearGradient id="paint6_linear_2599_1923" x1="56.2617" y1="18.6255" x2="116.721" y2="18.6255" gradientUnits="userSpaceOnUse">
<stop stop-color="#B30505"/>
<stop offset="1" stop-color="#9819C3"/>
</linearGradient>
</defs>
</svg>
