<svg width="28" height="28" viewBox="0 0 28 28" fill="none" xmlns="http://www.w3.org/2000/svg">
<mask id="mask0_2748_1959" style="mask-type:alpha" maskUnits="userSpaceOnUse" x="0" y="0" width="28" height="28">
<rect width="28" height="28" fill="#D9D9D9"/>
</mask>
<g mask="url(#mask0_2748_1959)">
<path d="M7.72896 19.8986C8.72062 19.1852 9.77286 18.621 10.8857 18.206C11.9985 17.7909 13.2032 17.5833 14.5 17.5833C15.7968 17.5833 17.0015 17.7909 18.1143 18.206C19.2271 18.621 20.2794 19.1852 21.271 19.8986C22.0414 19.1014 22.661 18.1599 23.1298 17.0741C23.5988 15.9881 23.8333 14.7968 23.8333 13.5C23.8333 10.9139 22.9243 8.71181 21.1063 6.89375C19.2882 5.07569 17.0861 4.16667 14.5 4.16667C11.9139 4.16667 9.71181 5.07569 7.89375 6.89375C6.07569 8.71181 5.16667 10.9139 5.16667 13.5C5.16667 14.7968 5.40117 15.9881 5.87017 17.0741C6.33897 18.1599 6.95857 19.1014 7.72896 19.8986ZM14.5006 14.0833C13.5175 14.0833 12.6883 13.7459 12.013 13.071C11.3377 12.396 11 11.567 11 10.5839C11 9.60081 11.3375 8.7716 12.0124 8.09629C12.6873 7.42099 13.5163 7.08333 14.4994 7.08333C15.4825 7.08333 16.3117 7.42079 16.987 8.09571C17.6623 8.77063 18 9.59964 18 10.5827C18 11.5659 17.6625 12.3951 16.9876 13.0704C16.3127 13.7457 15.4837 14.0833 14.5006 14.0833ZM14.5 24C13.0356 24 11.6648 23.7274 10.3875 23.1822C9.11019 22.6369 7.99885 21.8917 7.05346 20.9465C6.10826 20.0012 5.36306 18.8898 4.81783 17.6125C4.27261 16.3352 4 14.9644 4 13.5C4 12.0356 4.27261 10.6648 4.81783 9.3875C5.36306 8.11019 6.10826 6.99885 7.05346 6.05346C7.99885 5.10826 9.11019 4.36305 10.3875 3.81783C11.6648 3.27261 13.0356 3 14.5 3C15.9644 3 17.3352 3.27261 18.6125 3.81783C19.8898 4.36305 21.0012 5.10826 21.9465 6.05346C22.8917 6.99885 23.6369 8.11019 24.1822 9.3875C24.7274 10.6648 25 12.0356 25 13.5C25 14.9644 24.7274 16.3352 24.1822 17.6125C23.6369 18.8898 22.8917 20.0012 21.9465 20.9465C21.0012 21.8917 19.8898 22.6369 18.6125 23.1822C17.3352 23.7274 15.9644 24 14.5 24ZM14.5 22.8333C15.5755 22.8333 16.6337 22.6452 17.6748 22.269C18.7157 21.8929 19.6152 21.378 20.3736 20.7243C19.6152 20.1155 18.738 19.6342 17.7419 19.2805C16.7457 18.9268 15.6651 18.75 14.5 18.75C13.3349 18.75 12.2505 18.9232 11.2467 19.2695C10.2432 19.6158 9.36978 20.1007 8.62642 20.7243C9.38475 21.378 10.2843 21.8929 11.3252 22.269C12.3663 22.6452 13.4245 22.8333 14.5 22.8333ZM14.5 12.9167C15.1551 12.9167 15.7078 12.6916 16.1581 12.2415C16.6083 11.7911 16.8333 11.2384 16.8333 10.5833C16.8333 9.92825 16.6083 9.37554 16.1581 8.92521C15.7078 8.47507 15.1551 8.25 14.5 8.25C13.8449 8.25 13.2922 8.47507 12.8419 8.92521C12.3917 9.37554 12.1667 9.92825 12.1667 10.5833C12.1667 11.2384 12.3917 11.7911 12.8419 12.2415C13.2922 12.6916 13.8449 12.9167 14.5 12.9167Z" fill="white"/>
</g>
</svg>
