<svg width="36" height="24" viewBox="0 0 36 24" fill="none" xmlns="http://www.w3.org/2000/svg">
<g id="icon/&#235;&#167;&#136;&#236;&#157;&#180;&#237;&#142;&#152;&#236;&#157;&#180;&#236;&#167;&#128;">
<g id="account_circle">
<mask id="mask0_18_505" style="mask-type:alpha" maskUnits="userSpaceOnUse" x="15" y="0" width="24" height="24">
<rect id="Bounding box" x="15" width="24" height="24" fill="#D9D9D9"/>
</mask>
<g mask="url(#mask0_18_505)">
<path id="account_circle_2" d="M21.1963 17.4845C22.0463 16.873 22.9482 16.3894 23.902 16.0337C24.8558 15.6779 25.8885 15.5 27 15.5C28.1115 15.5 29.1442 15.6779 30.098 16.0337C31.0518 16.3894 31.9538 16.873 32.8038 17.4845C33.4641 16.8012 33.9952 15.9942 34.397 15.0635C34.799 14.1327 35 13.1115 35 12C35 9.78333 34.2208 7.89583 32.6625 6.3375C31.1042 4.77917 29.2167 4 27 4C24.7833 4 22.8958 4.77917 21.3375 6.3375C19.7792 7.89583 19 9.78333 19 12C19 13.1115 19.201 14.1327 19.603 15.0635C20.0048 15.9942 20.5359 16.8012 21.1963 17.4845ZM27.0005 12.5C26.1578 12.5 25.4471 12.2108 24.8683 11.6323C24.2894 11.0538 24 10.3432 24 9.5005C24 8.65783 24.2892 7.94708 24.8677 7.36825C25.4462 6.78942 26.1568 6.5 26.9995 6.5C27.8422 6.5 28.5529 6.78925 29.1318 7.36775C29.7106 7.94625 30 8.65683 30 9.4995C30 10.3422 29.7107 11.0529 29.1322 11.6318C28.5538 12.2106 27.8432 12.5 27.0005 12.5ZM27 21C25.7448 21 24.5698 20.7663 23.475 20.299C22.3802 19.8317 21.4276 19.1929 20.6173 18.3828C19.8071 17.5724 19.1683 16.6198 18.701 15.525C18.2337 14.4302 18 13.2552 18 12C18 10.7448 18.2337 9.56983 18.701 8.475C19.1683 7.38017 19.8071 6.42758 20.6173 5.61725C21.4276 4.80708 22.3802 4.16833 23.475 3.701C24.5698 3.23367 25.7448 3 27 3C28.2552 3 29.4302 3.23367 30.525 3.701C31.6198 4.16833 32.5724 4.80708 33.3828 5.61725C34.1929 6.42758 34.8317 7.38017 35.299 8.475C35.7663 9.56983 36 10.7448 36 12C36 13.2552 35.7663 14.4302 35.299 15.525C34.8317 16.6198 34.1929 17.5724 33.3828 18.3828C32.5724 19.1929 31.6198 19.8317 30.525 20.299C29.4302 20.7663 28.2552 21 27 21ZM27 20C27.9218 20 28.8289 19.8388 29.7212 19.5163C30.6134 19.1939 31.3845 18.7526 32.0345 18.1923C31.3845 17.6704 30.6326 17.2579 29.7788 16.9548C28.9249 16.6516 27.9987 16.5 27 16.5C26.0013 16.5 25.0718 16.6484 24.2115 16.9453C23.3513 17.2421 22.6027 17.6578 21.9655 18.1923C22.6155 18.7526 23.3866 19.1939 24.2787 19.5163C25.1711 19.8388 26.0782 20 27 20ZM27 11.5C27.5615 11.5 28.0352 11.3071 28.4212 10.9212C28.8071 10.5352 29 10.0615 29 9.5C29 8.9385 28.8071 8.46475 28.4212 8.07875C28.0352 7.69292 27.5615 7.5 27 7.5C26.4385 7.5 25.9648 7.69292 25.5788 8.07875C25.1929 8.46475 25 8.9385 25 9.5C25 10.0615 25.1929 10.5352 25.5788 10.9212C25.9648 11.3071 26.4385 11.5 27 11.5Z" fill="white"/>
</g>
</g>
</g>
</svg>
