<svg xmlns="http://www.w3.org/2000/svg" width="34" height="34" viewBox="0 0 34 35" fill="none">
  <rect x="0.85" y="1.65078" width="32.3" height="32.3" rx="16.15" stroke="#9819C3" stroke-width="1.7"/>
  <path fill-rule="evenodd" clip-rule="evenodd" d="M15.7253 25.3023C15.7253 26.0065 16.2962 26.5773 17.0003 26.5773C17.7045 26.5773 18.2753 26.0065 18.2753 25.3023V19.0768H24.5006C25.2048 19.0768 25.7756 18.5059 25.7756 17.8018C25.7756 17.0976 25.2048 16.5268 24.5006 16.5268H18.2753V10.3023C18.2753 9.59818 17.7045 9.02734 17.0003 9.02734C16.2962 9.02734 15.7253 9.59818 15.7253 10.3023V16.5268H9.50059C8.79642 16.5268 8.22559 17.0976 8.22559 17.8018C8.22559 18.5059 8.79642 19.0768 9.50059 19.0768H15.7253V25.3023Z" fill="#9819C3"/>
</svg>