<svg xmlns="http://www.w3.org/2000/svg" width="30" height="29" viewBox="0 0 30 29" fill="none">
  <path d="M14.0962 0.704016C14.4536 -0.0708555 15.5549 -0.0708555 15.9123 0.704016L19.5649 8.62272C19.7105 8.93853 20.0098 9.15597 20.3552 9.19692L29.015 10.2237C29.8624 10.3242 30.2027 11.3715 29.5762 11.9509L23.1738 17.8717C22.9185 18.1078 22.8041 18.4597 22.8719 18.8008L24.5714 27.354C24.7378 28.191 23.8468 28.8383 23.1022 28.4215L15.4927 24.1621C15.1892 23.9922 14.8193 23.9922 14.5158 24.1621L6.90636 28.4215C6.16175 28.8383 5.27079 28.191 5.4371 27.354L7.13662 18.8008C7.2044 18.4597 7.09009 18.1078 6.83475 17.8717L0.432313 11.9509C-0.194187 11.3715 0.14613 10.3242 0.993523 10.2237L9.65336 9.19692C9.99872 9.15597 10.298 8.93853 10.4437 8.62272L14.0962 0.704016Z" fill="#B30505"/>
</svg>