<svg xmlns="http://www.w3.org/2000/svg" width="180" height="53" viewBox="0 0 180 55" fill="none">
  <mask id="path-1-inside-1_771_1061" fill="white">
    <path fill-rule="evenodd" clip-rule="evenodd" d="M5 0.488281C2.23858 0.488281 0 2.72686 0 5.48828V35.4883C0 38.2497 2.23858 40.4883 5 40.4883H155.084C157.532 43.354 163.211 50.1232 166.259 53.7591C166.885 54.5067 168.099 54.0029 168.02 53.0308L166.993 40.4883H175C177.761 40.4883 180 38.2497 180 35.4883V5.48828C180 2.72686 177.761 0.488281 175 0.488281H5Z"/>
  </mask>
  <path fill-rule="evenodd" clip-rule="evenodd" d="M5 0.488281C2.23858 0.488281 0 2.72686 0 5.48828V35.4883C0 38.2497 2.23858 40.4883 5 40.4883H155.084C157.532 43.354 163.211 50.1232 166.259 53.7591C166.885 54.5067 168.099 54.0029 168.02 53.0308L166.993 40.4883H175C177.761 40.4883 180 38.2497 180 35.4883V5.48828C180 2.72686 177.761 0.488281 175 0.488281H5Z" fill="black"/>
  <path d="M155.084 40.4883L155.845 39.8388L155.545 39.4883H155.084V40.4883ZM166.259 53.7591L165.492 54.4015H165.492L166.259 53.7591ZM168.02 53.0308L169.016 52.9492V52.9492L168.02 53.0308ZM166.993 40.4883V39.4883H165.908L165.996 40.5699L166.993 40.4883ZM1 5.48828C1 3.27914 2.79086 1.48828 5 1.48828V-0.511719C1.68629 -0.511719 -1 2.17457 -1 5.48828H1ZM1 35.4883V5.48828H-1V35.4883H1ZM5 39.4883C2.79086 39.4883 1 37.6974 1 35.4883H-1C-1 38.802 1.68629 41.4883 5 41.4883V39.4883ZM155.084 39.4883H5V41.4883H155.084V39.4883ZM167.025 53.1168C163.979 49.4824 158.296 42.709 155.845 39.8388L154.324 41.1377C156.767 43.999 162.444 50.764 165.492 54.4015L167.025 53.1168ZM167.023 53.1123C167.023 53.1197 167.023 53.124 167.023 53.1255C167.023 53.1271 167.023 53.1269 167.023 53.1253C167.024 53.1215 167.026 53.117 167.029 53.1133C167.031 53.1101 167.032 53.1095 167.03 53.1107C167.029 53.112 167.026 53.1141 167.021 53.116C167.017 53.1178 167.013 53.1184 167.012 53.1186C167.011 53.1187 167.013 53.1183 167.017 53.1193C167.02 53.1198 167.023 53.1206 167.025 53.1217C167.028 53.1229 167.031 53.1241 167.032 53.1252C167.034 53.1262 167.035 53.1267 167.034 53.1259C167.033 53.1251 167.03 53.1224 167.025 53.1168L165.492 54.4015C166.754 55.9067 169.174 54.8797 169.016 52.9492L167.023 53.1123ZM165.996 40.5699L167.023 53.1124L169.016 52.9492L167.99 40.4067L165.996 40.5699ZM175 39.4883H166.993V41.4883H175V39.4883ZM179 35.4883C179 37.6974 177.209 39.4883 175 39.4883V41.4883C178.314 41.4883 181 38.802 181 35.4883H179ZM179 5.48828V35.4883H181V5.48828H179ZM175 1.48828C177.209 1.48828 179 3.27914 179 5.48828H181C181 2.17457 178.314 -0.511719 175 -0.511719V1.48828ZM5 1.48828H175V-0.511719H5V1.48828Z" fill="#00DD0B" mask="url(#path-1-inside-1_771_1061)"/>
</svg>