<svg xmlns="http://www.w3.org/2000/svg" width="18" height="18" viewBox="0 0 19 19" fill="none">
  <path d="M8.48281 13.9922H10.2828V8.59219H8.48281V13.9922ZM9.38281 6.79219C9.63781 6.79219 9.85156 6.70594 10.0241 6.53344C10.1966 6.36094 10.2828 6.14719 10.2828 5.89219C10.2828 5.63719 10.1966 5.42344 10.0241 5.25094C9.85156 5.07844 9.63781 4.99219 9.38281 4.99219C9.12781 4.99219 8.91406 5.07844 8.74156 5.25094C8.56906 5.42344 8.48281 5.63719 8.48281 5.89219C8.48281 6.14719 8.56906 6.36094 8.74156 6.53344C8.91406 6.70594 9.12781 6.79219 9.38281 6.79219ZM9.38281 18.4922C8.13781 18.4922 6.96781 18.2559 5.87281 17.7834C4.77781 17.3109 3.82531 16.6697 3.01531 15.8597C2.20531 15.0497 1.56406 14.0972 1.09156 13.0022C0.619062 11.9072 0.382812 10.7372 0.382812 9.49219C0.382812 8.24719 0.619062 7.07719 1.09156 5.98219C1.56406 4.88719 2.20531 3.93469 3.01531 3.12469C3.82531 2.31469 4.77781 1.67344 5.87281 1.20094C6.96781 0.728437 8.13781 0.492188 9.38281 0.492188C10.6278 0.492188 11.7978 0.728437 12.8928 1.20094C13.9878 1.67344 14.9403 2.31469 15.7503 3.12469C16.5603 3.93469 17.2016 4.88719 17.6741 5.98219C18.1466 7.07719 18.3828 8.24719 18.3828 9.49219C18.3828 10.7372 18.1466 11.9072 17.6741 13.0022C17.2016 14.0972 16.5603 15.0497 15.7503 15.8597C14.9403 16.6697 13.9878 17.3109 12.8928 17.7834C11.7978 18.2559 10.6278 18.4922 9.38281 18.4922ZM9.38281 16.6922C11.3928 16.6922 13.0953 15.9947 14.4903 14.5997C15.8853 13.2047 16.5828 11.5022 16.5828 9.49219C16.5828 7.48219 15.8853 5.77969 14.4903 4.38469C13.0953 2.98969 11.3928 2.29219 9.38281 2.29219C7.37281 2.29219 5.67031 2.98969 4.27531 4.38469C2.88031 5.77969 2.18281 7.48219 2.18281 9.49219C2.18281 11.5022 2.88031 13.2047 4.27531 14.5997C5.67031 15.9947 7.37281 16.6922 9.38281 16.6922Z" fill="#00DD0B"/>
</svg>