<svg xmlns="http://www.w3.org/2000/svg" width="22" height="21" viewBox="0 0 22 21" fill="none">
  <path d="M11.7424 16.6614L11.3531 17.3568L11.7424 16.6614C11.2587 16.3906 10.6691 16.3906 10.1854 16.6614L10.5746 17.3568L10.1854 16.6614L5.0288 19.5478L6.18049 13.7517C6.28852 13.208 6.10631 12.6472 5.69935 12.2709L1.36074 8.25866L7.22907 7.56287C7.77953 7.49761 8.25655 7.15104 8.48872 6.64769L10.9639 1.28157L13.439 6.64769C13.6712 7.15104 14.1482 7.49761 14.6987 7.56287L20.567 8.25866L16.2284 12.2709C15.8214 12.6472 15.6392 13.208 15.7472 13.7517L16.8989 19.5478L11.7424 16.6614Z" stroke="#FEE502" stroke-width="1.59385"/>
</svg>