<svg width="24" height="25" viewBox="0 0 24 25" fill="currentColor" xmlns="http://www.w3.org/2000/svg">
<mask id="mask0_3129_4268" style="mask-type:alpha" maskUnits="userSpaceOnUse" x="0" y="0" width="24" height="25">
<rect y="0.0354004" width="24" height="24" fill="currentColor"/>
</mask>
<g mask="url(#mask0_3129_4268)">
<path d="M5.30775 21.5354C4.80258 21.5354 4.375 21.3604 4.025 21.0104C3.675 20.6604 3.5 20.2328 3.5 19.7277V6.34317C3.5 5.838 3.675 5.41042 4.025 5.06042C4.375 4.71042 4.80258 4.53542 5.30775 4.53542H6.69225V2.42017H8.23075V4.53542H15.8077V2.42017H17.3077V4.53542H18.6923C19.1974 4.53542 19.625 4.71042 19.975 5.06042C20.325 5.41042 20.5 5.838 20.5 6.34317V19.7277C20.5 20.2328 20.325 20.6604 19.975 21.0104C19.625 21.3604 19.1974 21.5354 18.6923 21.5354H5.30775ZM5.30775 20.0354H18.6923C18.7692 20.0354 18.8398 20.0033 18.9038 19.9392C18.9679 19.8752 19 19.8047 19 19.7277V10.3432H5V19.7277C5 19.8047 5.03208 19.8752 5.09625 19.9392C5.16025 20.0033 5.23075 20.0354 5.30775 20.0354ZM5 8.84317H19V6.34317C19 6.26617 18.9679 6.19566 18.9038 6.13166C18.8398 6.0675 18.7692 6.03542 18.6923 6.03542H5.30775C5.23075 6.03542 5.16025 6.0675 5.09625 6.13166C5.03208 6.19566 5 6.26617 5 6.34317V8.84317ZM12 14.1124C11.7552 14.1124 11.5465 14.0262 11.374 13.8537C11.2017 13.6813 11.1155 13.4727 11.1155 13.2277C11.1155 12.9828 11.2017 12.7742 11.374 12.6017C11.5465 12.4293 11.7552 12.3432 12 12.3432C12.2448 12.3432 12.4535 12.4293 12.626 12.6017C12.7983 12.7742 12.8845 12.9828 12.8845 13.2277C12.8845 13.4727 12.7983 13.6813 12.626 13.8537C12.4535 14.0262 12.2448 14.1124 12 14.1124ZM8 14.1124C7.75517 14.1124 7.5465 14.0262 7.374 13.8537C7.20167 13.6813 7.1155 13.4727 7.1155 13.2277C7.1155 12.9828 7.20167 12.7742 7.374 12.6017C7.5465 12.4293 7.75517 12.3432 8 12.3432C8.24483 12.3432 8.4535 12.4293 8.626 12.6017C8.79833 12.7742 8.8845 12.9828 8.8845 13.2277C8.8845 13.4727 8.79833 13.6813 8.626 13.8537C8.4535 14.0262 8.24483 14.1124 8 14.1124ZM16 14.1124C15.7552 14.1124 15.5465 14.0262 15.374 13.8537C15.2017 13.6813 15.1155 13.4727 15.1155 13.2277C15.1155 12.9828 15.2017 12.7742 15.374 12.6017C15.5465 12.4293 15.7552 12.3432 16 12.3432C16.2448 12.3432 16.4535 12.4293 16.626 12.6017C16.7983 12.7742 16.8845 12.9828 16.8845 13.2277C16.8845 13.4727 16.7983 13.6813 16.626 13.8537C16.4535 14.0262 16.2448 14.1124 16 14.1124ZM12 18.0354C11.7552 18.0354 11.5465 17.9492 11.374 17.7767C11.2017 17.6043 11.1155 17.3957 11.1155 17.1509C11.1155 16.9059 11.2017 16.6972 11.374 16.5249C11.5465 16.3524 11.7552 16.2662 12 16.2662C12.2448 16.2662 12.4535 16.3524 12.626 16.5249C12.7983 16.6972 12.8845 16.9059 12.8845 17.1509C12.8845 17.3957 12.7983 17.6043 12.626 17.7767C12.4535 17.9492 12.2448 18.0354 12 18.0354ZM8 18.0354C7.75517 18.0354 7.5465 17.9492 7.374 17.7767C7.20167 17.6043 7.1155 17.3957 7.1155 17.1509C7.1155 16.9059 7.20167 16.6972 7.374 16.5249C7.5465 16.3524 7.75517 16.2662 8 16.2662C8.24483 16.2662 8.4535 16.3524 8.626 16.5249C8.79833 16.6972 8.8845 16.9059 8.8845 17.1509C8.8845 17.3957 8.79833 17.6043 8.626 17.7767C8.4535 17.9492 8.24483 18.0354 8 18.0354ZM16 18.0354C15.7552 18.0354 15.5465 17.9492 15.374 17.7767C15.2017 17.6043 15.1155 17.3957 15.1155 17.1509C15.1155 16.9059 15.2017 16.6972 15.374 16.5249C15.5465 16.3524 15.7552 16.2662 16 16.2662C16.2448 16.2662 16.4535 16.3524 16.626 16.5249C16.7983 16.6972 16.8845 16.9059 16.8845 17.1509C16.8845 17.3957 16.7983 17.6043 16.626 17.7767C16.4535 17.9492 16.2448 18.0354 16 18.0354Z" fill="currentColor"/>
</g>
</svg>
