<svg width="600" height="91" viewBox="0 0 600 91" fill="none" xmlns="http://www.w3.org/2000/svg">
<rect y="0.722046" width="600" height="90" rx="12" fill="#FEE500"/>
<path fill-rule="evenodd" clip-rule="evenodd" d="M44 56.722C53.9411 56.722 62 50.454 62 42.722C62 34.9901 53.9411 28.722 44 28.722C34.0589 28.722 26 34.9901 26 42.722C26 47.2191 28.7261 51.2209 32.9632 53.7823L31.9824 62.8513C31.9641 63.0206 32.1522 63.1339 32.2932 63.0386L41.6852 56.6936C41.7164 56.6725 41.7393 56.6448 41.7539 56.6141C42.4897 56.6854 43.2394 56.722 44 56.722Z" fill="#191919"/>
<path d="M254.645 35.7102C254.635 38.317 254.303 40.6959 253.646 42.8469C252.999 44.998 251.855 47.0032 250.215 48.8625C248.574 50.7219 246.323 52.3534 243.461 53.7571L242.039 51.8157C244.199 50.7584 245.972 49.5735 247.357 48.261C248.743 46.9485 249.814 45.4947 250.57 43.8997L242.559 44.6516L242.176 42.4094L251.363 41.7942C251.719 40.5728 251.947 39.2467 252.047 37.8157H243.461V35.7102H254.645ZM260.988 43.011H264.789V45.1438H260.988V57.6946H258.391V33.2219H260.988V43.011ZM278.844 35.7102C278.835 38.317 278.502 40.6959 277.846 42.8469C277.199 44.998 276.055 47.0032 274.414 48.8625C272.773 50.7219 270.522 52.3534 267.66 53.7571L266.238 51.8157C268.398 50.7584 270.171 49.5735 271.557 48.261C272.942 46.9485 274.013 45.4947 274.77 43.8997L266.758 44.6516L266.375 42.4094L275.562 41.7942C275.918 40.5728 276.146 39.2467 276.246 37.8157H267.66V35.7102H278.844ZM285.188 43.011H288.988V45.1438H285.188V57.6946H282.59V33.2219H285.188V43.011ZM301.457 34.6985C303.198 34.7076 304.752 34.9856 306.119 35.5325C307.495 36.0702 308.571 36.8313 309.346 37.8157C310.12 38.7909 310.508 39.9211 310.508 41.2063C310.508 42.4094 310.18 43.4804 309.523 44.4192C308.876 45.3489 307.965 46.0963 306.789 46.6614C305.622 47.2174 304.273 47.5592 302.742 47.6868V52.4993H312.723V54.6594H290.301V52.4993H300.172V47.6868C298.65 47.5592 297.305 47.2174 296.139 46.6614C294.972 46.0963 294.061 45.3489 293.404 44.4192C292.757 43.4804 292.434 42.4094 292.434 41.2063C292.434 39.9211 292.821 38.7909 293.596 37.8157C294.37 36.8313 295.441 36.0702 296.809 35.5325C298.176 34.9856 299.725 34.7076 301.457 34.6985ZM301.457 36.8313C300.208 36.8222 299.087 36.9999 298.094 37.3645C297.109 37.72 296.339 38.2349 295.783 38.9094C295.227 39.5748 294.949 40.3404 294.949 41.2063C294.949 42.1086 295.227 42.8971 295.783 43.5715C296.339 44.246 297.109 44.7655 298.094 45.1301C299.078 45.4947 300.199 45.6816 301.457 45.6907C302.724 45.6816 303.85 45.4947 304.834 45.1301C305.827 44.7655 306.602 44.246 307.158 43.5715C307.714 42.8971 307.992 42.1086 307.992 41.2063C307.992 40.3404 307.714 39.5748 307.158 38.9094C306.602 38.2349 305.827 37.72 304.834 37.3645C303.84 36.9999 302.715 36.8222 301.457 36.8313ZM336.922 54.7961H314.5V52.6086H324.371V48.3157H317.234V40.5227H331.617V37.0774H317.18V34.9446H334.188V42.6008H319.805V46.1829H334.762V48.3157H326.941V52.6086H336.922V54.7961ZM367.957 54.7961H345.535V52.6086H355.406V48.3157H348.27V40.5227H362.652V37.0774H348.215V34.9446H365.223V42.6008H350.84V46.1829H365.797V48.3157H357.977V52.6086H367.957V54.7961ZM389.148 38.3352C389.148 39.7662 389.13 41.0058 389.094 42.054C389.066 43.1021 388.989 44.3144 388.861 45.6907C388.734 47.0579 388.529 48.5527 388.246 50.175L385.594 49.929C385.895 48.4159 386.118 46.9849 386.264 45.636C386.41 44.287 386.496 43.0885 386.523 42.0403C386.56 40.983 386.578 39.748 386.578 38.3352V37.843H372.141V35.7102H389.148V38.3352ZM392.074 54.2493H369.734V52.0891H392.074V54.2493ZM414.25 51.05H411.652V33.2493H414.25V51.05ZM414.988 57.2024H398.227V49.2454H400.852V55.0969H414.988V57.2024ZM400.961 34.8899C402.182 34.8899 403.285 35.1497 404.27 35.6692C405.263 36.1887 406.042 36.9088 406.607 37.8293C407.182 38.7499 407.469 39.7935 407.469 40.9602C407.469 42.1451 407.182 43.2024 406.607 44.1321C406.042 45.0527 405.263 45.7727 404.27 46.2922C403.285 46.8027 402.182 47.0579 400.961 47.0579C399.74 47.0579 398.632 46.8027 397.639 46.2922C396.645 45.7727 395.861 45.0481 395.287 44.1184C394.713 43.1887 394.426 42.136 394.426 40.9602C394.426 39.7935 394.713 38.7499 395.287 37.8293C395.861 36.9088 396.645 36.1887 397.639 35.6692C398.632 35.1497 399.74 34.8899 400.961 34.8899ZM400.961 37.1594C400.204 37.1594 399.521 37.3235 398.91 37.6516C398.309 37.9706 397.835 38.4172 397.488 38.9915C397.142 39.5657 396.969 40.2219 396.969 40.9602C396.969 41.7167 397.137 42.3866 397.475 42.97C397.821 43.5442 398.295 43.9908 398.896 44.3098C399.507 44.6288 400.195 44.7883 400.961 44.7883C401.708 44.7883 402.383 44.6288 402.984 44.3098C403.586 43.9908 404.06 43.5396 404.406 42.9563C404.753 42.373 404.926 41.7076 404.926 40.9602C404.926 40.231 404.753 39.5793 404.406 39.0051C404.06 38.4218 403.581 37.9706 402.971 37.6516C402.369 37.3235 401.699 37.1594 400.961 37.1594Z" fill="#191919"/>
</svg>
