<svg width="1440" height="150" viewBox="0 0 1440 150" fill="none" xmlns="http://www.w3.org/2000/svg">
<g filter="url(#filter0_d_782_1162)">
<mask id="path-1-outside-1_782_1162" maskUnits="userSpaceOnUse" x="-1" y="-1.77832" width="1442" height="120" fill="black">
<rect fill="white" x="-1" y="-1.77832" width="1442" height="120"/>
<path fill-rule="evenodd" clip-rule="evenodd" d="M0 -0.77832H1440V78.2217V116.5C1437.63 89.9193 1429.57 81.2753 1401.81 78.2217H38.2784C11.6976 80.5958 3.05365 88.6497 0 116.417V78.2217V-0.77832Z"/>
</mask>
<path fill-rule="evenodd" clip-rule="evenodd" d="M0 -0.77832H1440V78.2217V116.5C1437.63 89.9193 1429.57 81.2753 1401.81 78.2217H38.2784C11.6976 80.5958 3.05365 88.6497 0 116.417V78.2217V-0.77832Z" fill="black"/>
<path d="M1440 -0.77832H1441C1441 -1.33061 1440.55 -1.77832 1440 -1.77832V-0.77832ZM0 -0.77832V-1.77832C-0.552285 -1.77832 -1 -1.33061 -1 -0.77832L0 -0.77832ZM1440 116.5L1439 116.589C1439.05 117.122 1439.51 117.523 1440.04 117.499C1440.58 117.475 1441 117.035 1441 116.5H1440ZM1401.81 78.2217L1401.91 77.2277C1401.88 77.2237 1401.84 77.2217 1401.81 77.2217V78.2217ZM38.2784 78.2217V77.2217C38.2487 77.2217 38.219 77.223 38.1894 77.2256L38.2784 78.2217ZM0 116.417H-1C-1 116.948 -0.58496 117.386 -0.0547398 117.415C0.47548 117.444 0.935959 117.054 0.994007 116.526L0 116.417ZM1440 -1.77832H0V0.22168H1440V-1.77832ZM1441 78.2217V-0.77832H1439V78.2217H1441ZM1441 116.5V78.2217H1439V116.5H1441ZM1401.7 79.2157C1415.53 80.7374 1424.19 83.6337 1429.71 89.2402C1435.24 94.8439 1437.82 103.344 1439 116.589L1441 116.411C1439.8 103.075 1437.18 93.963 1431.14 87.8362C1425.1 81.7121 1415.84 78.7596 1401.91 77.2277L1401.7 79.2157ZM38.2784 79.2217H1401.81V77.2217H38.2784V79.2217ZM0.994007 116.526C2.51577 102.689 5.41203 94.0351 11.0185 88.5091C16.6223 82.9857 25.1226 80.4007 38.3673 79.2177L38.1894 77.2256C24.8534 78.4168 15.7414 81.0458 9.61454 87.0847C3.49042 93.1209 0.537881 102.378 -0.994007 116.307L0.994007 116.526ZM-1 78.2217V116.417H1V78.2217H-1ZM-1 -0.77832V78.2217H1V-0.77832H-1Z" fill="#9819C3" mask="url(#path-1-outside-1_782_1162)"/>
</g>
<defs>
<filter id="filter0_d_782_1162" x="-16" y="-1.77832" width="1472" height="151.278" filterUnits="userSpaceOnUse" color-interpolation-filters="sRGB">
<feFlood flood-opacity="0" result="BackgroundImageFix"/>
<feColorMatrix in="SourceAlpha" type="matrix" values="0 0 0 0 0 0 0 0 0 0 0 0 0 0 0 0 0 0 127 0" result="hardAlpha"/>
<feOffset dy="17"/>
<feGaussianBlur stdDeviation="7.5"/>
<feComposite in2="hardAlpha" operator="out"/>
<feColorMatrix type="matrix" values="0 0 0 0 0.596078 0 0 0 0 0.0980392 0 0 0 0 0.764706 0 0 0 0.5 0"/>
<feBlend mode="normal" in2="BackgroundImageFix" result="effect1_dropShadow_782_1162"/>
<feBlend mode="normal" in="SourceGraphic" in2="effect1_dropShadow_782_1162" result="shape"/>
</filter>
</defs>
</svg>


