<svg xmlns="http://www.w3.org/2000/svg" width="61" height="61" viewBox="0 0 61 61" fill="none">
  <mask id="mask0_407_1091" style="mask-type:alpha" maskUnits="userSpaceOnUse" x="0" y="0" width="61" height="61">
    <rect x="0.485107" y="0.875" width="60" height="60" fill="#D9D9D9"/>
  </mask>
  <g mask="url(#mask0_407_1091)">
    <path d="M12.9851 53.375C11.6101 53.375 10.433 52.8854 9.45386 51.9062C8.47469 50.9271 7.98511 49.75 7.98511 48.375V13.375C7.98511 12 8.47469 10.8229 9.45386 9.84375C10.433 8.86458 11.6101 8.375 12.9851 8.375H32.9851V13.375H12.9851V48.375H47.9851V28.375H52.9851V48.375C52.9851 49.75 52.4955 50.9271 51.5164 51.9062C50.5372 52.8854 49.3601 53.375 47.9851 53.375H12.9851ZM15.4851 43.375H45.4851L36.1101 30.875L28.6101 40.875L22.9851 33.375L15.4851 43.375ZM42.9851 23.375V18.375H37.9851V13.375H42.9851V8.375H47.9851V13.375H52.9851V18.375H47.9851V23.375H42.9851Z" fill="#4D4D4D"/>
  </g>
</svg>