<svg width="601" height="91" viewBox="0 0 601 91" fill="none" xmlns="http://www.w3.org/2000/svg">
<rect x="0.5" y="0.722046" width="600" height="90" rx="12" fill="#FEE500"/>
<path fill-rule="evenodd" clip-rule="evenodd" d="M44.5 56.722C54.4411 56.722 62.5 50.454 62.5 42.722C62.5 34.9901 54.4411 28.722 44.5 28.722C34.5589 28.722 26.5 34.9901 26.5 42.722C26.5 47.2191 29.2261 51.2209 33.4632 53.7823L32.4824 62.8513C32.4641 63.0206 32.6522 63.1339 32.7932 63.0386L42.1852 56.6936C42.2164 56.6725 42.2393 56.6448 42.2539 56.6141C42.9897 56.6854 43.7394 56.722 44.5 56.722Z" fill="#191919"/>
<path d="M231.145 35.7102C231.135 38.317 230.803 40.6959 230.146 42.8469C229.499 44.998 228.355 47.0032 226.715 48.8625C225.074 50.7219 222.823 52.3534 219.961 53.7571L218.539 51.8157C220.699 50.7584 222.472 49.5735 223.857 48.261C225.243 46.9485 226.314 45.4947 227.07 43.8997L219.059 44.6516L218.676 42.4094L227.863 41.7942C228.219 40.5728 228.447 39.2467 228.547 37.8157H219.961V35.7102H231.145ZM237.488 43.011H241.289V45.1438H237.488V57.6946H234.891V33.2219H237.488V43.011ZM255.344 35.7102C255.335 38.317 255.002 40.6959 254.346 42.8469C253.699 44.998 252.555 47.0032 250.914 48.8625C249.273 50.7219 247.022 52.3534 244.16 53.7571L242.738 51.8157C244.898 50.7584 246.671 49.5735 248.057 48.261C249.442 46.9485 250.513 45.4947 251.27 43.8997L243.258 44.6516L242.875 42.4094L252.062 41.7942C252.418 40.5728 252.646 39.2467 252.746 37.8157H244.16V35.7102H255.344ZM261.688 43.011H265.488V45.1438H261.688V57.6946H259.09V33.2219H261.688V43.011ZM277.957 34.6985C279.698 34.7076 281.252 34.9856 282.619 35.5325C283.995 36.0702 285.071 36.8313 285.846 37.8157C286.62 38.7909 287.008 39.9211 287.008 41.2063C287.008 42.4094 286.68 43.4804 286.023 44.4192C285.376 45.3489 284.465 46.0963 283.289 46.6614C282.122 47.2174 280.773 47.5592 279.242 47.6868V52.4993H289.223V54.6594H266.801V52.4993H276.672V47.6868C275.15 47.5592 273.805 47.2174 272.639 46.6614C271.472 46.0963 270.561 45.3489 269.904 44.4192C269.257 43.4804 268.934 42.4094 268.934 41.2063C268.934 39.9211 269.321 38.7909 270.096 37.8157C270.87 36.8313 271.941 36.0702 273.309 35.5325C274.676 34.9856 276.225 34.7076 277.957 34.6985ZM277.957 36.8313C276.708 36.8222 275.587 36.9999 274.594 37.3645C273.609 37.72 272.839 38.2349 272.283 38.9094C271.727 39.5748 271.449 40.3404 271.449 41.2063C271.449 42.1086 271.727 42.8971 272.283 43.5715C272.839 44.246 273.609 44.7655 274.594 45.1301C275.578 45.4947 276.699 45.6816 277.957 45.6907C279.224 45.6816 280.35 45.4947 281.334 45.1301C282.327 44.7655 283.102 44.246 283.658 43.5715C284.214 42.8971 284.492 42.1086 284.492 41.2063C284.492 40.3404 284.214 39.5748 283.658 38.9094C283.102 38.2349 282.327 37.72 281.334 37.3645C280.34 36.9999 279.215 36.8222 277.957 36.8313ZM313.422 54.7961H291V52.6086H300.871V48.3157H293.734V40.5227H308.117V37.0774H293.68V34.9446H310.688V42.6008H296.305V46.1829H311.262V48.3157H303.441V52.6086H313.422V54.7961ZM342.297 57.7219H339.699V33.2219H342.297V57.7219ZM322.172 51.05C325.116 51.0318 327.358 50.9999 328.898 50.9543V48.5071C327.941 48.3886 327.107 48.1288 326.396 47.7278C325.686 47.3267 325.139 46.8118 324.756 46.1829C324.373 45.554 324.186 44.843 324.195 44.05C324.186 43.1386 324.428 42.3365 324.92 41.6438C325.412 40.9511 326.109 40.4133 327.012 40.0305C327.914 39.6477 328.953 39.4563 330.129 39.4563C331.314 39.4563 332.362 39.6477 333.273 40.0305C334.194 40.4133 334.905 40.9511 335.406 41.6438C335.917 42.3365 336.172 43.1386 336.172 44.05C336.172 44.8339 335.976 45.5403 335.584 46.1692C335.201 46.789 334.654 47.2994 333.943 47.7004C333.242 48.1015 332.417 48.3658 331.469 48.4934V50.8586C333.875 50.7584 336.117 50.5761 338.195 50.3118L338.387 52.2532C335.971 52.6542 333.483 52.914 330.922 53.0325C328.361 53.151 325.562 53.2102 322.527 53.2102L322.172 51.05ZM337.648 38.2258H322.691V36.1477H328.898V33.2766H331.496V36.1477H337.648V38.2258ZM330.129 41.4797C329.445 41.4797 328.839 41.5891 328.311 41.8079C327.782 42.0175 327.372 42.3183 327.08 42.7102C326.788 43.093 326.647 43.5396 326.656 44.05C326.647 44.5605 326.788 45.0071 327.08 45.3899C327.372 45.7636 327.782 46.0553 328.311 46.2649C328.839 46.4654 329.445 46.5657 330.129 46.5657C330.831 46.5657 331.451 46.4654 331.988 46.2649C332.526 46.0553 332.941 45.7636 333.232 45.3899C333.533 45.0071 333.684 44.5605 333.684 44.05C333.684 43.5396 333.533 43.093 333.232 42.7102C332.932 42.3183 332.512 42.0175 331.975 41.8079C331.437 41.5891 330.822 41.4797 330.129 41.4797ZM366.605 51.8157H364.008V49.4641H359.086V47.6321H364.008V33.2493H366.605V51.8157ZM367.207 57.2024H349.516V50.011H352.086V55.0969H367.207V57.2024ZM346.125 44.4329C349.315 44.4146 352.177 44.3599 354.711 44.2688C357.254 44.1777 359.678 43.9862 361.984 43.6946L362.148 45.554C360.134 45.8821 357.983 46.1191 355.695 46.2649V51.05H353.098V46.4153C351.339 46.4791 349.543 46.511 347.711 46.511H346.453L346.125 44.4329ZM354.137 34.179C355.322 34.179 356.374 34.3612 357.295 34.7258C358.215 35.0813 358.931 35.5872 359.441 36.2434C359.952 36.8905 360.207 37.6425 360.207 38.4993C360.207 39.356 359.952 40.108 359.441 40.7551C358.931 41.3931 358.215 41.8899 357.295 42.2454C356.374 42.5917 355.322 42.7649 354.137 42.7649C352.934 42.7649 351.872 42.5917 350.951 42.2454C350.031 41.8899 349.315 41.3931 348.805 40.7551C348.294 40.108 348.039 39.356 348.039 38.4993C348.039 37.6425 348.294 36.8905 348.805 36.2434C349.315 35.5872 350.031 35.0813 350.951 34.7258C351.872 34.3612 352.934 34.179 354.137 34.179ZM354.137 36.1204C353.417 36.1112 352.779 36.2024 352.223 36.3938C351.667 36.5852 351.238 36.8632 350.938 37.2278C350.637 37.5924 350.491 38.0162 350.5 38.4993C350.491 38.9732 350.637 39.3879 350.938 39.7434C351.238 40.0989 351.662 40.3723 352.209 40.5637C352.765 40.7551 353.408 40.8508 354.137 40.8508C354.839 40.8508 355.458 40.7551 355.996 40.5637C356.543 40.3723 356.967 40.0989 357.268 39.7434C357.577 39.3879 357.737 38.9732 357.746 38.4993C357.737 38.0162 357.577 37.5924 357.268 37.2278C356.967 36.8632 356.543 36.5852 355.996 36.3938C355.458 36.2024 354.839 36.1112 354.137 36.1204ZM389.52 42.9836H393.32V45.1438H389.52V57.6946H386.922V33.2219H389.52V42.9836ZM383.121 35.7922C383.103 39.5292 382.196 42.8834 380.4 45.8547C378.605 48.8261 375.775 51.2688 371.91 53.1829L370.461 51.1594C373.523 49.6282 375.889 47.7597 377.557 45.554C379.234 43.3482 380.204 40.8144 380.469 37.9524H371.691V35.7922H383.121ZM414.949 46.3743H412.352V33.2219H414.949V46.3743ZM401.469 50.3118H412.379V47.55H414.949V57.4211H398.926V47.55H401.469V50.3118ZM412.379 55.2883V52.3625H401.469V55.2883H412.379ZM401.66 34.343C402.9 34.343 404.012 34.5846 404.996 35.0676C405.99 35.5507 406.764 36.2252 407.32 37.0911C407.885 37.9478 408.168 38.9277 408.168 40.0305C408.168 41.1334 407.885 42.1178 407.32 42.9836C406.764 43.8404 405.99 44.5103 404.996 44.9934C404.012 45.4674 402.9 45.6998 401.66 45.6907C400.421 45.6998 399.304 45.4674 398.311 44.9934C397.317 44.5103 396.538 43.8404 395.973 42.9836C395.408 42.1178 395.125 41.1334 395.125 40.0305C395.125 38.9277 395.408 37.9478 395.973 37.0911C396.538 36.2252 397.317 35.5507 398.311 35.0676C399.304 34.5846 400.421 34.343 401.66 34.343ZM401.66 36.5305C400.895 36.5214 400.206 36.6672 399.596 36.968C398.994 37.2597 398.52 37.6744 398.174 38.2122C397.837 38.7408 397.668 39.3469 397.668 40.0305C397.668 40.7232 397.837 41.3385 398.174 41.8762C398.52 42.4049 398.994 42.8196 399.596 43.1204C400.206 43.412 400.895 43.5579 401.66 43.5579C402.417 43.5579 403.096 43.412 403.697 43.1204C404.299 42.8196 404.768 42.4049 405.105 41.8762C405.452 41.3385 405.625 40.7232 405.625 40.0305C405.625 39.3469 405.452 38.7408 405.105 38.2122C404.768 37.6744 404.299 37.2597 403.697 36.968C403.096 36.6672 402.417 36.5214 401.66 36.5305Z" fill="#191919"/>
</svg>
