<svg xmlns="http://www.w3.org/2000/svg" width="50" height="50" viewBox="0 0 70 67" fill="none">
  <path d="M32.5785 2.25368C33.5316 0.187352 36.4684 0.187355 37.4215 2.25368L45.6603 20.1153C46.0487 20.9575 46.8468 21.5373 47.7678 21.6465L67.3011 23.9625C69.5609 24.2305 70.4684 27.0235 68.7977 28.5685L54.3562 41.9236C53.6753 42.5532 53.3704 43.4915 53.5512 44.4011L57.3847 63.6941C57.8282 65.926 55.4523 67.6522 53.4666 66.5407L36.3025 56.933C35.4932 56.48 34.5068 56.48 33.6975 56.933L16.5333 66.5407C14.5477 67.6522 12.1718 65.926 12.6153 63.6941L16.4488 44.4011C16.6296 43.4915 16.3247 42.5532 15.6438 41.9236L1.20229 28.5685C-0.468377 27.0235 0.439135 24.2305 2.69885 23.9625L22.2322 21.6465C23.1532 21.5373 23.9513 20.9575 24.3397 20.1153L32.5785 2.25368Z" fill="#FEE502"/>
</svg>