<svg xmlns="http://www.w3.org/2000/svg" width="50" height="50" viewBox="0 0 70 67" fill="none">
  <path d="M27.4284 21.54L35 5.12478L42.5716 21.54C43.4555 23.4563 45.2716 24.7758 47.3673 25.0243L65.3188 27.1527L52.0468 39.4263C50.4974 40.8592 49.8037 42.9941 50.215 45.064L53.7381 62.7947L37.9639 53.9649C36.1224 52.9342 33.8776 52.9342 32.0361 53.9649L16.2619 62.7947L19.785 45.064C20.1963 42.9941 19.5026 40.8592 17.9532 39.4263L4.68115 27.1527L22.6327 25.0243C24.7284 24.7758 26.5445 23.4563 27.4284 21.54L24.3397 20.1153L27.4284 21.54ZM54.0485 64.357C54.0484 64.3565 54.0483 64.356 54.0482 64.3555L54.0485 64.357ZM55.1265 63.5718C55.127 63.5721 55.1275 63.5724 55.128 63.5727L55.1265 63.5718ZM14.872 63.5727C14.8723 63.5725 14.8727 63.5723 14.873 63.5721L14.872 63.5727Z" stroke="#FEE502" stroke-width="6.8028"/>
</svg>