<?xml version="1.0" standalone="no"?>
<!DOCTYPE svg PUBLIC "-//W3C//DTD SVG 20010904//EN"
 "http://www.w3.org/TR/2001/REC-SVG-20010904/DTD/svg10.dtd">
<svg version="1.0" xmlns="http://www.w3.org/2000/svg"
 width="221.000000pt" height="221.000000pt" viewBox="0 0 221.000000 221.000000"
 preserveAspectRatio="xMidYMid meet">

<g transform="translate(0.000000,221.000000) scale(0.100000,-0.100000)"
fill="#000000" stroke="none">
<path d="M215 2103 c-62 -8 -75 -14 -90 -43 -8 -16 -15 -32 -15 -36 0 -4 33
-4 73 -1 69 6 137 -6 137 -25 0 -4 5 -8 10 -8 6 0 10 8 10 18 0 14 2 15 10 2
10 -17 3 -16 188 -18 242 -3 157 -18 -140 -25 -261 -6 -299 -9 -287 -22 3 -2
158 -1 344 4 187 4 346 6 353 3 7 -2 11 -11 8 -18 -3 -8 -2 -14 3 -14 5 0 11
9 14 20 3 12 14 20 26 20 29 0 26 -16 -8 -50 -64 -65 -59 -156 13 -237 22 -25
56 -31 56 -9 0 8 7 16 15 20 9 3 15 18 15 36 0 27 3 30 24 24 29 -7 85 34 64
47 -14 9 34 31 54 25 7 -3 26 -7 41 -11 25 -5 28 -3 23 13 -8 24 2 52 19 52
23 0 38 -29 37 -73 0 -24 8 -56 19 -75 26 -45 24 -63 -12 -108 -24 -31 -45
-43 -97 -60 -60 -19 -64 -22 -40 -29 14 -4 34 -15 43 -25 14 -15 14 -20 2 -31
-7 -8 -12 -19 -10 -25 2 -6 -3 -17 -12 -24 -18 -15 -19 -11 -5 26 8 20 7 32
-5 50 -15 24 -45 33 -45 14 0 -5 -6 -7 -14 -4 -7 3 -24 -8 -38 -24 -13 -16
-34 -34 -45 -40 -11 -6 -26 -25 -33 -42 -16 -40 -32 -38 -28 3 2 21 8 31 17
29 7 -2 24 7 37 19 31 29 35 108 7 110 -11 0 -13 3 -5 6 6 2 12 12 12 20 0 11
-6 8 -20 -10 -13 -17 -20 -40 -20 -71 0 -54 -10 -58 -40 -16 -12 17 -27 30
-33 30 -7 0 -24 20 -39 45 -31 51 -71 76 -91 56 -9 -9 -9 -16 1 -31 9 -16 9
-18 -2 -14 -8 3 -17 1 -20 -5 -7 -11 29 -25 43 -17 5 4 20 -8 32 -25 20 -28
21 -35 10 -66 -10 -26 -10 -38 -2 -46 18 -18 12 -27 -19 -27 -17 0 -30 5 -30
13 0 9 -3 8 -9 -1 -7 -12 -13 -12 -36 1 l-29 14 23 12 c13 8 35 10 54 5 26 -5
30 -4 21 7 -6 8 -14 26 -18 40 -6 28 -21 38 -71 46 -16 3 -33 10 -37 16 -5 8
-8 6 -8 -5 0 -21 -26 -24 -33 -5 -3 6 -6 2 -6 -10 -1 -12 -5 -25 -11 -28 -5
-3 -10 -16 -11 -28 -1 -19 -2 -18 -14 8 -8 17 -14 44 -15 60 0 23 -3 27 -10
15 -5 -8 -10 -23 -10 -33 0 -11 -9 -30 -20 -44 -29 -37 -25 -63 21 -158 42
-85 43 -97 9 -115 -18 -10 -19 -8 -13 21 4 23 3 30 -5 25 -7 -4 -12 -21 -12
-38 0 -27 3 -30 23 -23 61 19 63 18 86 -21 26 -44 23 -66 -17 -111 l-29 -32
-54 14 c-64 17 -59 17 -59 7 0 -5 23 -14 50 -21 46 -12 69 -31 37 -31 -8 0
-22 -9 -32 -20 -12 -13 -14 -20 -6 -20 7 0 11 -6 8 -12 -2 -7 -13 -12 -23 -10
-13 2 -15 0 -6 -6 10 -7 7 -15 -10 -38 -45 -58 -62 -74 -75 -74 -8 0 -11 -4
-8 -10 3 -5 1 -10 -4 -10 -6 0 -11 -7 -11 -15 0 -21 -68 -125 -83 -125 -8 0
-9 -3 -1 -8 13 -9 34 -112 23 -112 -5 0 -9 -7 -9 -15 0 -8 4 -15 8 -15 4 0 14
-34 21 -77 11 -68 11 -77 -3 -85 -9 -5 -27 -19 -41 -31 l-25 -22 20 -32 c13
-22 25 -31 35 -27 8 4 15 1 15 -5 0 -6 9 -11 21 -11 19 0 19 -1 5 -22 -9 -12
-16 -35 -16 -50 l0 -28 659 0 660 0 -20 59 c-11 33 -27 65 -35 72 -8 6 -14 29
-14 49 0 33 7 44 47 80 26 23 80 77 120 120 90 97 89 110 -6 110 -64 -1 -65
-1 -38 -16 15 -8 27 -20 27 -27 -1 -18 -26 -48 -52 -61 -18 -9 -24 -21 -26
-54 -3 -37 -6 -42 -27 -42 -43 0 -60 -28 -55 -92 1 -16 -2 -28 -7 -28 -16 0
-37 65 -43 130 l-5 65 -52 3 -53 3 0 -40 0 -41 -50 0 -50 0 0 35 0 35 -52 0
c-74 0 -127 17 -137 42 -5 15 -10 18 -15 10 -4 -7 -12 -10 -17 -7 -18 12 -9
22 21 23 17 0 30 -4 30 -9 0 -5 4 -9 10 -9 5 0 7 7 4 15 -4 10 0 15 11 15 12
0 15 -5 11 -16 -4 -10 -1 -14 6 -12 7 3 13 11 13 18 0 7 6 15 13 18 6 2 12 -3
12 -12 0 -9 5 -16 10 -16 6 0 10 9 10 20 0 11 5 20 10 20 6 0 10 -7 10 -15 0
-8 5 -15 10 -15 6 0 10 9 10 20 0 25 17 27 22 2 3 -9 5 33 6 93 l1 110 -47 0
-47 0 -1 70 c0 54 2 63 9 42 8 -26 11 -27 88 -27 70 0 78 2 73 18 -5 16 -5 16
6 0 8 -14 25 -18 65 -18 l55 0 0 -57 c0 -32 -4 -53 -8 -47 -12 18 -50 26 -72
14 -15 -8 -20 -21 -20 -50 0 -22 5 -40 10 -40 6 0 10 7 10 15 0 8 8 15 18 15
14 0 15 -2 2 -10 -11 -7 -5 -10 24 -10 33 0 37 2 26 15 -10 12 -10 15 3 15 9
0 19 -5 22 -10 10 -16 23 -3 44 46 12 25 24 44 28 41 10 -5 43 29 36 37 -4 3
14 15 39 26 30 13 49 29 57 48 10 23 17 28 37 24 21 -4 24 -1 24 24 1 16 6 42
13 58 l12 28 43 -61 c24 -33 47 -62 53 -62 12 -2 28 -6 32 -8 1 -1 20 -4 42
-6 28 -2 34 -1 20 5 -22 9 -20 11 13 15 12 1 22 -1 22 -5 0 -4 12 -16 28 -26
26 -17 26 -17 12 0 -8 10 -15 23 -16 30 -1 6 -7 30 -13 53 -9 33 -9 48 0 65 7
12 12 36 11 53 -1 28 0 29 14 11 8 -11 14 -25 14 -32 0 -7 5 -16 10 -19 7 -5
10 39 8 135 -2 109 -6 143 -17 150 -11 6 -12 12 -4 22 16 20 23 58 16 89 -4
22 -11 29 -29 29 -23 0 -24 3 -18 42 5 30 4 39 -4 34 -7 -4 -12 -15 -12 -25 0
-10 -7 -24 -15 -31 -14 -11 -13 -14 1 -24 9 -7 14 -22 12 -35 l-3 -23 -28 26
c-15 14 -32 26 -37 26 -4 0 -3 16 3 35 6 22 17 35 28 35 9 0 19 9 22 21 3 12
10 18 16 14 6 -3 11 -2 11 4 0 6 -10 15 -21 22 -15 7 -19 8 -15 0 5 -7 -2 -9
-21 -5 -39 8 -63 -32 -46 -77 6 -16 10 -29 7 -29 -5 0 -38 63 -39 75 0 17 -67
55 -97 55 -20 0 -32 -7 -39 -23 -8 -19 -16 -22 -53 -19 -40 4 -44 2 -48 -22
-7 -38 -3 -168 6 -187 5 -12 1 -18 -13 -22 -16 -4 -22 2 -30 27 -13 40 1 155
19 166 19 12 12 17 -31 25 -34 6 -37 5 -47 -24 -6 -17 -15 -31 -21 -31 -21 0
-33 -68 -22 -121 11 -52 14 -115 4 -89 -4 8 -12 20 -19 27 -10 11 -13 10 -17
-5 -2 -9 -2 13 1 49 4 63 3 67 -28 102 -30 34 -36 37 -84 36 -28 -1 -40 -4
-26 -6 14 -2 40 -9 59 -15 30 -9 32 -12 17 -26 -15 -15 -18 -15 -45 1 -16 9
-46 17 -66 17 -26 0 -34 3 -29 13 6 10 4 10 -7 0 -7 -7 -23 -13 -36 -13 -13 0
-40 -16 -62 -35 -33 -30 -40 -33 -51 -20 -12 15 -4 20 22 16 5 0 7 4 5 10 -1
6 13 19 30 29 18 9 39 22 46 29 8 6 17 8 20 4 4 -3 7 1 7 11 0 9 6 16 14 14
15 -3 16 -1 16 30 -1 15 -2 15 -15 -2 -8 -11 -15 -15 -15 -9 0 7 4 14 8 17 5
3 9 19 10 36 0 17 -3 28 -8 25 -4 -2 -13 2 -20 10 -10 12 -9 20 5 41 15 24 19
25 27 11 7 -14 25 -17 89 -17 78 0 80 1 77 23 -3 21 -7 22 -78 19 -91 -3 -124
9 -140 51 -37 97 -66 162 -83 184 -11 13 -16 27 -12 31 4 4 48 6 98 4 135 -4
509 29 531 47 7 6 71 9 163 7 l152 -4 -11 24 c-20 43 -63 54 -211 53 l-136 0
-31 -37 c-27 -31 -28 -32 -11 -5 12 17 21 33 21 35 0 6 -940 9 -950 3 -6 -4
-4 -18 6 -36 8 -17 14 -33 11 -35 -2 -2 -12 14 -22 36 -16 35 -22 40 -52 40
-19 0 -43 -5 -53 -10 -11 -6 -21 -6 -25 -1 -5 9 -357 13 -420 4z m474 -58 l23
-40 -26 28 c-14 15 -26 35 -26 44 0 19 0 19 29 -32z m1391 -604 c5 -11 10 -26
9 -33 0 -10 -2 -10 -6 0 -2 6 -11 12 -19 12 -8 0 -14 9 -14 20 0 25 16 26 30
1z m-753 3 c-3 -3 -12 -4 -19 -1 -8 3 -5 6 6 6 11 1 17 -2 13 -5z m-297 -48
c0 -8 -14 -19 -32 -25 -31 -11 -31 -11 -12 8 10 10 22 17 27 14 4 -2 7 1 7 6
0 6 2 11 5 11 3 0 5 -6 5 -14z m233 -3 c-13 -2 -35 -2 -50 0 -16 2 -5 4 22 4
28 0 40 -2 28 -4z m-618 -46 c-1 -19 4 -27 17 -27 9 0 20 5 23 10 15 24 27 8
23 -28 -3 -21 1 -56 8 -78 20 -58 17 -62 -15 -18 -17 21 -26 41 -20 42 5 2 9
8 9 14 0 6 -7 8 -15 4 -10 -4 -24 10 -44 46 -31 53 -31 72 -3 66 11 -2 17 -13
17 -31z m269 -42 c-3 -6 2 -17 10 -24 14 -11 14 -15 1 -28 -8 -8 -20 -11 -26
-8 -7 5 -10 -11 -8 -51 2 -34 -2 -59 -8 -61 -13 -5 -24 87 -16 128 5 26 3 29
-20 29 -14 0 -27 7 -31 15 -6 17 5 20 20 5 15 -15 44 -2 44 19 0 9 -6 23 -12
31 -7 8 1 2 19 -14 17 -15 29 -34 27 -41z m280 39 c15 -11 12 -12 -25 -7 -51
7 -59 11 -40 23 15 9 35 4 65 -16z m-86 -1 c-2 -14 5 -19 34 -21 20 -2 42 -9
48 -17 9 -11 6 -13 -19 -10 -17 2 -33 0 -36 -6 -11 -16 -32 -10 -43 14 -10 20
-11 19 -11 -15 -1 -26 -6 -38 -15 -38 -8 0 -21 -3 -29 -6 -10 -3 -17 4 -21 21
-11 42 2 62 47 78 23 8 43 15 45 16 2 0 2 -7 0 -16z m-255 0 c-7 -2 -19 -2
-25 0 -7 3 -2 5 12 5 14 0 19 -2 13 -5z m-57 -120 c11 -12 12 -19 4 -27 -16
-16 -40 20 -39 58 0 29 1 30 10 8 5 -13 16 -30 25 -39z m747 -20 c-10 -15 -13
-34 -9 -53 6 -31 -4 -39 -22 -17 -6 8 -5 28 4 62 7 28 13 54 14 59 0 6 6 1 14
-9 12 -16 12 -22 -1 -42z m-584 -7 c-9 -8 -10 -7 -5 7 3 10 7 24 7 30 1 7 3 4
6 -7 3 -10 -1 -23 -8 -30z m645 -25 c14 -15 16 -28 10 -53 -4 -18 -6 -49 -5
-69 1 -23 -3 -39 -12 -42 -11 -4 -13 11 -13 72 1 42 -3 84 -8 94 -11 23 6 22
28 -2z m-574 -136 c0 -84 0 -85 -25 -85 -24 0 -25 3 -25 56 0 51 -2 55 -22 52
-34 -5 -35 27 -1 45 15 8 38 15 51 16 21 1 22 -2 22 -84z m119 43 l19 -43 11
30 c6 17 14 36 16 43 2 6 20 12 40 12 l35 0 0 -85 c0 -84 0 -85 -25 -85 -26 0
-29 7 -27 65 1 27 -1 25 -20 -17 -24 -56 -53 -64 -68 -20 -6 15 -15 36 -20 47
-10 19 -10 19 -5 -2 10 -38 -5 -74 -29 -71 -19 3 -21 10 -23 73 -1 39 0 76 2
83 3 6 20 12 40 12 33 0 38 -4 54 -42z m378 10 c0 -7 4 -22 8 -33 6 -17 4 -16
-15 4 -16 19 -18 26 -8 32 7 5 13 9 14 9 0 0 1 -6 1 -12z m181 -21 c4 -18 -23
-24 -33 -7 -3 6 1 7 9 4 17 -7 22 11 6 19 -6 3 -5 4 2 3 7 -1 14 -10 16 -19z
m-788 -59 c0 -5 -7 -8 -14 -5 -9 4 -17 -2 -21 -14 -4 -11 -9 -18 -12 -15 -9 9
27 57 37 51 6 -4 10 -11 10 -17z m599 -7 c6 -10 10 -38 10 -62 0 -24 2 -73 5
-109 4 -56 4 -58 -3 -19 -5 26 -16 58 -26 72 -11 18 -13 27 -5 32 6 4 9 14 6
22 -3 8 -1 11 4 8 16 -10 11 21 -5 35 -17 14 -20 40 -5 40 5 0 14 -8 19 -19z
m198 13 c-3 -3 -12 -4 -19 -1 -8 3 -5 6 6 6 11 1 17 -2 13 -5z m-812 -94 c-3
-4 -13 -10 -24 -13 -14 -3 -19 0 -18 12 1 13 8 16 24 13 12 -2 21 -8 18 -12z
m332 -12 c-3 -8 -6 -5 -6 6 -1 11 2 17 5 13 3 -3 4 -12 1 -19z m-88 -58 c-2
-14 7 -41 19 -60 22 -35 27 -55 23 -97 -1 -13 4 -23 11 -23 9 0 10 -2 2 -8 -6
-4 -21 -25 -33 -47 -12 -22 -26 -41 -31 -41 -6 -1 -11 -3 -12 -4 -3 -3 -19 -5
-78 -13 -23 -3 -36 -10 -38 -22 -3 -14 1 -16 22 -11 20 5 26 3 26 -10 0 -8 -6
-14 -12 -12 -22 8 -38 -19 -38 -61 l0 -41 -48 0 -49 0 -1 72 c-1 39 -6 74 -11
77 -4 3 -11 22 -15 41 -7 35 -7 35 8 10 15 -24 15 -22 16 42 0 44 -4 68 -12
71 -10 4 -10 7 -1 14 6 5 13 33 15 63 l3 55 73 3 c40 2 88 -1 107 -7 l35 -9 1
46 c0 41 1 44 10 22 6 -13 9 -36 8 -50z m98 18 c-3 -8 -6 -5 -6 6 -1 11 2 17
5 13 3 -3 4 -12 1 -19z m-380 -45 c-3 -10 -5 -4 -5 12 0 17 2 24 5 18 2 -7 2
-21 0 -30z m-83 -50 c8 -37 19 -69 24 -71 5 -1 7 -13 5 -25 -2 -12 12 -79 31
-149 l34 -128 -53 0 -54 0 -7 45 -6 45 -49 0 -49 0 -11 -45 c-12 -48 -8 -46
-100 -49 -15 -1 -36 -13 -51 -31 l-26 -29 -6 32 c-5 22 0 54 18 108 14 42 26
92 26 110 0 19 5 34 12 34 6 0 9 3 5 6 -6 7 35 44 69 62 15 8 26 28 34 64 21
94 15 88 80 88 l58 0 16 -67z m83 -30 c-3 -10 -5 -2 -5 17 0 19 2 27 5 18 2
-10 2 -26 0 -35z m10 -60 c-3 -10 -5 -4 -5 12 0 17 2 24 5 18 2 -7 2 -21 0
-30z m403 -68 c0 -8 -4 -15 -10 -15 -5 0 -10 7 -10 15 0 8 5 15 10 15 6 0 10
-7 10 -15z m-40 -10 c0 -8 -4 -15 -10 -15 -5 0 -10 7 -10 15 0 8 5 15 10 15 6
0 10 -7 10 -15z m-40 -10 c0 -8 -4 -15 -10 -15 -5 0 -10 7 -10 15 0 8 5 15 10
15 6 0 10 -7 10 -15z m-733 -291 c-3 -3 -12 -4 -19 -1 -8 3 -5 6 6 6 11 1 17
-2 13 -5z m1078 -35 c5 -7 -7 -9 -35 -5 -56 6 -63 16 -12 16 22 0 44 -5 47
-11z"/>
<path d="M896 1277 c3 -10 9 -15 12 -12 3 3 0 11 -7 18 -10 9 -11 8 -5 -6z"/>
<path d="M1035 1310 c-3 -5 1 -10 9 -10 9 0 16 5 16 10 0 6 -4 10 -9 10 -6 0
-13 -4 -16 -10z"/>
<path d="M1010 706 l0 -66 30 0 c34 0 33 -3 16 70 -8 37 -18 56 -29 58 -15 3
-17 -6 -17 -62z"/>
<path d="M1065 724 c18 -61 25 -66 25 -18 0 37 -13 64 -32 64 -4 0 -1 -21 7
-46z"/>
<path d="M692 668 c-8 -42 -7 -58 4 -80 15 -28 44 -39 44 -15 -1 20 -27 138
-32 143 -3 2 -10 -19 -16 -48z"/>
<path d="M1712 1693 c2 -10 10 -18 18 -18 8 0 16 8 18 18 2 12 -3 17 -18 17
-15 0 -20 -5 -18 -17z"/>
<path d="M1012 1618 c-21 -21 -14 -38 16 -38 25 1 26 2 8 15 -10 7 -15 18 -11
24 8 15 2 14 -13 -1z"/>
<path d="M1319 1588 c-11 -7 -11 -11 -1 -15 6 -2 12 -12 12 -21 0 -12 3 -13
12 -4 7 7 20 12 30 12 28 0 21 17 -11 28 -18 6 -33 7 -42 0z"/>
<path d="M307 1571 c-16 -16 -16 -20 -2 -31 12 -10 15 -10 15 1 0 9 3 10 8 3
4 -6 14 -14 22 -17 9 -3 5 -6 -11 -6 -15 -1 -32 -7 -38 -15 -19 -22 -93 -13
-105 13 -5 11 -17 23 -27 26 -11 3 -28 8 -39 11 -18 5 -20 1 -20 -39 0 -30 6
-49 19 -61 21 -19 32 -49 22 -62 -3 -5 -15 -14 -26 -20 -19 -11 -20 -20 -17
-239 3 -180 7 -231 18 -242 8 -8 14 -18 14 -23 0 -5 16 -25 37 -45 42 -41 95
-49 113 -16 7 13 7 22 0 26 -7 4 -7 12 0 25 15 29 12 34 -12 18 -33 -21 -67
-5 -64 31 4 53 39 151 54 151 11 0 13 7 8 28 -18 72 -19 82 -2 82 18 0 18 1
21 -65 1 -27 -2 -55 -7 -62 -5 -6 -5 -14 0 -17 5 -3 8 -19 6 -36 -3 -21 2 -32
16 -40 11 -6 20 -7 20 -3 1 4 7 -3 14 -16 11 -19 14 -21 19 -7 4 9 2 16 -4 16
-5 0 0 18 11 40 11 21 20 47 20 57 0 23 -27 63 -43 63 -7 0 -6 -4 3 -10 13 -8
12 -10 -2 -10 -11 0 -18 8 -18 20 0 14 5 18 17 13 10 -4 14 -2 9 5 -3 6 3 17
14 25 21 14 21 14 -2 20 -13 4 -25 2 -26 -4 -2 -5 -18 10 -35 33 -25 33 -39
43 -60 43 -15 0 -32 -7 -37 -15 -5 -8 -10 -11 -10 -6 0 5 -7 3 -15 -4 -16 -13
-18 -8 -9 28 4 12 14 22 24 22 22 0 30 19 18 42 -6 13 -2 27 14 49 l23 31 14
-56 c14 -61 24 -67 51 -34 15 19 20 20 34 9 14 -12 18 -9 31 20 8 19 14 30 15
24 0 -14 24 13 26 32 2 9 -4 26 -12 37 -8 11 -14 26 -14 33 0 6 -5 24 -12 40
-13 33 -14 39 -17 78 -1 21 -4 26 -10 16 -6 -9 -11 -10 -15 -2 -10 15 -18 13
-39 -8z m20 -157 c19 -13 9 -34 -17 -34 -21 0 -40 42 -21 48 6 2 9 8 5 13 -3
5 -2 15 3 22 5 8 9 4 11 -13 2 -13 11 -29 19 -36z m-69 -19 c-3 -3 -9 2 -12
12 -6 14 -5 15 5 6 7 -7 10 -15 7 -18z m32 -196 c0 -5 -15 -9 -32 -9 l-33 0
25 14 c26 13 40 12 40 -5z m-152 -61 c-6 -18 -13 -27 -15 -21 -4 11 13 53 22
53 2 0 -1 -15 -7 -32z"/>
<path d="M1335 1512 c-10 -7 -18 -32 -10 -32 2 0 9 9 15 20 12 22 11 24 -5 12z"/>
<path d="M500 1280 c0 -5 5 -10 11 -10 5 0 7 5 4 10 -3 6 -8 10 -11 10 -2 0
-4 -4 -4 -10z"/>
<path d="M302 1229 c2 -6 8 -10 13 -10 5 0 11 4 13 10 2 6 -4 11 -13 11 -9 0
-15 -5 -13 -11z"/>
<path d="M375 1230 c-3 -5 -1 -10 4 -10 6 0 11 5 11 10 0 6 -2 10 -4 10 -3 0
-8 -4 -11 -10z"/>
<path d="M400 1190 c0 -5 5 -10 11 -10 5 0 7 5 4 10 -3 6 -8 10 -11 10 -2 0
-4 -4 -4 -10z"/>
<path d="M325 1180 c3 -5 8 -10 11 -10 2 0 4 5 4 10 0 6 -5 10 -11 10 -5 0 -7
-4 -4 -10z"/>
<path d="M447 1169 c7 -7 15 -10 18 -7 3 3 -2 9 -12 12 -14 6 -15 5 -6 -5z"/>
<path d="M403 983 c-15 -5 -17 -23 -4 -23 5 0 11 7 15 15 3 8 4 15 3 14 -1 0
-8 -3 -14 -6z"/>
<path d="M278 923 c7 -3 16 -2 19 1 4 3 -2 6 -13 5 -11 0 -14 -3 -6 -6z"/>
<path d="M250 901 c0 -17 18 -21 24 -6 3 9 0 15 -9 15 -8 0 -15 -4 -15 -9z"/>
<path d="M368 853 c7 -3 16 -2 19 1 4 3 -2 6 -13 5 -11 0 -14 -3 -6 -6z"/>
<path d="M2053 833 c-13 -2 -23 -8 -23 -12 0 -5 11 -6 25 -3 14 2 25 8 25 13
0 5 -1 8 -2 8 -2 -1 -13 -4 -25 -6z"/>
<path d="M314 753 c-5 -19 -10 -20 -32 -12 -15 6 -29 6 -34 1 -11 -11 8 -26
31 -27 8 0 16 -6 19 -14 3 -9 0 -11 -8 -6 -14 9 -62 -14 -54 -27 10 -16 -16
-7 -42 15 -41 34 -52 46 -57 59 -12 28 -27 -17 -20 -57 4 -22 6 -50 6 -62 -1
-13 3 -23 9 -23 5 0 6 -4 3 -10 -3 -5 1 -10 9 -10 9 0 16 4 16 9 0 5 12 11 28
13 15 2 26 8 24 16 -1 7 9 12 25 13 l28 1 -25 7 c-25 7 -25 7 -3 15 13 4 22
13 20 19 -1 7 9 12 23 12 17 0 25 6 25 17 0 10 8 23 17 30 13 9 15 17 8 28 -8
13 -11 11 -16 -7z"/>
<path d="M218 703 c7 -3 16 -2 19 1 4 3 -2 6 -13 5 -11 0 -14 -3 -6 -6z"/>
<path d="M1471 662 c-43 -4 -61 -23 -60 -59 2 -23 2 -24 6 -5 5 26 23 30 24 5
0 -13 4 -12 12 7 7 14 18 26 25 28 8 1 11 -2 7 -8 -3 -5 3 -10 13 -10 21 0 37
37 18 42 -6 2 -26 2 -45 0z"/>
<path d="M170 581 c-53 -18 -55 -19 -48 -26 3 -3 24 2 48 10 51 18 58 19 42 3
-7 -7 -12 -15 -12 -20 0 -12 28 2 34 17 9 25 -18 32 -64 16z"/>
<path d="M2082 323 c-8 -21 -8 -43 2 -88 l14 -60 1 88 c1 48 -1 87 -3 87 -2 0
-8 -12 -14 -27z"/>
</g>
</svg>
