<?xml version="1.0" standalone="no"?>
<!DOCTYPE svg PUBLIC "-//W3C//DTD SVG 20010904//EN"
 "http://www.w3.org/TR/2001/REC-SVG-20010904/DTD/svg10.dtd">
<svg version="1.0" xmlns="http://www.w3.org/2000/svg"
 width="221.000000pt" height="221.000000pt" viewBox="0 0 221.000000 221.000000"
 preserveAspectRatio="xMidYMid meet">

<g transform="translate(0.000000,221.000000) scale(0.100000,-0.100000)"
fill="#000000" stroke="none">
<path d="M174 2100 c-56 -17 -63 -41 -64 -206 -1 -215 -1 -224 10 -224 18 0
32 40 19 56 -10 12 -5 14 28 14 69 0 104 -57 133 -217 24 -126 24 -128 8 -115
-8 5 -22 6 -34 2 -19 -8 -20 -15 -18 -120 2 -81 7 -118 18 -136 21 -31 21 -64
0 -64 -12 0 -15 -6 -10 -24 8 -33 -4 -39 -88 -42 l-71 -2 0 -363 c0 -462 2
-494 39 -525 l27 -24 935 0 936 0 29 30 30 30 -3 302 c-3 289 -4 304 -24 336
-12 19 -31 40 -42 48 -11 7 -28 38 -37 68 -16 50 -16 55 0 87 22 42 32 49 73
49 l32 0 0 406 0 407 -87 -6 c-70 -4 -82 -3 -61 5 14 6 29 19 31 29 3 12 22
21 61 29 l56 11 0 48 c0 59 -15 80 -60 81 -59 2 -705 -38 -880 -54 -91 -9
-265 -21 -387 -27 -210 -12 -224 -11 -243 6 -25 23 -16 38 20 30 22 -5 31 -2
39 13 6 11 30 29 53 40 l43 21 -145 1 c-80 0 -188 2 -240 5 -52 2 -109 0 -126
-5z m1394 -210 c122 0 133 -2 130 -17 -4 -20 -41 -25 -260 -38 l-118 -7 0 -64
c0 -58 2 -64 20 -64 46 0 30 -74 -20 -91 -16 -6 -30 -15 -30 -21 0 -6 7 -8 15
-4 13 4 15 -8 15 -75 0 -66 -3 -80 -14 -76 -8 3 -17 -1 -20 -9 -3 -8 -15 -14
-26 -14 -31 0 -97 -66 -125 -126 -25 -53 -40 -160 -23 -170 4 -3 8 21 8 54 0
117 84 222 188 237 49 6 160 -8 173 -23 4 -4 9 -37 12 -74 4 -54 2 -68 -11
-73 -17 -6 -15 -9 -32 33 -17 43 -45 62 -92 62 -46 0 -94 -40 -103 -85 -5 -26
-3 -24 13 11 19 39 43 59 56 47 3 -4 6 -22 6 -40 0 -19 5 -44 11 -55 8 -15 8
-26 -1 -43 -7 -13 -10 -29 -7 -37 3 -7 6 -2 6 11 1 17 5 22 17 17 9 -3 54 -6
100 -6 67 0 84 -3 84 -15 0 -8 -9 -19 -20 -25 -18 -9 -20 -21 -20 -94 l0 -84
-32 -12 c-53 -18 -160 -24 -202 -10 -50 16 -105 66 -127 115 -10 22 -19 33
-19 25 0 -8 9 -29 19 -47 22 -36 19 -43 -22 -43 -28 0 -29 1 -24 43 4 27 0 18
-11 -25 l-16 -68 -59 0 c-50 0 -58 -2 -48 -14 14 -17 11 -88 -3 -98 -6 -5 -2
-8 10 -8 19 0 20 -5 16 -60 -3 -40 -1 -60 7 -60 6 0 11 -6 11 -14 0 -7 -10
-13 -22 -12 -20 1 -23 6 -20 34 3 23 -1 32 -12 34 -9 0 -21 1 -28 2 -7 1 -12
-12 -13 -28 0 -16 -4 -31 -10 -33 -6 -2 -10 25 -10 67 0 53 4 70 15 74 8 2 1
4 -15 3 -42 -1 -60 10 -44 29 9 11 9 14 0 14 -7 0 -19 6 -27 14 -7 8 -19 17
-26 19 -10 4 -8 10 6 21 17 14 15 15 -25 18 -36 2 -44 7 -44 23 0 13 8 21 22
23 29 4 35 46 31 232 -3 139 -4 145 -25 155 -13 5 -23 18 -23 27 0 16 13 18
144 18 92 0 147 4 151 11 4 6 0 9 -11 7 -26 -5 -37 52 -30 160 5 91 26 151 51
153 5 0 30 2 54 4 25 2 65 0 89 -4 38 -8 45 -6 57 13 8 11 15 49 17 83 2 51 6
63 20 63 9 0 20 5 24 11 5 8 28 10 73 5 36 -3 126 -6 199 -6z m-551 -47 c-3
-10 -5 -4 -5 12 0 17 2 24 5 18 2 -7 2 -21 0 -30z m807 -15 c3 -29 8 -128 12
-219 6 -171 1 -196 -31 -169 -8 6 -19 9 -24 5 -7 -4 -8 1 -4 11 5 13 2 16 -9
12 -17 -7 -47 37 -33 49 4 5 10 2 12 -4 3 -7 13 -13 23 -13 10 0 22 -5 26 -12
9 -14 34 18 34 44 0 28 -37 58 -70 58 l-30 0 0 139 c0 102 -3 141 -12 144 -7
3 13 6 44 6 l57 1 5 -52z m-742 0 c-3 -14 -2 -19 6 -14 7 4 12 1 12 -8 0 -9
-4 -16 -9 -16 -12 0 -24 37 -16 50 10 16 13 11 7 -12z m74 -36 c-12 -11 -18 7
-10 30 l8 23 4 -23 c2 -13 1 -26 -2 -30z m-325 -13 c19 -10 20 -19 17 -171 -2
-88 -7 -162 -11 -165 -5 -3 -8 35 -6 83 3 150 4 147 -31 142 l-30 -5 0 61 c0
37 4 56 9 48 7 -11 9 -11 14 2 7 19 12 19 38 5z m229 -9 c0 -5 -5 -10 -11 -10
-5 0 -7 5 -4 10 3 6 8 10 11 10 2 0 4 -4 4 -10z m-271 -270 c0 -19 -4 -42 -9
-50 -7 -10 -9 8 -9 60 1 53 3 68 9 50 4 -14 8 -41 9 -60z m908 -26 c-3 -3 -12
-4 -19 -1 -8 3 -5 6 6 6 11 1 17 -2 13 -5z m206 -100 c64 -45 97 -118 97 -211
0 -92 -14 -141 -52 -188 -46 -55 -99 -78 -174 -73 -48 3 -71 10 -103 32 -114
79 -128 291 -27 402 73 80 177 95 259 38z m-1333 -4 c0 -12 -8 -20 -22 -22
-23 -3 -23 -4 -23 -183 l0 -180 25 -3 c13 -2 41 1 61 7 30 9 41 19 50 46 13
35 35 46 44 23 3 -7 -1 -42 -8 -77 l-13 -64 -162 -1 c-162 -1 -162 -1 -162 22
0 15 6 22 20 22 28 0 31 23 28 210 -3 160 -4 165 -25 175 -20 9 -31 34 -19 46
2 2 50 3 105 1 91 -3 101 -5 101 -22z m-283 -2 c-3 -8 -6 -5 -6 6 -1 11 2 17
5 13 3 -3 4 -12 1 -19z m32 -201 c6 -16 10 -47 10 -70 l-1 -42 -8 40 c-4 21
-13 41 -19 43 -7 2 -11 39 -10 110 l2 107 7 -80 c4 -44 13 -93 19 -108z m1253
-146 c18 -46 17 -50 -17 -43 -22 4 -25 10 -25 43 0 52 22 51 42 0z m117 -118
c17 -17 17 -20 1 -56 -9 -20 -20 -34 -25 -30 -4 5 -5 3 -2 -3 4 -7 0 -17 -9
-24 -8 -7 -12 -20 -9 -28 3 -7 2 -19 -2 -25 -4 -7 -6 -24 -4 -39 1 -14 -2 -29
-7 -32 -6 -3 -8 2 -5 13 3 13 -2 21 -16 26 -42 13 -50 68 -11 80 11 3 22 20
25 38 9 40 32 97 40 97 3 0 14 -8 24 -17z m-631 -68 c1 -14 0 -25 -2 -25 -8 0
-46 67 -46 80 0 24 45 -28 48 -55z m701 38 c9 -16 12 -16 22 -3 9 12 10 10 5
-10 -5 -24 -4 -24 9 -6 8 10 16 24 19 30 3 7 8 7 14 -3 12 -17 -7 -71 -26 -71
-11 0 -12 3 -3 13 8 11 5 13 -19 9 -17 -2 -30 -10 -30 -18 0 -8 -3 -14 -8 -14
-14 0 -31 -74 -20 -87 5 -7 7 -21 3 -32 -10 -32 -65 -40 -65 -9 0 7 5 6 15 -2
8 -6 19 -9 25 -5 18 11 10 35 -16 45 -20 8 -25 16 -22 37 2 15 12 32 23 38 11
5 20 15 20 20 1 18 29 85 37 85 4 0 12 -8 17 -17z m-899 -98 c7 -8 9 -26 6
-40 -5 -19 -13 -25 -32 -25 -23 0 -26 -4 -22 -25 3 -15 1 -25 -6 -25 -7 0 -11
23 -11 63 0 60 1 62 27 64 14 1 32 -4 38 -12z m230 -5 c11 -11 20 -33 20 -50
0 -31 -30 -70 -52 -70 -45 1 -72 73 -44 115 20 30 49 32 76 5z m108 -28 c-2
-19 -10 -28 -25 -30 -17 -3 -23 -10 -23 -28 0 -13 -3 -24 -7 -24 -5 0 -8 27
-8 60 0 33 3 60 8 60 4 0 7 -13 7 -30 0 -20 5 -30 15 -30 25 0 29 29 9 52 -19
21 -19 21 4 9 17 -9 22 -19 20 -39z m150 30 c3 -11 0 -11 -16 -1 -28 18 -52
-3 -52 -47 0 -40 24 -67 54 -59 17 5 18 4 6 -4 -22 -16 -38 -13 -60 9 -26 26
-26 74 1 101 22 22 60 22 67 1z m186 -46 c19 -58 20 -66 6 -66 -5 0 -10 9 -10
20 0 15 -7 20 -25 20 -18 0 -25 -5 -25 -20 0 -11 -4 -20 -9 -20 -5 0 0 29 12
65 12 36 24 62 28 57 3 -4 14 -29 23 -56z m313 -33 c-2 -21 -4 -6 -4 32 0 39
2 55 4 38 2 -18 2 -50 0 -70z m-1377 27 c0 -33 -4 -60 -10 -60 -6 0 -10 27
-10 60 0 33 4 60 10 60 6 0 10 -27 10 -60z m17 -32 c-2 -18 -4 -4 -4 32 0 36
2 50 4 33 2 -18 2 -48 0 -65z m153 67 c0 -20 5 -25 25 -25 20 0 25 5 25 25 0
14 6 25 13 25 8 0 11 -17 9 -60 -4 -60 -22 -86 -22 -30 0 25 -4 30 -25 30 -21
0 -25 -5 -25 -30 0 -56 -18 -30 -22 30 -2 43 1 60 10 60 6 0 12 -11 12 -25z
m125 -35 c0 -33 -4 -60 -10 -60 -6 0 -10 27 -10 60 0 33 4 60 10 60 6 0 10
-27 10 -60z m635 4 c0 -55 1 -56 25 -52 14 3 25 1 25 -3 0 -5 -17 -9 -37 -9
l-38 0 0 60 c0 41 4 60 13 60 8 0 12 -18 12 -56z m467 -36 c-2 -18 -4 -4 -4
32 0 36 2 50 4 33 2 -18 2 -48 0 -65z m-54 62 c-4 -16 -9 -18 -24 -9 -26 14
-24 29 5 29 19 0 23 -4 19 -20z m-208 -98 c-6 -8 -35 12 -35 24 0 11 4 10 18
-3 10 -10 18 -19 17 -21z m-1445 -42 c0 -5 -9 -10 -20 -10 -11 0 -20 5 -20 10
0 6 9 10 20 10 11 0 20 -4 20 -10z"/>
<path d="M1155 1512 c15 -16 95 -27 95 -13 0 6 -15 11 -34 11 -19 0 -43 3 -53
6 -13 5 -15 4 -8 -4z"/>
<path d="M1061 1348 c0 -28 2 -30 9 -13 12 28 12 45 0 45 -5 0 -10 -15 -9 -32z"/>
<path d="M887 1323 c-4 -3 -7 -34 -7 -69 0 -61 0 -62 31 -66 46 -7 81 2 86 23
5 17 26 24 61 20 16 -2 33 44 24 66 -5 14 -8 12 -12 -11 -7 -42 -27 -43 -43
-3 -11 26 -23 36 -47 41 -42 8 -85 8 -93 -1z"/>
<path d="M1036 1208 c-3 -13 -6 -49 -6 -80 0 -45 -3 -58 -15 -58 -8 0 -15 6
-15 14 0 28 -30 46 -76 46 l-44 0 0 -40 c0 -22 5 -40 10 -40 6 0 10 5 10 10 0
6 6 10 14 10 8 0 16 8 19 18 3 13 7 10 18 -13 7 -16 18 -33 22 -36 5 -4 7 -15
5 -25 -3 -15 -12 -19 -46 -19 -23 0 -42 -3 -42 -7 0 -5 25 -8 55 -8 46 0 60 4
80 25 26 25 32 45 14 45 -6 0 -8 8 -5 18 7 20 17 162 12 162 -2 0 -6 -10 -10
-22z"/>
<path d="M1243 1155 c0 -33 2 -45 4 -27 2 18 2 45 0 60 -2 15 -4 0 -4 -33z"/>
<path d="M1353 1103 c21 -6 22 -1 -7 -64 l-25 -52 -30 32 c-17 18 -31 28 -31
21 0 -17 59 -70 79 -70 50 1 61 11 61 57 0 56 -14 83 -43 82 -17 -1 -18 -2 -4
-6z"/>
<path d="M1111 1084 c0 -11 3 -14 6 -6 3 7 2 16 -1 19 -3 4 -6 -2 -5 -13z"/>
<path d="M1251 1074 c0 -11 3 -14 6 -6 3 7 2 16 -1 19 -3 4 -6 -2 -5 -13z"/>
<path d="M912 769 c-19 -30 -14 -39 18 -39 23 0 30 4 30 20 0 30 -33 43 -48
19z"/>
<path d="M1760 1327 c-32 -15 -58 -69 -62 -127 -2 -39 0 -44 18 -44 22 0 47
19 57 44 3 9 6 3 6 -13 1 -16 5 -26 10 -22 5 3 13 0 17 -6 4 -8 9 -7 15 2 6 9
9 -17 8 -68 -1 -44 -5 -87 -10 -95 -6 -9 -9 -9 -9 -1 0 7 -7 10 -15 7 -20 -8
-32 25 -14 37 11 7 11 9 -3 9 -14 0 -18 -8 -18 -34 0 -64 70 -51 105 19 23 47
27 168 7 226 -21 61 -67 88 -112 66z m50 -127 c0 -5 -4 -10 -10 -10 -5 0 -10
5 -10 10 0 6 5 10 10 10 6 0 10 -4 10 -10z"/>
<path d="M1804 1105 c4 -51 16 -56 16 -7 0 23 -4 42 -9 42 -5 0 -8 -16 -7 -35z"/>
<path d="M1701 1099 c-1 -18 20 -82 25 -77 2 2 -3 24 -11 48 -7 25 -14 38 -14
29z"/>
<path d="M1590 756 c0 -8 6 -16 13 -19 8 -3 13 3 13 14 0 11 -6 19 -13 19 -7
0 -13 -6 -13 -14z"/>
<path d="M1675 761 c-3 -5 -1 -12 4 -15 5 -3 11 1 15 9 6 16 -9 21 -19 6z"/>
<path d="M810 744 c0 -33 33 -30 38 4 3 17 -2 22 -17 22 -16 0 -21 -6 -21 -26z"/>
<path d="M1030 761 c-15 -29 -12 -67 6 -85 8 -9 19 -16 23 -16 17 0 31 27 31
60 0 55 -38 81 -60 41z"/>
<path d="M1498 742 c-4 -12 -2 -25 4 -28 16 -10 22 4 11 28 l-10 22 -5 -22z"/>
<path d="M152 1467 c4 -26 20 -30 24 -5 1 9 -5 19 -13 22 -10 4 -14 0 -11 -17z"/>
<path d="M181 1380 c0 -22 16 -74 18 -60 1 3 5 20 10 38 7 22 6 30 -1 26 -6
-4 -14 0 -19 7 -6 10 -9 7 -8 -11z"/>
<path d="M168 1043 c7 -3 16 -2 19 1 4 3 -2 6 -13 5 -11 0 -14 -3 -6 -6z"/>
</g>
</svg>
