<?xml version="1.0" standalone="no"?>
<!DOCTYPE svg PUBLIC "-//W3C//DTD SVG 20010904//EN"
 "http://www.w3.org/TR/2001/REC-SVG-20010904/DTD/svg10.dtd">
<svg version="1.0" xmlns="http://www.w3.org/2000/svg"
 width="221.000000pt" height="221.000000pt" viewBox="0 0 221.000000 221.000000"
 preserveAspectRatio="xMidYMid meet">

<g transform="translate(0.000000,221.000000) scale(0.100000,-0.100000)"
fill="#000000" stroke="none">
<path d="M135 2075 c-22 -21 -25 -34 -27 -102 -1 -43 -3 -145 -5 -228 -2 -82
0 -363 3 -623 l6 -473 37 5 c20 3 68 8 106 11 l70 7 -3 74 c-3 51 0 80 9 92
11 14 11 15 -1 5 -8 -7 -18 -13 -22 -13 -14 0 -9 33 9 52 9 10 14 21 11 24 -4
3 -46 -39 -95 -94 -56 -64 -91 -96 -95 -89 -14 21 -9 33 29 71 36 36 37 37 12
31 -32 -8 -59 15 -59 50 0 47 113 145 167 145 21 0 23 5 23 46 0 67 17 45 25
-33 9 -95 14 -113 31 -106 8 3 14 1 14 -5 0 -6 10 -8 21 -5 16 4 20 2 17 -8
-3 -8 -12 -14 -20 -14 -34 0 -45 -23 -37 -72 4 -27 8 -69 8 -95 l1 -48 35 0
c33 0 41 -10 36 -42 0 -5 26 -8 59 -8 50 0 61 -3 70 -21 9 -16 8 -26 -5 -46
-14 -20 -15 -31 -6 -49 10 -22 8 -24 -18 -24 -20 0 -31 7 -39 25 -6 14 -16 25
-22 25 -5 0 -12 -11 -16 -25 -4 -18 -13 -25 -31 -25 -22 0 -24 3 -19 25 14 57
19 118 9 112 -6 -4 -11 -23 -11 -43 0 -55 -30 -88 -81 -92 -23 -2 -49 2 -57 9
-17 14 -18 62 -3 91 6 11 8 22 5 25 -3 3 -20 -24 -38 -61 -28 -58 -36 -66 -60
-66 -25 0 -28 4 -28 33 l-1 32 -13 -31 c-8 -18 -18 -34 -23 -37 -7 -4 -7 -44
-2 -194 l1 -23 25 20 c14 11 39 20 55 20 l28 0 -32 -29 -33 -29 23 -41 23 -41
-30 0 c-23 0 -34 7 -45 28 l-15 27 -1 -28 c0 -19 10 -39 29 -58 l29 -29 937 0
937 0 29 29 c27 28 29 35 31 113 0 46 1 101 0 123 0 22 -1 57 -1 78 -1 32 -4
37 -24 37 -16 0 -28 9 -35 25 -15 32 -30 32 -38 0 -4 -18 -13 -25 -30 -25 -13
0 -24 3 -23 8 0 4 6 34 13 67 l13 60 60 3 60 3 6 42 c3 23 2 58 -3 77 l-8 35
-2 -35 c-1 -19 -4 -28 -7 -19 -3 12 -11 15 -25 11 -14 -3 -26 1 -34 13 -12 16
-14 17 -20 2 -3 -10 -10 -17 -15 -17 -15 0 -10 47 6 60 22 18 3 35 -38 35 -28
0 -32 3 -30 25 l3 25 -21 -27 c-21 -29 -49 -37 -49 -15 0 21 146 160 160 152
8 -5 2 -17 -20 -40 -27 -28 -29 -33 -14 -39 15 -6 14 -10 -11 -36 -16 -17 -24
-30 -18 -30 5 0 18 9 29 21 31 34 73 61 85 54 7 -5 -2 -21 -23 -43 l-33 -36
45 36 45 36 2 538 c1 311 -3 555 -8 576 -12 46 -42 68 -91 68 -28 0 -36 -3
-32 -14 7 -18 -27 -38 -45 -26 -8 4 -11 15 -8 24 6 15 -71 16 -879 16 l-885 0
-24 -25z m1193 -56 c2 -9 -5 -19 -14 -23 -21 -8 -50 17 -39 34 10 16 49 8 53
-11z m-770 -70 c2 -9 -5 -19 -14 -23 -21 -8 -50 17 -39 34 10 16 49 8 53 -11z
m1212 -78 c57 -6 65 -8 35 -11 -93 -6 -100 -10 -105 -65 -5 -49 -5 -50 -40
-50 -40 0 -80 32 -80 65 0 18 -7 20 -67 21 l-68 1 60 10 c33 5 71 18 85 29 19
15 35 18 65 14 22 -3 74 -10 115 -14z m158 2 c-10 -2 -26 -2 -35 0 -10 3 -2 5
17 5 19 0 27 -2 18 -5z m-545 -50 c-7 -2 -19 -2 -25 0 -7 3 -2 5 12 5 14 0 19
-2 13 -5z m-1069 -638 c4 -31 3 -44 -2 -35 -5 8 -12 49 -15 90 -6 78 4 46 17
-55z m674 -177 c22 -22 13 -47 -25 -73 -37 -25 -93 -34 -93 -16 0 12 14 21 41
26 30 6 76 38 62 42 -15 5 -102 -39 -142 -72 -37 -32 -42 -65 -8 -65 40 1 110
40 168 95 53 50 79 66 79 48 0 -4 -14 -22 -32 -40 -24 -25 -28 -33 -15 -33 24
0 21 -18 -5 -40 -13 -10 -20 -21 -17 -25 4 -3 25 12 48 35 46 47 84 52 89 11
l4 -23 30 28 c20 19 32 25 35 17 3 -10 10 -10 25 -2 17 9 19 8 16 -8 -2 -10
-11 -18 -20 -18 -10 0 -32 -15 -51 -33 -37 -36 -47 -39 -47 -15 0 15 -1 15
-18 0 -21 -19 -59 -22 -64 -6 -3 9 -9 9 -25 0 -38 -19 -56 -14 -50 15 l4 25
-28 -27 c-21 -20 -32 -24 -41 -16 -9 7 -20 6 -38 -3 -37 -21 -67 -18 -84 7
-22 32 -20 52 10 88 27 31 64 55 119 77 40 15 58 16 73 1z m-248 -58 c9 -16 7
-20 -14 -26 -13 -3 -39 -21 -57 -40 -34 -35 -30 -45 9 -18 29 20 29 8 0 -17
-28 -22 -57 -24 -64 -4 -5 13 -8 13 -27 0 -27 -19 -51 -19 -67 0 -17 20 -5 48
31 69 37 22 59 15 59 -20 l0 -27 25 23 c19 18 22 26 14 37 -9 10 -6 13 14 13
13 0 30 7 37 15 17 20 27 19 40 -5z m588 -34 c5 -22 -25 -56 -50 -56 -10 0
-18 -5 -18 -11 0 -16 42 0 66 26 58 63 108 70 102 13 -4 -42 -47 -70 -78 -50
-17 10 -26 10 -51 -4 -28 -14 -32 -14 -50 2 -26 23 -24 31 16 71 36 36 58 39
63 9z m-825 -11 c10 -57 -68 -102 -94 -53 -10 19 -8 25 20 50 40 35 67 36 74
3z m1041 10 c18 -13 17 -16 -20 -62 -72 -88 -69 -82 -49 -97 17 -12 17 -14 0
-39 -21 -33 -37 -34 -69 -3 -32 29 -33 42 -3 57 12 6 30 18 40 27 16 14 16 17
1 33 -19 21 -8 46 32 78 31 25 42 25 68 6z m76 5 c0 -7 7 -7 21 0 18 10 20 9
17 -7 -2 -10 -13 -19 -24 -21 -12 -2 -34 -16 -49 -33 -52 -54 -64 -26 -14 34
30 36 49 47 49 27z m128 -6 l23 -16 -26 -20 c-14 -10 -25 -25 -25 -31 0 -6 21
10 48 35 38 38 52 46 74 41 38 -7 41 -28 11 -64 -21 -24 -32 -30 -55 -27 -24
4 -34 -2 -60 -34 -22 -28 -34 -36 -42 -28 -7 7 -7 16 2 31 17 27 6 42 -20 28
-16 -9 -23 -8 -29 2 -15 24 -10 36 26 68 41 36 43 36 73 15z m-84 -120 c21
-20 21 -74 1 -74 -9 0 -15 -9 -16 -22 l0 -23 -9 22 c-6 14 -15 20 -27 17 -22
-6 -46 30 -38 57 4 10 21 23 38 28 18 5 33 10 34 10 1 1 9 -6 17 -15z m-381
-55 c11 -41 -12 -59 -75 -59 -45 0 -58 -3 -58 -15 0 -11 -11 -15 -41 -15 -27
0 -38 4 -33 11 5 8 -3 10 -26 7 -32 -5 -32 -4 -26 30 3 19 7 36 9 38 4 4 152
21 203 23 35 1 43 -3 47 -20z m-690 -61 c7 -21 -4 -38 -24 -38 -14 0 -19 7
-19 25 0 18 5 25 19 25 11 0 21 -6 24 -12z m887 -2 c0 -9 -30 -14 -35 -6 -4 6
3 10 14 10 12 0 21 -2 21 -4z m-766 -52 c9 -3 16 -13 16 -21 0 -12 -8 -14 -40
-9 -51 8 -53 -7 -2 -20 75 -18 41 -84 -43 -84 -42 0 -65 13 -65 37 0 15 46 18
55 3 8 -13 35 -13 35 -1 0 5 -16 15 -35 21 -27 9 -35 17 -35 35 0 13 8 29 18
34 19 12 72 14 96 5z m176 -1 c0 -16 -16 -31 -35 -34 -15 -3 -22 -16 -29 -52
-7 -41 -11 -47 -33 -47 -23 0 -25 2 -19 36 4 19 10 42 13 50 3 9 -2 14 -16 14
-14 0 -21 6 -21 20 0 18 7 20 70 20 39 0 70 -3 70 -7z m196 -8 c4 -8 3 -23 -1
-32 -4 -10 -7 -30 -6 -45 3 -35 -22 -48 -93 -48 -63 0 -61 -3 -44 82 l12 58
63 0 c47 0 65 -4 69 -15z m162 -2 c-2 -13 -16 -20 -48 -24 -45 -6 -45 -6 -7
-7 30 -2 37 -6 37 -22 0 -17 -7 -20 -42 -22 l-43 -1 43 -4 c34 -3 42 -8 42
-24 0 -17 -7 -19 -70 -19 -38 0 -70 2 -70 5 0 7 21 109 25 123 3 8 26 12 70
12 58 0 66 -2 63 -17z m68 -8 c-6 -22 -3 -25 18 -25 18 0 25 6 28 23 2 16 11
23 30 25 20 2 27 -1 24 -10 -3 -7 -10 -39 -16 -70 -10 -52 -14 -58 -37 -58
-22 0 -25 4 -21 25 4 21 1 25 -18 25 -16 0 -24 -7 -26 -22 -2 -17 -11 -24 -32
-26 -21 -3 -27 0 -24 10 3 7 11 39 18 71 10 51 14 57 37 57 22 0 24 -3 19 -25z
m234 -32 c7 -32 15 -64 17 -70 4 -9 -5 -13 -26 -13 -17 0 -31 5 -31 10 0 6
-11 10 -24 10 -14 0 -28 -4 -31 -10 -6 -10 -55 -14 -55 -5 0 3 18 35 41 70 34
54 45 65 68 65 26 0 29 -5 41 -57z m94 41 c3 -9 6 -25 6 -37 1 -18 5 -15 23
15 21 36 24 38 75 38 59 0 58 2 41 -83 -10 -50 -15 -57 -35 -57 -27 0 -29 11
-13 79 5 24 8 46 5 48 -2 2 -20 -25 -40 -61 -32 -58 -41 -66 -66 -66 -27 0
-29 3 -35 48 -3 26 -8 57 -11 70 -4 18 0 22 20 22 13 0 27 -7 30 -16z m300 -6
c32 -50 -14 -120 -78 -120 -20 0 -43 6 -51 12 -22 18 -18 73 6 104 28 36 101
38 123 4z m-1668 -330 l7 -33 14 33 c18 43 51 44 60 1 l6 -31 13 31 c10 23 19
31 39 31 l25 0 -35 -70 c-29 -58 -39 -70 -60 -70 -21 0 -25 5 -26 33 l0 32
-17 -33 c-13 -26 -21 -32 -42 -30 -24 3 -25 7 -28 71 -3 61 -1 67 17 67 14 0
22 -9 27 -32z m234 2 c14 -34 30 -31 30 6 0 19 5 24 25 24 29 0 29 -3 13 -82
-11 -53 -14 -58 -39 -58 -20 0 -30 7 -39 30 -14 34 -30 31 -30 -6 0 -19 -5
-24 -25 -24 -28 0 -29 5 -14 70 14 67 16 70 42 70 18 0 28 -8 37 -30z"/>
<path d="M1080 880 c-14 -10 -22 -22 -18 -25 10 -10 48 14 48 30 0 19 0 19
-30 -5z"/>
<path d="M551 876 c-19 -20 -21 -26 -9 -26 19 0 41 25 36 40 -2 6 -14 0 -27
-14z"/>
<path d="M1290 895 c-20 -24 -6 -28 15 -5 10 11 13 20 8 20 -6 0 -16 -7 -23
-15z"/>
<path d="M1365 870 c-15 -16 -15 -20 -3 -20 8 0 23 9 33 20 15 16 15 20 3 20
-8 0 -23 -9 -33 -20z"/>
<path d="M449 881 c-13 -11 -20 -23 -16 -27 4 -4 17 2 29 14 28 28 18 38 -13
13z"/>
<path d="M1483 875 c-15 -13 -23 -25 -17 -25 6 0 21 11 34 25 30 32 19 32 -17
0z"/>
<path d="M1817 886 c-15 -14 -27 -28 -27 -31 0 -9 35 12 50 30 22 26 5 27 -23
1z"/>
<path d="M1684 869 c-21 -23 -23 -29 -9 -21 25 13 62 52 48 52 -5 0 -22 -14
-39 -31z"/>
<path d="M1008 583 c6 -2 18 -2 25 0 6 3 1 5 -13 5 -14 0 -19 -2 -12 -5z"/>
<path d="M985 540 c-4 -6 5 -10 19 -10 14 0 26 5 26 10 0 6 -9 10 -19 10 -11
0 -23 -4 -26 -10z"/>
<path d="M1486 555 c-3 -8 -1 -15 4 -15 6 0 10 7 10 15 0 8 -2 15 -4 15 -2 0
-6 -7 -10 -15z"/>
<path d="M1866 585 c-9 -9 -16 -25 -16 -36 0 -31 44 -21 48 10 5 33 -11 46
-32 26z"/>
<path d="M251 967 c-42 -22 -111 -88 -111 -107 0 -24 74 4 130 49 27 22 21 28
-10 11 -13 -7 -21 -7 -25 0 -3 5 -1 10 5 10 14 0 80 43 80 53 0 13 -24 7 -69
-16z"/>
<path d="M2081 846 c-9 -10 -8 -16 4 -26 13 -11 15 -8 15 14 0 30 -3 32 -19
12z"/>
<path d="M197 603 c-4 -3 -7 -16 -6 -27 0 -19 1 -19 10 3 10 24 8 36 -4 24z"/>
<path d="M111 584 c0 -11 3 -14 6 -6 3 7 2 16 -1 19 -3 4 -6 -2 -5 -13z"/>
<path d="M326 584 c-16 -16 -21 -45 -10 -57 13 -13 44 14 44 38 0 31 -14 39
-34 19z"/>
<path d="M480 585 c0 -8 9 -15 19 -15 26 0 35 16 15 24 -25 10 -34 7 -34 -9z"/>
<path d="M2020 580 c0 -5 9 -10 19 -10 11 0 23 5 26 10 4 6 -5 10 -19 10 -14
0 -26 -4 -26 -10z"/>
</g>
</svg>
