<?xml version="1.0" standalone="no"?>
<!DOCTYPE svg PUBLIC "-//W3C//DTD SVG 20010904//EN"
 "http://www.w3.org/TR/2001/REC-SVG-20010904/DTD/svg10.dtd">
<svg version="1.0" xmlns="http://www.w3.org/2000/svg"
 width="220.000000pt" height="221.000000pt" viewBox="0 0 220.000000 221.000000"
 preserveAspectRatio="xMidYMid meet">

<g transform="translate(0.000000,221.000000) scale(0.100000,-0.100000)"
fill="#000000" stroke="none">
<path d="M148 2093 c-14 -9 -31 -27 -37 -40 -16 -34 -15 -1856 0 -1886 24 -47
48 -57 147 -57 61 0 91 4 87 10 -4 7 7 9 29 6 35 -4 37 -3 40 33 1 15 116 44
116 29 0 -4 7 -8 15 -8 25 0 17 17 -12 26 l-28 7 30 7 c17 3 33 1 37 -5 5 -6
8 -5 8 4 0 11 13 13 58 9 41 -4 61 -2 70 8 7 8 21 14 32 14 10 0 22 5 25 10 4
6 10 8 15 5 4 -3 2 14 -5 38 -28 95 -28 97 0 97 l25 0 0 195 0 195 71 0 c39 0
68 4 65 9 -3 5 1 11 9 15 8 3 14 0 12 -6 -1 -6 17 -12 45 -13 27 -1 48 -2 48
-1 0 1 -9 19 -20 41 -13 26 -17 42 -10 49 16 16 12 26 -10 26 -18 0 -20 7 -20
55 0 56 -8 65 -39 46 -9 -6 -26 -3 -48 7 -29 14 -33 20 -33 54 0 38 8 46 26
28 7 -7 15 -2 24 15 14 26 38 29 32 4 -15 -61 -15 -72 -1 -63 8 5 21 9 29 9
12 0 16 19 21 85 6 97 11 113 44 134 49 32 122 11 181 -51 53 -56 61 -85 63
-210 l2 -113 -31 0 c-26 0 -30 -3 -30 -28 0 -16 7 -43 16 -60 15 -31 18 -32
75 -32 l59 0 0 -31 c0 -17 -22 -74 -51 -129 -38 -76 -51 -111 -52 -150 -2 -51
3 -57 37 -44 19 7 21 37 4 56 -15 15 -17 54 -4 51 6 -1 17 -19 25 -41 9 -22
21 -46 27 -53 7 -8 24 -39 39 -69 49 -98 53 -102 80 -84 13 9 29 13 35 9 14
-9 38 17 32 34 -3 10 1 12 17 8 11 -3 19 -1 15 4 -3 5 -17 10 -32 10 -24 2
-25 2 -4 6 19 4 21 7 11 19 -6 8 -8 14 -4 14 4 0 2 7 -5 16 -11 13 -10 16 6
20 19 5 27 44 13 59 -7 7 34 172 46 183 4 4 25 -13 46 -38 l39 -45 -4 -101
c-5 -129 3 -143 71 -126 99 23 110 24 127 6 10 -10 14 -23 10 -33 -3 -9 -9
-25 -12 -36 -3 -11 -14 -35 -24 -54 -15 -27 -17 -39 -9 -60 5 -14 11 -37 13
-51 3 -24 6 -25 73 -26 39 -1 60 0 48 3 -23 4 -28 14 -38 73 -5 28 -1 43 19
73 14 21 26 44 26 51 0 19 60 76 81 76 18 0 19 26 19 821 0 748 -2 823 -17
849 -9 16 -27 33 -40 39 -17 8 -304 11 -946 11 -841 -1 -924 -2 -949 -17z
m890 -197 c10 -9 22 -13 27 -9 4 5 6 3 3 -2 -4 -6 2 -25 11 -44 14 -27 19 -30
24 -17 4 10 12 14 18 10 8 -4 9 1 5 17 -4 19 -3 18 6 -3 7 -16 15 -28 20 -28
4 0 17 -9 27 -19 16 -16 18 -26 10 -67 -5 -26 -11 -49 -13 -52 -3 -2 16 -34
41 -70 50 -74 59 -85 51 -61 -4 9 -2 22 3 30 6 10 9 4 9 -18 0 -18 5 -33 10
-33 6 0 10 -7 10 -15 0 -8 9 -19 20 -25 11 -6 20 -20 20 -32 0 -16 -3 -18 -13
-9 -8 6 -17 8 -20 4 -4 -3 -14 0 -22 7 -14 12 -15 11 -4 -14 11 -22 10 -29 -1
-36 -22 -14 -134 -22 -160 -11 -14 5 -18 10 -10 11 8 0 24 12 34 27 l19 26
-24 -8 c-13 -5 -55 -9 -94 -9 -76 -1 -64 -7 -172 89 -63 55 -85 102 -72 150
28 99 129 163 200 125 13 -7 19 -7 19 0 0 5 -8 11 -17 11 -14 1 -15 2 -3 5 24
7 44 44 31 57 -8 8 -11 6 -11 -6 0 -22 -29 -36 -76 -35 -53 0 -64 -3 -94 -29
-13 -13 -28 -23 -33 -23 -4 0 -5 -4 -2 -10 3 -5 1 -10 -5 -10 -6 0 -9 -4 -6
-9 3 -5 -1 -28 -9 -52 -10 -27 -13 -56 -9 -78 7 -37 48 -107 74 -128 13 -10
13 -12 -2 -18 -32 -12 -19 -31 30 -44 26 -8 52 -13 57 -11 18 4 56 3 61 -3 3
-3 6 -20 7 -39 2 -32 3 -33 39 -30 39 4 78 -11 78 -30 0 -6 -11 -8 -30 -4 -38
7 -77 -11 -95 -43 -14 -26 -14 -26 -15 -3 0 14 -4 21 -11 16 -6 -3 -9 -15 -6
-25 3 -11 1 -16 -5 -13 -6 4 -8 -4 -4 -22 6 -30 -4 -56 -20 -53 -21 4 -35 -2
-29 -11 4 -6 11 -8 16 -5 5 4 9 4 9 1 0 -16 -40 -25 -62 -13 -46 23 -88 65
-82 81 3 8 1 24 -6 35 -9 17 -15 19 -30 11 -30 -16 -41 17 -51 149 -5 64 -11
124 -13 134 -2 9 -1 15 4 12 4 -2 6 21 5 53 -2 48 2 64 25 99 16 22 31 50 34
61 4 11 44 46 89 76 73 50 87 55 125 52 23 -2 50 -11 60 -20z m582 -126 c0
-28 -3 -30 -35 -30 -32 0 -35 2 -35 30 0 28 3 30 35 30 32 0 35 -2 35 -30z
m268 -185 c1 -1 -1 -41 -4 -88 -6 -77 -9 -86 -28 -89 -11 -2 -22 -12 -25 -23
-8 -44 -41 -35 -41 11 0 11 -10 30 -23 42 -19 18 -26 19 -47 9 -13 -7 -28 -26
-33 -43 -6 -20 -19 -34 -37 -41 l-27 -10 -7 90 c-10 148 -11 145 27 149 30 4
239 -2 245 -7z m-510 -87 l-1 -93 -7 85 c-3 47 -4 88 -2 93 9 20 12 -1 10 -85z
m158 18 c3 -61 1 -70 -19 -86 -18 -15 -22 -28 -21 -69 0 -28 -2 -51 -5 -52
-39 -5 -49 -4 -43 5 12 19 12 40 0 93 -9 41 -16 53 -34 57 -25 7 -32 30 -13
42 6 3 9 22 7 40 -5 40 1 43 71 41 l54 -2 3 -69z m-1276 -76 c0 -5 -9 -10 -21
-10 -11 0 -17 5 -14 10 3 6 13 10 21 10 8 0 14 -4 14 -10z m1748 -57 c3 -22
-19 -36 -43 -27 -20 8 -19 31 3 43 23 14 36 9 40 -16z m-1638 3 c0 -8 -5 -18
-11 -22 -14 -8 -33 11 -25 25 10 16 36 13 36 -3z m830 -81 c19 -23 9 -25 -25
-4 -26 17 -27 19 -9 19 12 0 27 -7 34 -15z m520 -90 c-8 -10 -7 -23 4 -49 8
-20 12 -36 8 -36 -15 1 -42 28 -42 43 0 28 20 68 30 62 8 -5 8 -11 0 -20z m30
-35 c0 -11 -4 -20 -9 -20 -5 0 -7 9 -4 20 3 11 7 20 9 20 2 0 4 -9 4 -20z
m-250 -30 c0 -5 -9 -14 -20 -20 -11 -6 -20 -17 -20 -25 0 -7 -4 -17 -10 -20
-18 -11 -10 20 13 47 23 28 37 35 37 18z m-681 -114 c10 -12 8 -17 -11 -27
-13 -6 -35 -23 -50 -36 -17 -16 -33 -23 -45 -19 -11 4 -45 -7 -85 -28 -36 -19
-68 -32 -72 -29 -11 11 15 43 47 58 48 22 100 53 106 64 17 28 92 39 110 17z
m1241 -31 c0 -8 5 -15 10 -15 6 0 5 -8 -2 -20 -12 -19 -13 -19 -26 5 -13 25
-9 45 9 45 5 0 9 -7 9 -15z m-290 -167 c0 -21 -5 -28 -19 -28 -10 0 -22 8 -25
17 -7 18 2 121 12 138 7 11 31 -87 32 -127z m-103 70 c-3 -7 -5 -2 -5 12 0 14
2 19 5 13 2 -7 2 -19 0 -25z m0 -50 c-3 -8 -6 -5 -6 6 -1 11 2 17 5 13 3 -3 4
-12 1 -19z m103 -83 c0 -29 -34 -36 -44 -9 -8 21 1 34 25 34 14 0 19 -7 19
-25z m183 -1 c74 -7 91 -20 103 -80 5 -28 2 -32 -36 -49 -22 -10 -45 -26 -50
-34 -7 -14 -10 -13 -16 4 -4 11 -19 47 -34 80 l-27 61 -41 -4 c-38 -4 -42 -2
-42 18 0 20 4 22 38 16 20 -3 68 -9 105 -12z m-123 -89 c0 -10 10 -15 27 -15
19 0 24 -3 16 -11 -18 -18 -58 -7 -61 19 -2 12 1 22 7 22 6 0 11 -7 11 -15z
m-440 1 c0 -2 -8 -10 -17 -17 -16 -13 -17 -12 -4 4 13 16 21 21 21 13z m-43
-108 c-3 -8 -6 -5 -6 6 -1 11 2 17 5 13 3 -3 4 -12 1 -19z m431 -53 c1 -22 -2
-47 -7 -55 -9 -13 -12 -12 -25 5 -16 21 -21 76 -9 89 18 18 38 -1 41 -39z
m-341 -41 c-3 -3 -12 -4 -19 -1 -8 3 -5 6 6 6 11 1 17 -2 13 -5z"/>
<path d="M1050 1791 c0 -9 41 -33 47 -27 3 2 2 9 -1 14 -7 12 -46 23 -46 13z"/>
<path d="M1166 1777 c3 -10 9 -15 12 -12 3 3 0 11 -7 18 -10 9 -11 8 -5 -6z"/>
<path d="M1002 1698 c-14 -14 -16 -28 -2 -28 5 0 14 9 20 20 12 22 1 27 -18 8z"/>
<path d="M913 1587 c-23 -23 -30 -47 -15 -47 11 0 37 30 45 53 8 23 -3 21 -30
-6z"/>
<path d="M1110 1575 c0 -8 2 -15 4 -15 2 0 6 7 10 15 3 8 1 15 -4 15 -6 0 -10
-7 -10 -15z"/>
<path d="M1005 1570 c-3 -5 1 -10 9 -10 9 0 16 5 16 10 0 6 -4 10 -9 10 -6 0
-13 -4 -16 -10z"/>
<path d="M1087 1561 c-3 -13 -10 -20 -16 -17 -12 8 -34 -30 -26 -44 8 -14 52
-13 61 1 4 8 0 9 -15 4 -25 -8 -26 -2 -5 30 9 13 14 30 12 37 -3 7 -7 2 -11
-11z"/>
<path d="M988 722 l-88 -3 0 -54 0 -55 45 0 45 0 0 -40 0 -40 -44 0 -44 0 -1
-54 0 -54 84 -7 85 -7 0 -47 c0 -26 3 -51 8 -55 4 -4 8 -12 8 -17 1 -5 2 -13
3 -19 0 -5 6 -10 12 -10 5 0 7 5 4 10 -11 18 4 11 26 -12 36 -38 52 -68 58
-106 4 -25 12 -38 25 -40 14 -3 17 0 13 12 -3 8 -2 18 3 21 5 3 11 -4 15 -15
5 -14 14 -19 39 -18 29 1 32 4 28 29 -4 27 -6 28 -51 22 -43 -5 -47 -3 -61 23
-8 16 -34 54 -57 85 -47 60 -54 101 -31 166 10 27 9 52 -6 138 -28 165 -17
150 -118 147z"/>
<path d="M1245 709 c-4 -6 -5 -12 -2 -15 2 -3 7 2 10 11 7 17 1 20 -8 4z"/>
<path d="M1704 321 c18 -7 18 -8 -3 -28 l-22 -20 23 -7 c36 -9 98 -7 98 4 0 6
-9 10 -19 10 -11 0 -22 4 -25 8 -3 5 8 6 25 4 17 -3 29 0 29 7 0 6 -15 12 -32
12 l-33 2 35 7 c29 6 24 7 -30 8 -38 0 -57 -2 -46 -7z"/>
<path d="M2025 300 c3 -5 11 -10 16 -10 6 0 7 5 4 10 -3 6 -11 10 -16 10 -6 0
-7 -4 -4 -10z"/>
<path d="M1637 279 c7 -7 15 -10 18 -7 3 3 -2 9 -12 12 -14 6 -15 5 -6 -5z"/>
<path d="M2070 270 c0 -5 7 -10 15 -10 8 0 15 5 15 10 0 6 -7 10 -15 10 -8 0
-15 -4 -15 -10z"/>
<path d="M1505 150 c-3 -5 -19 -10 -36 -10 -31 0 -39 -14 -13 -24 9 -3 26 5
42 19 15 14 24 25 20 25 -4 0 -10 -4 -13 -10z"/>
</g>
</svg>
